<?xml version="1.0" standalone="no"?>
<!DOCTYPE svg PUBLIC "-//W3C//DTD SVG 1.1//EN" "http://www.w3.org/Graphics/SVG/1.1/DTD/svg11.dtd" >
<svg xmlns="http://www.w3.org/2000/svg" xmlns:xlink="http://www.w3.org/1999/xlink" version="1.1">
<metadata>
Created by FontForge 20161116 at Thu Nov 17 17:57:21 2016
 By Jimmy Wärting
Copyright 1989, 1995, 2002 Adobe Systems Incorporated. All rights reserved. Copyright 1989, 1995, 2002 Linotype GmbH. All rights reserved.
</metadata>
<defs>
<font id="iCielAvenirLTStd-45BookOblique" horiz-adv-x="556" >
  <font-face 
    font-family="iCiel Avenir LT Std"
    font-weight="300"
    font-style="oblique"
    font-stretch="normal"
    units-per-em="1000"
    panose-1="2 11 5 2 2 2 3 2 2 4"
    ascent="756"
    descent="-244"
    x-height="468"
    cap-height="708"
    bbox="-309.158 -288 1044 1050"
    underline-thickness="50"
    underline-position="-100"
    slope="-8"
    stemh="54"
    stemv="50"
    unicode-range="U+000D-FB02"
  />
<missing-glyph horiz-adv-x="598" 
d="M98 0v700h500v-700h-500zM348 395l170 255h-340zM378 350l170 -255v510zM178 50h340l-170 255zM148 605v-510l170 255z" />
    <glyph glyph-name="_229" unicode="fi" horiz-adv-x="537" 
d="M356 468l-9 -60h-111l-57 -408h-66l57 408h-99l9 60h99l18 128c16 115 76 172 181 172c17 0 35 -2 56 -7l-20 -60c-19 5 -35 7 -50 7c-57 0 -91 -40 -102 -120l-17 -120h111zM516 468l-66 -468h-66l66 468h66zM536 614c-11 -9 -22 -14 -35 -14s-23 5 -31 14
c-9 9 -12 21 -10 34s9 25 20 35c11 9 22 13 35 13s23 -4 31 -13c9 -10 12 -22 10 -35s-9 -25 -20 -34z" />
    <glyph glyph-name="_253" unicode="fl" horiz-adv-x="537" 
d="M356 468l-9 -60h-111l-57 -408h-66l57 408h-99l9 60h99l18 128c16 115 76 172 181 172c17 0 35 -2 56 -7l-20 -60c-19 5 -35 7 -50 7c-57 0 -91 -40 -102 -120l-17 -120h111zM556 756l-106 -756h-66l106 756h66z" />
    <glyph glyph-name=".notdef" horiz-adv-x="598" 
d="M98 0v700h500v-700h-500zM348 395l170 255h-340zM378 350l170 -255v510zM178 50h340l-170 255zM148 605v-510l170 255z" />
    <glyph glyph-name="NULL" horiz-adv-x="0" 
 />
    <glyph glyph-name="NULL" horiz-adv-x="0" 
 />
    <glyph glyph-name="CR" unicode="&#xd;" horiz-adv-x="250" 
 />
    <glyph glyph-name="space" unicode=" " horiz-adv-x="278" 
 />
    <glyph glyph-name="exclam" unicode="!" horiz-adv-x="278" 
d="M275 708l-73 -516h-72l73 516h72zM180 11c-13 -11 -27 -17 -42 -17s-27 6 -36 17c-9 10 -12 22 -10 37s9 27 20 38c12 11 26 16 41 16s28 -5 37 -16s12 -23 10 -38s-9 -27 -20 -37z" />
    <glyph glyph-name="quotedbl" unicode="&#x22;" horiz-adv-x="519" 
d="M223 473l34 235h60l-34 -235h-60zM368 473l34 235h60l-34 -235h-60z" />
    <glyph glyph-name="numbersign" unicode="#" 
d="M107 0l60 214h-102l9 60h110l44 162h-108l9 60h117l59 212h61l-59 -212h133l59 212h61l-59 -212h90l-9 -60h-99l-44 -162h95l-9 -60h-103l-60 -214h-61l60 214h-133l-60 -214h-61zM289 436l-44 -162h133l44 162h-133z" />
    <glyph glyph-name="dollar" unicode="$" 
d="M311 405l35 252c-35 -3 -66 -16 -92 -40s-42 -53 -47 -88c-7 -53 27 -95 104 -124zM346 314l-37 -264c33 0 62 9 88 27c34 23 54 56 61 101c10 63 -27 108 -112 136zM261 49l39 279c-123 39 -178 106 -165 199c7 55 34 101 79 138c41 34 88 53 141 57l10 70h48l-9 -68
c74 0 132 -28 173 -85l-63 -48c-21 46 -61 68 -120 67l-37 -267c60 -23 103 -46 128 -71c38 -37 53 -84 45 -142c-8 -55 -34 -100 -77 -136c-43 -35 -94 -55 -153 -58l-10 -68h-48l9 66c-91 5 -156 41 -195 110l66 43c39 -59 85 -87 139 -86z" />
    <glyph glyph-name="percent" unicode="%" horiz-adv-x="833" 
d="M398 421c-39 -34 -83 -51 -132 -51s-89 17 -118 51c-29 33 -40 75 -33 124s29 91 68 124c39 34 83 51 132 51s89 -17 118 -51c29 -33 41 -75 34 -124s-30 -91 -69 -124zM384 627c-19 22 -45 33 -77 33s-61 -11 -86 -33c-26 -22 -41 -49 -46 -82s3 -60 22 -82
s45 -33 77 -33s61 11 86 33c27 22 42 49 47 82s-3 60 -23 82zM749 39c-39 -34 -83 -51 -132 -51s-89 17 -118 51c-29 33 -40 75 -33 124s30 91 69 124c39 34 83 51 132 51s89 -17 118 -51c29 -33 40 -75 33 -124s-30 -91 -69 -124zM735 245c-19 22 -45 33 -77 33
s-61 -11 -86 -33c-26 -22 -41 -49 -46 -82s3 -60 23 -82c19 -22 45 -33 77 -33s61 11 86 33c26 22 41 49 46 82s-3 60 -23 82zM767 712l-554 -743l-49 27l556 743z" />
    <glyph glyph-name="ampersand" unicode="&#x26;" horiz-adv-x="704" 
d="M713 383l-161 -219l136 -164h-102l-85 104c-74 -81 -152 -122 -234 -122c-61 0 -110 18 -147 53c-39 38 -55 88 -46 149c12 88 75 158 190 209c-47 61 -67 116 -59 166c7 51 29 92 68 123c37 29 81 44 132 44c49 0 88 -14 115 -41c29 -29 41 -68 34 -118
c-9 -68 -70 -129 -182 -184l139 -168l121 168h81zM463 635c-17 17 -39 25 -66 25c-30 0 -56 -9 -79 -28s-37 -45 -42 -76c-6 -41 13 -84 56 -127c49 26 80 44 93 53c33 25 52 54 57 85c4 27 -2 50 -19 68zM462 152l-159 196c-92 -48 -142 -103 -151 -165
c-6 -39 4 -71 30 -97c25 -25 57 -38 96 -38c58 0 119 35 184 104z" />
    <glyph glyph-name="quotesingle" unicode="'" horiz-adv-x="260" 
d="M166 473l34 235h60l-34 -235h-60z" />
    <glyph glyph-name="parenleft" unicode="(" horiz-adv-x="260" 
d="M302 736l49 -34c-107 -141 -171 -279 -191 -414c-18 -129 6 -265 71 -408l-58 -40c-75 130 -102 279 -79 448c24 167 93 316 208 448z" />
    <glyph glyph-name="parenright" unicode=")" horiz-adv-x="260" 
d="M39 -160l-49 34c108 141 171 279 190 414c19 129 -5 265 -70 408l58 40c76 -131 102 -280 78 -448c-23 -166 -92 -315 -207 -448z" />
    <glyph glyph-name="asterisk" unicode="*" horiz-adv-x="444" 
d="M352 708l-21 -143l147 45l13 -56l-147 -45l73 -121l-54 -36l-74 124l-110 -124l-42 36l107 121l-135 45l29 56l133 -45l21 143h60z" />
    <glyph glyph-name="plus" unicode="+" horiz-adv-x="666" 
d="M441 558l-31 -225h225l-9 -60h-225l-31 -225h-60l31 225h-225l9 60h225l31 225h60z" />
    <glyph glyph-name="comma" unicode="," horiz-adv-x="278" 
d="M226 95l-114 -235h-67l100 235h81z" />
    <glyph glyph-name="hyphen" unicode="-" horiz-adv-x="333" 
d="M333 273l-9 -66h-257l9 66h257z" />
    <glyph glyph-name="period" unicode="." horiz-adv-x="278" 
d="M180 11c-13 -11 -27 -17 -42 -17s-27 6 -36 17c-9 10 -12 22 -10 37s9 27 20 38c12 11 26 16 41 16s28 -5 37 -16s12 -23 10 -38s-9 -27 -20 -37z" />
    <glyph glyph-name="slash" unicode="/" horiz-adv-x="370" 
d="M464 706l-404 -724l-55 19l405 725z" />
    <glyph glyph-name="zero" unicode="0" 
d="M558 596c21 -61 24 -141 10 -242c-34 -244 -131 -366 -292 -366c-159 0 -222 122 -188 366s131 366 291 366c91 0 150 -41 179 -124zM160 354c-29 -200 13 -300 126 -300c111 0 181 100 210 300c27 200 -15 300 -126 300c-113 0 -183 -100 -210 -300z" />
    <glyph glyph-name="one" unicode="1" 
d="M448 708l-100 -708h-72l87 618l-143 -112l-37 54l201 148h64z" />
    <glyph glyph-name="two" unicode="2" 
d="M507 66l-9 -66h-450l12 83l322 287c69 61 106 115 112 160c5 38 -4 68 -27 91c-22 22 -53 33 -92 33c-77 0 -130 -37 -157 -111l-75 8c17 52 47 93 90 124c43 30 91 45 146 45c61 0 108 -15 143 -46c38 -34 53 -80 45 -138c-10 -72 -69 -155 -178 -249l-254 -221h372z
" />
    <glyph glyph-name="three" unicode="3" 
d="M252 338l9 66h37c103 0 161 43 173 130c5 38 -2 68 -22 89s-51 31 -92 31c-60 0 -109 -26 -146 -78l-59 32c52 75 123 112 212 112c58 0 104 -16 138 -48c35 -34 49 -79 41 -136c-5 -37 -21 -71 -49 -102c-27 -29 -58 -49 -93 -60l2 -2c39 -9 69 -30 90 -63
c20 -33 27 -72 21 -117c-9 -63 -38 -114 -88 -151c-47 -35 -103 -53 -167 -53c-111 0 -179 48 -203 143l80 23c14 -67 60 -100 139 -100c41 0 78 13 110 39c33 27 52 60 57 101c7 50 -6 87 -39 112c-28 21 -68 32 -120 32h-31z" />
    <glyph glyph-name="four" unicode="4" 
d="M516 708l-67 -474h102l-9 -66h-102l-24 -168h-72l24 168h-306l11 82l351 458h92zM377 234l56 402h-2l-300 -402h246z" />
    <glyph glyph-name="five" unicode="5" 
d="M565 708l-10 -66h-290l-34 -213c30 11 63 17 98 17c66 0 117 -22 153 -65c35 -43 48 -97 39 -162c-9 -68 -40 -124 -92 -167c-51 -43 -110 -64 -179 -64c-97 0 -159 42 -186 126l75 31c22 -61 64 -91 127 -91c45 0 85 15 120 46s55 68 62 112c7 50 -4 91 -32 122
c-29 31 -68 46 -119 46c-49 0 -100 -13 -152 -39l59 367h361z" />
    <glyph glyph-name="six" unicode="6" 
d="M485 708l-236 -304l2 -2c25 16 59 24 101 24c62 0 110 -21 145 -62s49 -94 40 -157c-9 -65 -38 -117 -87 -158s-107 -61 -174 -61s-119 20 -156 61s-52 93 -43 158c9 60 38 123 88 190l235 311h85zM178 97c25 -29 61 -43 108 -43s87 14 120 43c33 28 52 65 59 110
s-3 82 -28 110c-25 29 -61 43 -108 43s-87 -14 -120 -43c-33 -28 -53 -65 -60 -110s3 -81 29 -110z" />
    <glyph glyph-name="seven" unicode="7" 
d="M574 708l-10 -66l-375 -642h-81l381 642h-345l10 66h420z" />
    <glyph glyph-name="eight" unicode="8" 
d="M239 375v2c-29 11 -52 31 -68 60c-15 29 -21 62 -16 98c8 55 34 100 78 135c43 33 91 50 146 50s99 -17 132 -50c35 -35 48 -80 40 -135c-5 -36 -19 -69 -43 -98s-52 -49 -85 -60v-2c38 -11 67 -33 86 -66c20 -34 27 -74 20 -120c-9 -60 -38 -109 -89 -147
c-48 -36 -103 -54 -164 -54c-62 0 -112 18 -149 54c-39 39 -55 88 -46 147c7 46 24 86 53 120c29 33 64 55 105 66zM455 619c-21 23 -49 35 -85 35s-67 -12 -94 -35c-28 -24 -45 -54 -50 -90s3 -66 24 -90c21 -23 49 -35 85 -35s67 12 94 35c28 24 44 54 49 90s-2 66 -23 90
zM431 303c-25 27 -60 41 -105 41s-84 -14 -116 -41c-31 -27 -50 -62 -56 -104s3 -77 27 -104c25 -27 60 -41 105 -41s84 14 116 41c31 27 50 62 56 104s-3 77 -27 104z" />
    <glyph glyph-name="nine" unicode="9" 
d="M171 0l236 304l-2 2c-25 -16 -58 -24 -101 -24c-62 0 -110 21 -145 62c-36 41 -50 94 -41 157c9 65 39 117 88 158s106 61 173 61s119 -20 157 -61c37 -41 51 -93 42 -158c-9 -61 -38 -125 -87 -190l-235 -311h-85zM478 611c-25 29 -61 43 -108 43s-87 -14 -120 -43
c-33 -28 -53 -65 -60 -110c-6 -45 4 -82 29 -110c25 -29 61 -43 108 -43s87 14 120 43s53 65 59 110c7 45 -3 82 -28 110z" />
    <glyph glyph-name="colon" unicode=":" horiz-adv-x="278" 
d="M232 382c-13 -11 -27 -17 -42 -17s-27 6 -36 17c-9 10 -12 22 -10 37s9 27 20 38c12 11 26 16 41 16s28 -5 37 -16s12 -23 10 -38s-9 -27 -20 -37zM180 11c-13 -11 -27 -17 -42 -17s-27 6 -36 17c-9 10 -12 22 -10 37s9 27 20 38c12 11 26 16 41 16s28 -5 37 -16
s12 -23 10 -38s-9 -27 -20 -37z" />
    <glyph glyph-name="semicolon" unicode=";" horiz-adv-x="278" 
d="M226 95l-114 -235h-67l100 235h81zM241 382c-13 -11 -27 -17 -42 -17s-27 6 -36 17c-9 10 -12 22 -10 37s9 27 20 38c12 11 26 16 41 16s28 -5 37 -16s12 -23 10 -38s-9 -27 -20 -37z" />
    <glyph glyph-name="less" unicode="&#x3c;" horiz-adv-x="666" 
d="M667 564l-8 -60l-457 -201l400 -201l-8 -60l-477 238l7 46z" />
    <glyph glyph-name="equal" unicode="=" horiz-adv-x="666" 
d="M135 408h510l-8 -60h-510zM114 258h510l-8 -60h-510z" />
    <glyph glyph-name="greater" unicode="&#x3e;" horiz-adv-x="666" 
d="M149 504l8 60l477 -238l-7 -46l-543 -238l8 60l458 201z" />
    <glyph glyph-name="question" unicode="?" horiz-adv-x="482" 
d="M310 243l-7 -51h-72l12 83c5 36 39 79 100 129c60 50 93 95 99 135c5 34 -2 62 -21 83s-45 32 -80 32c-71 0 -119 -36 -142 -109l-74 9c15 51 43 92 85 122c40 29 86 44 139 44c55 0 98 -15 129 -45c32 -32 44 -75 37 -130c-8 -59 -43 -112 -104 -160s-94 -95 -101 -142z
M287 11c-13 -11 -27 -17 -42 -17s-27 6 -36 17c-9 10 -12 22 -10 37s9 27 20 38c12 11 26 16 41 16s28 -5 37 -16s12 -23 10 -38s-9 -27 -20 -37z" />
    <glyph glyph-name="at" unicode="@" horiz-adv-x="800" 
d="M546 480c-13 19 -31 29 -52 29c-47 -2 -90 -27 -131 -75c-39 -44 -61 -91 -68 -141c-4 -28 2 -51 17 -69s37 -27 64 -27c41 0 81 25 121 75c36 46 57 92 63 137c4 28 -1 52 -14 71zM606 487l31 63h56l-123 -282c-8 -17 -14 -34 -17 -51c-1 -13 6 -20 21 -20
c35 0 72 22 111 67c39 47 63 97 70 151c11 73 -10 134 -61 185c-49 48 -110 72 -183 72c-85 0 -164 -32 -235 -97c-71 -63 -112 -137 -123 -221c-12 -84 8 -158 61 -221c53 -65 123 -97 208 -97c111 0 201 40 270 121h63c-84 -117 -198 -175 -341 -175
c-103 0 -185 36 -248 108s-88 160 -73 264s64 192 147 264s176 108 279 108c94 0 170 -29 227 -86c59 -59 82 -132 70 -221c-11 -80 -48 -149 -110 -206c-55 -51 -109 -76 -160 -76c-41 0 -62 20 -61 59h-2c-44 -39 -89 -59 -134 -59c-43 0 -75 14 -97 42
c-22 27 -30 63 -24 108c11 73 41 137 92 193c54 59 115 89 182 89c57 0 91 -27 102 -82h2z" />
    <glyph glyph-name="A" unicode="A" horiz-adv-x="686" 
d="M188 186l-104 -186h-84l408 708h70l208 -708h-84l-52 186h-362zM431 624l-207 -372h307z" />
    <glyph glyph-name="B" unicode="B" horiz-adv-x="630" 
d="M96 0l100 708h211c66 0 117 -13 152 -39c42 -31 59 -77 50 -139c-11 -84 -59 -136 -146 -155l-1 -2c49 -4 86 -22 110 -53s33 -73 26 -124c-7 -42 -27 -80 -60 -115c-53 -54 -128 -81 -226 -81h-216zM258 642l-34 -244h145c39 0 73 9 102 28c34 22 54 54 59 96
c3 27 -1 50 -14 71c-21 33 -61 49 -120 49h-138zM216 338l-39 -272h138c55 0 101 11 137 32c39 23 62 57 68 102c13 92 -40 138 -157 138h-147z" />
    <glyph glyph-name="C" unicode="C" horiz-adv-x="704" 
d="M642 154l53 -42c-69 -87 -162 -130 -281 -130c-106 0 -189 35 -248 105c-60 71 -83 160 -68 267s62 196 143 267c79 70 172 105 278 105c105 0 181 -37 229 -112l-69 -47c-11 24 -33 45 -65 64c-33 19 -68 29 -104 29c-88 0 -164 -31 -227 -92
c-59 -58 -95 -129 -107 -214s4 -156 47 -214c46 -61 113 -92 201 -92c89 0 162 35 218 106z" />
    <glyph glyph-name="D" unicode="D" horiz-adv-x="741" 
d="M86 0l100 708h235c97 0 177 -29 240 -88c70 -67 97 -155 82 -266s-68 -199 -157 -265c-79 -59 -168 -89 -265 -89h-235zM248 642l-81 -576h140c102 0 186 30 252 89c59 53 95 120 106 199s-6 146 -50 199c-49 59 -125 89 -227 89h-140z" />
    <glyph glyph-name="E" unicode="E" horiz-adv-x="593" 
d="M215 335l-38 -269h379l-9 -66h-451l100 708h439l-10 -66h-367l-34 -241h343l-9 -66h-343z" />
    <glyph glyph-name="F" unicode="F" 
d="M215 335l-47 -335h-72l100 708h427l-10 -66h-355l-34 -241h330l-9 -66h-330z" />
    <glyph glyph-name="G" unicode="G" horiz-adv-x="778" 
d="M762 631l-62 -53c-44 55 -107 82 -190 82c-88 0 -164 -31 -227 -92c-59 -58 -95 -129 -107 -214s4 -156 47 -214c46 -61 113 -92 201 -92c72 0 140 17 203 50l33 237h-169l9 66h241l-48 -347c-88 -48 -181 -72 -279 -72c-106 0 -189 35 -248 105c-60 71 -83 160 -68 267
s62 196 143 267c79 70 172 105 278 105c108 0 189 -32 243 -95z" />
    <glyph glyph-name="H" unicode="H" horiz-adv-x="722" 
d="M96 0l100 708h72l-44 -307h386l44 307h72l-100 -708h-72l47 335h-386l-47 -335h-72z" />
    <glyph glyph-name="I" unicode="I" horiz-adv-x="264" 
d="M268 708l-100 -708h-72l100 708h72z" />
    <glyph glyph-name="J" unicode="J" horiz-adv-x="482" 
d="M32 130l75 15c5 -65 38 -97 99 -97c83 0 133 59 149 176l69 484h72l-73 -514c-8 -57 -29 -104 -62 -142c-42 -47 -98 -70 -167 -70c-49 0 -88 13 -116 38c-29 25 -45 62 -46 110z" />
    <glyph glyph-name="K" unicode="K" horiz-adv-x="630" 
d="M268 708l-44 -307h10l377 307h103l-403 -321l323 -387h-106l-297 365h-12l-51 -365h-72l100 708h72z" />
    <glyph glyph-name="L" unicode="L" horiz-adv-x="500" 
d="M268 708l-91 -642h330l-9 -66h-402l100 708h72z" />
    <glyph glyph-name="M" unicode="M" horiz-adv-x="890" 
d="M306 708l158 -576l320 576h110l-100 -708h-72l86 612h-2l-342 -612h-38l-170 612h-2l-86 -612h-72l100 708h110z" />
    <glyph glyph-name="N" unicode="N" horiz-adv-x="778" 
d="M286 708l337 -600h2l85 600h72l-100 -708h-90l-337 606h-2l-85 -606h-72l100 708h90z" />
    <glyph glyph-name="O" unicode="O" horiz-adv-x="834" 
d="M693 87c-80 -70 -173 -105 -279 -105s-189 35 -248 105c-60 71 -83 160 -68 267s62 196 143 267c79 70 172 105 278 105s189 -35 249 -105c60 -71 83 -160 68 -267s-62 -196 -143 -267zM711 568c-46 61 -113 92 -201 92s-164 -31 -227 -92c-59 -58 -95 -129 -107 -214
s4 -156 47 -214c46 -61 113 -92 201 -92s164 31 227 92c59 58 95 129 107 214s-4 156 -47 214z" />
    <glyph glyph-name="P" unicode="P" horiz-adv-x="574" 
d="M96 0l100 708h206c73 0 128 -16 164 -47c37 -33 51 -80 42 -142c-18 -127 -105 -190 -260 -190h-134l-46 -329h-72zM258 642l-34 -247h116c115 0 178 41 190 124c12 82 -40 123 -156 123h-116z" />
    <glyph glyph-name="Q" unicode="Q" horiz-adv-x="834" 
d="M222 156c44 -60 108 -90 193 -90c84 0 157 30 218 90c57 56 92 125 103 207s-4 151 -45 207c-44 60 -108 90 -192 90c-85 0 -157 -30 -218 -90c-58 -56 -93 -125 -104 -207s4 -151 45 -207zM820 66l-9 -66h-405c-103 0 -183 34 -241 103c-59 69 -81 155 -66 260
s61 191 139 260c77 69 167 103 270 103s183 -34 241 -103s80 -155 65 -260c-19 -138 -88 -236 -207 -295l-1 -2h214z" />
    <glyph glyph-name="R" unicode="R" horiz-adv-x="593" 
d="M214 329l-46 -329h-72l100 708h218c73 0 128 -16 164 -47c37 -33 51 -80 42 -142c-7 -50 -29 -91 -64 -124c-37 -35 -85 -54 -143 -59l157 -336h-88l-148 329h-120zM258 642l-34 -247h128c115 0 178 41 190 124c12 82 -40 123 -156 123h-128z" />
    <glyph glyph-name="S" unicode="S" 
d="M584 640l-70 -49c-24 46 -66 69 -127 69c-41 0 -77 -10 -108 -31c-35 -23 -56 -56 -61 -97c-6 -42 8 -75 43 -99c16 -11 55 -28 117 -49c55 -20 94 -41 116 -62c33 -33 46 -78 38 -135c-9 -61 -41 -112 -96 -151c-51 -36 -106 -54 -166 -54c-97 0 -167 35 -208 105l72 47
c25 -57 75 -86 149 -86c39 0 74 11 107 33c37 25 58 57 63 96c6 44 -8 78 -42 102c-17 12 -57 29 -118 50c-56 19 -95 39 -117 60c-33 33 -45 78 -37 136c9 65 40 115 93 152c47 33 101 49 164 49c83 0 146 -29 188 -86z" />
    <glyph glyph-name="T" unicode="T" horiz-adv-x="574" 
d="M413 642l-90 -642h-72l90 642h-237l10 66h546l-10 -66h-237z" />
    <glyph glyph-name="U" unicode="U" horiz-adv-x="686" 
d="M702 708l-63 -444c-10 -75 -35 -136 -76 -185c-53 -65 -128 -97 -223 -97s-160 32 -195 97c-26 48 -34 110 -24 185l63 444h72l-62 -436c-12 -89 4 -151 47 -188c28 -24 64 -36 109 -36s84 12 119 36c54 37 87 99 99 188l62 436h72z" />
    <glyph glyph-name="V" unicode="V" horiz-adv-x="611" 
d="M177 708l140 -600h2l317 600h78l-376 -708h-72l-169 708h80z" />
    <glyph glyph-name="W" unicode="W" horiz-adv-x="944" 
d="M180 708l84 -606h2l264 606h86l92 -606h2l254 606h80l-309 -708h-84l-93 606h-2l-263 -606h-84l-109 708h80z" />
    <glyph glyph-name="X" unicode="X" horiz-adv-x="630" 
d="M223 708l153 -283l238 283h90l-288 -336l208 -372h-95l-171 321l-262 -321h-90l311 372l-191 336h97z" />
    <glyph glyph-name="Y" unicode="Y" horiz-adv-x="574" 
d="M366 305l-43 -305h-72l43 305l-208 403h90l164 -334l258 334h90z" />
    <glyph glyph-name="Z" unicode="Z" 
d="M627 708l-9 -60l-495 -582h419l-9 -66h-510l8 60l496 582h-408l10 66h498z" />
    <glyph glyph-name="bracketleft" unicode="[" horiz-adv-x="260" 
d="M330 732l-8 -54h-96l-109 -780h96l-8 -54h-162l125 888h162z" />
    <glyph glyph-name="backslash" unicode="\" horiz-adv-x="370" 
d="M304 -18l-200 724l60 20l201 -725z" />
    <glyph glyph-name="bracketright" unicode="]" horiz-adv-x="260" 
d="M11 -156l8 54h96l109 780h-96l8 54h162l-125 -888h-162z" />
    <glyph glyph-name="asciicircum" unicode="^" horiz-adv-x="666" 
d="M119 275l290 433h48l168 -433h-62l-141 361l-241 -361h-62z" />
    <glyph glyph-name="underscore" unicode="_" horiz-adv-x="500" 
d="M-18 -125l7 50h500l-7 -50h-500z" />
    <glyph glyph-name="grave" unicode="`" horiz-adv-x="240" 
d="M201 564l-111 144h91l79 -144h-59z" />
    <glyph glyph-name="A001" unicode="a" horiz-adv-x="519" 
d="M379 287h33l2 12c11 81 -24 121 -103 121c-55 0 -105 -18 -151 -55l-33 47c51 45 120 68 207 68c49 0 88 -13 115 -40c29 -30 40 -72 33 -126l-29 -209c-5 -33 -7 -68 -7 -105h-64c-1 23 0 49 5 76h-2c-45 -59 -104 -88 -178 -88c-45 0 -80 11 -106 34
c-29 25 -41 60 -35 103c15 108 119 162 313 162zM405 233h-34c-145 0 -223 -33 -232 -99c-4 -29 5 -51 26 -66c18 -13 42 -20 72 -20c46 0 84 15 113 44c27 27 43 63 50 107z" />
    <glyph glyph-name="B002" unicode="b" horiz-adv-x="611" 
d="M72 0l106 756h66l-51 -366h2c49 60 114 90 194 90c73 0 129 -23 170 -70c40 -47 55 -105 45 -176s-42 -129 -95 -176s-116 -70 -189 -70c-80 0 -136 30 -169 90h-2l-11 -78h-66zM503 366c-28 36 -69 54 -122 54c-54 0 -101 -18 -141 -54c-41 -35 -65 -79 -72 -132
s4 -97 34 -132c31 -36 73 -54 127 -54c53 0 99 18 137 54c36 34 58 78 66 132c7 53 -2 97 -29 132z" />
    <glyph glyph-name="C003" unicode="c" horiz-adv-x="482" 
d="M523 399l-60 -41c-21 41 -57 62 -108 62c-53 1 -99 -17 -136 -52c-36 -35 -58 -79 -66 -134s1 -99 28 -134s68 -53 122 -52c52 0 94 21 125 62l49 -41c-53 -53 -114 -80 -183 -81c-75 -1 -132 22 -171 69c-38 46 -52 105 -42 177s41 131 92 177c52 47 115 70 190 69
c69 -1 123 -28 160 -81z" />
    <glyph glyph-name="D004" unicode="d" horiz-adv-x="611" 
d="M645 756l-106 -756h-66l11 78h-2c-49 -60 -114 -90 -195 -90c-73 0 -129 23 -169 70s-55 105 -45 176s41 129 94 176s116 70 189 70c81 0 137 -30 170 -90h2l51 366h66zM174 102c28 -36 69 -54 122 -54c54 0 101 18 141 54c41 35 65 79 72 132s-4 97 -34 132
c-31 36 -73 54 -127 54c-53 0 -99 -18 -137 -54c-36 -34 -58 -78 -66 -132c-7 -53 2 -97 29 -132z" />
    <glyph glyph-name="E005" unicode="e" 
d="M538 216h-390c-3 -47 10 -87 38 -119c28 -33 65 -49 111 -49c66 0 120 27 161 81l45 -42c-61 -66 -133 -99 -215 -99c-69 0 -124 23 -163 70s-54 105 -44 176c10 70 41 129 93 176c51 47 110 70 177 70c69 -1 121 -24 156 -69c33 -44 45 -99 36 -165zM158 270h316
c6 45 -2 81 -25 108c-24 28 -59 42 -106 42c-43 0 -83 -15 -121 -46c-37 -31 -59 -65 -64 -104z" />
    <glyph glyph-name="F006" unicode="f" horiz-adv-x="296" 
d="M356 468l-9 -60h-111l-57 -408h-66l57 408h-99l9 60h99l18 128c16 115 76 172 181 172c17 0 35 -2 56 -7l-20 -60c-19 5 -35 7 -50 7c-57 0 -91 -40 -102 -120l-17 -120h111z" />
    <glyph glyph-name="G007" unicode="g" horiz-adv-x="611" 
d="M38 -146l57 52c34 -57 90 -86 167 -86c121 0 190 61 208 184l11 84h-2c-47 -59 -109 -88 -187 -88c-68 0 -122 23 -163 68s-57 102 -48 170c10 69 41 126 92 172c51 47 111 70 180 70c77 0 133 -30 169 -90h2l11 78h66l-65 -464c-24 -163 -119 -244 -286 -244
c-91 0 -162 31 -212 94zM186 113c29 -35 67 -53 116 -53c50 0 94 17 133 50c41 34 65 77 70 130c7 51 -2 93 -29 127c-29 35 -70 53 -123 53c-49 0 -92 -18 -131 -53c-38 -35 -61 -78 -68 -127s3 -92 32 -127z" />
    <glyph glyph-name="H008" unicode="h" 
d="M72 0l106 756h66l-51 -363h2c41 58 97 87 169 87c117 0 168 -61 151 -183l-42 -297h-66l36 259c8 55 5 95 -10 120c-15 27 -47 41 -94 41c-26 0 -53 -9 -80 -26c-48 -31 -77 -82 -87 -154l-34 -240h-66z" />
    <glyph glyph-name="I009" unicode="i" horiz-adv-x="240" 
d="M219 468l-66 -468h-66l66 468h66zM239 614c-11 -9 -22 -14 -35 -14s-23 5 -31 14c-9 9 -12 21 -10 34s9 25 20 35c11 9 22 13 35 13s23 -4 31 -13c9 -10 12 -22 10 -35s-9 -25 -20 -34z" />
    <glyph glyph-name="J010" unicode="j" horiz-adv-x="240" 
d="M-63 -230l17 57l3 -1c13 -4 25 -6 34 -6c47 0 75 33 84 98l78 550h66l-79 -561c-15 -98 -66 -147 -153 -147c-18 0 -35 3 -50 10zM239 614c-11 -9 -22 -14 -35 -14s-23 5 -31 14c-9 9 -12 21 -10 34s9 25 20 35c11 9 22 13 35 13s23 -4 31 -13c9 -10 12 -22 10 -35
s-9 -25 -20 -34z" />
    <glyph glyph-name="K011" unicode="k" horiz-adv-x="482" 
d="M244 756l-70 -499l251 211h99l-263 -214l222 -254h-102l-208 246l-35 -246h-66l106 756h66z" />
    <glyph glyph-name="L012" unicode="l" horiz-adv-x="240" 
d="M259 756l-106 -756h-66l106 756h66z" />
    <glyph glyph-name="M013" unicode="m" horiz-adv-x="852" 
d="M72 0l51 364c2 13 5 47 10 104h71l-10 -71h2c40 55 94 83 162 83c75 0 120 -32 136 -97c38 65 94 97 167 97c117 0 168 -61 151 -183l-42 -297h-66l38 273c7 50 4 86 -9 109c-15 25 -44 38 -88 38c-45 0 -82 -18 -110 -53c-24 -30 -39 -69 -46 -118l-35 -249h-66l38 273
c7 50 4 86 -9 109c-15 25 -44 38 -88 38c-25 0 -50 -9 -75 -26c-45 -31 -72 -82 -82 -154l-34 -240h-66z" />
    <glyph glyph-name="N014" unicode="n" 
d="M133 468h68c-1 -22 -3 -47 -8 -75h2c41 58 97 87 169 87c117 0 168 -61 151 -183l-42 -297h-66l36 259c8 55 5 95 -10 120c-15 27 -47 41 -94 41c-26 0 -53 -9 -80 -26c-48 -31 -77 -82 -87 -154l-34 -240h-66l51 365c1 9 5 43 10 103z" />
    <glyph glyph-name="O015" unicode="o" horiz-adv-x="593" 
d="M483 58c-53 -47 -116 -70 -189 -70c-72 0 -128 23 -168 70s-55 105 -45 176s41 129 94 176s116 70 188 70c73 0 129 -23 170 -70c40 -47 55 -105 45 -176s-42 -129 -95 -176zM477 366c-28 36 -69 54 -122 54s-98 -18 -136 -54c-37 -35 -59 -79 -66 -132s2 -97 29 -132
c27 -36 68 -54 121 -54s99 18 137 54c36 34 58 78 66 132c7 53 -2 97 -29 132z" />
    <glyph glyph-name="P016" unicode="p" horiz-adv-x="611" 
d="M32 -288l106 756h66l-11 -78h2c49 60 114 90 194 90c73 0 129 -23 170 -70c40 -47 55 -105 45 -176s-42 -129 -95 -176s-116 -70 -189 -70c-80 0 -136 30 -169 90h-2l-51 -366h-66zM503 366c-28 36 -69 54 -122 54c-54 0 -101 -18 -141 -54c-41 -35 -65 -79 -72 -132
s4 -97 34 -132c31 -36 73 -54 127 -54c53 0 99 18 137 54c36 34 58 78 66 132c7 53 -2 97 -29 132z" />
    <glyph glyph-name="Q017" unicode="q" horiz-adv-x="611" 
d="M605 468l-106 -756h-66l51 366h-2c-49 -60 -114 -90 -195 -90c-73 0 -129 23 -169 70s-55 105 -45 176s41 129 94 176s116 70 189 70c81 0 137 -30 170 -90h2l11 78h66zM174 102c28 -36 69 -54 122 -54c54 0 101 18 141 54c41 35 65 79 72 132s-4 97 -34 132
c-31 36 -73 54 -127 54c-53 0 -99 -18 -137 -54c-36 -34 -58 -78 -66 -132c-7 -53 2 -97 29 -132z" />
    <glyph glyph-name="R018" unicode="r" horiz-adv-x="332" 
d="M79 0l45 322l17 146h65l-12 -87h2c34 66 88 99 163 99c19 0 35 -2 49 -6l-23 -65c-8 3 -20 5 -37 5c-46 0 -85 -17 -117 -51c-27 -29 -44 -62 -49 -99l-37 -264h-66z" />
    <glyph glyph-name="S019" unicode="s" horiz-adv-x="426" 
d="M435 396l-65 -39c-15 42 -46 63 -92 63c-26 0 -49 -5 -68 -16c-23 -13 -36 -31 -39 -54c-3 -21 3 -37 17 -48c11 -10 33 -19 65 -26l65 -16c32 -8 57 -23 75 -45c19 -23 26 -51 21 -83c-7 -48 -32 -85 -73 -110c-36 -23 -79 -34 -130 -34c-79 0 -135 30 -167 91l63 39
c23 -47 61 -70 113 -70c30 0 56 6 78 19c25 14 39 34 43 59c5 36 -22 61 -79 75l-62 15c-77 20 -111 61 -102 123c6 46 29 82 68 107c35 23 76 34 124 34c77 0 125 -28 145 -84z" />
    <glyph glyph-name="T020" unicode="t" horiz-adv-x="332" 
d="M380 468l-9 -60h-135l-38 -276c-5 -33 -2 -55 9 -68c9 -11 24 -16 47 -16c24 0 47 6 70 18l-5 -61c-27 -11 -57 -17 -92 -17c-77 0 -110 42 -98 125l41 295h-99l9 60h99l18 132h66l-18 -132h135z" />
    <glyph glyph-name="U021" unicode="u" 
d="M478 0h-68c1 22 3 47 8 75h-2c-42 -58 -99 -87 -170 -87c-117 0 -167 61 -150 183l42 297h66l-37 -259c-7 -55 -4 -94 11 -119c15 -28 47 -42 94 -42c26 0 53 9 80 26c48 31 77 82 87 154l34 240h66l-52 -365z" />
    <glyph glyph-name="V022" unicode="v" horiz-adv-x="482" 
d="M534 468l-256 -468h-74l-124 468h79l93 -394h2l205 394h75z" />
    <glyph glyph-name="W023" unicode="w" horiz-adv-x="722" 
d="M80 468h78l54 -380h2l179 380h68l71 -380h2l162 380h78l-214 -468h-74l-70 384h-2l-178 -384h-74z" />
    <glyph glyph-name="X024" unicode="x" horiz-adv-x="482" 
d="M0 0l228 250l-139 218h90l105 -175l149 175h82l-194 -218l161 -250h-90l-128 205l-180 -205h-84z" />
    <glyph glyph-name="Y025" unicode="y" horiz-adv-x="482" 
d="M165 468l92 -387l198 387h80l-317 -590c-41 -79 -96 -118 -164 -118c-25 0 -45 2 -60 7l16 64c13 -7 29 -11 49 -11c39 0 73 28 102 84l46 90l-125 474h83z" />
    <glyph glyph-name="Z026" unicode="z" horiz-adv-x="426" 
d="M459 468l-7 -48l-325 -360h284l-8 -60h-380l7 48l324 360h-260l9 60h356z" />
    <glyph glyph-name="braceleft" unicode="{" horiz-adv-x="260" 
d="M48 258l9 60c24 0 46 10 65 29c21 21 34 49 39 82l25 178c13 83 55 125 126 125h64l-9 -60h-56c-33 0 -54 -28 -61 -83l-24 -172c-6 -42 -23 -75 -50 -99c-19 -17 -38 -26 -57 -29l-1 -2c19 -3 35 -12 49 -29c21 -24 28 -57 22 -99l-24 -172c-3 -26 -4 -45 -1 -56
c5 -18 18 -27 40 -27h56l-9 -60h-64c-73 0 -103 42 -90 125l25 178c4 33 -2 61 -17 82c-14 19 -33 29 -57 29z" />
    <glyph glyph-name="bar" unicode="|" horiz-adv-x="361" 
d="M202 833h58v-1110h-58v1110z" />
    <glyph glyph-name="braceright" unicode="}" horiz-adv-x="260" 
d="M293 318l-9 -60c-24 0 -46 -10 -65 -29c-22 -21 -35 -49 -39 -82l-25 -178c-13 -83 -55 -125 -126 -125h-64l9 60h56c33 0 54 28 61 83l24 172c6 42 23 75 50 99c19 17 38 26 57 29l1 2c-19 3 -35 12 -49 29c-21 24 -28 57 -22 99l24 172c3 26 4 45 1 56
c-5 18 -18 27 -40 27h-56l9 60h64c73 0 103 -42 90 -125l-25 -178c-5 -33 1 -61 16 -82c15 -19 34 -29 58 -29z" />
    <glyph glyph-name="asciitilde" unicode="~" horiz-adv-x="666" 
d="M587 368l36 -40c-53 -62 -103 -93 -149 -93c-35 0 -68 10 -100 29c-52 31 -85 47 -100 47c-34 0 -71 -24 -110 -73l-36 40c53 62 103 93 149 93c35 0 68 -10 100 -29c54 -31 87 -47 100 -47c34 0 71 24 110 73z" />
    <glyph glyph-name="nbspace" unicode="&#xa0;" horiz-adv-x="278" 
 />
    <glyph glyph-name="exclamdown" unicode="&#xa1;" horiz-adv-x="278" 
d="M71 -228l72 516h72l-72 -516h-72zM166 470c12 11 26 16 41 16s28 -5 37 -16s12 -23 10 -38s-9 -27 -20 -37c-13 -11 -27 -17 -42 -17s-27 6 -36 17c-9 10 -12 22 -10 37s9 27 20 38z" />
    <glyph glyph-name="cent" unicode="&#xa2;" 
d="M295 51l52 366c-43 -7 -80 -28 -110 -62c-29 -33 -47 -74 -54 -121c-7 -48 0 -88 20 -121c20 -34 51 -55 92 -62zM395 419l-52 -370c49 3 87 24 115 61l49 -41c-49 -50 -107 -77 -173 -80l-8 -61h-48l9 63c-63 7 -111 33 -143 78c-31 45 -42 100 -33 165s36 120 79 165
c45 45 100 71 165 78l9 63h48l-9 -61c65 -3 115 -30 150 -80l-60 -41c-17 37 -50 58 -98 61z" />
    <glyph glyph-name="sterling" unicode="&#xa3;" 
d="M482 395l-9 -60h-168l-39 -275h253l-8 -60h-427l8 60h102l39 275h-96l9 60h96l12 87c23 159 104 238 245 238c65 0 114 -20 147 -60l-54 -51c-26 34 -61 51 -104 51c-93 0 -147 -61 -163 -184l-11 -81h168z" />
    <glyph glyph-name="currency" unicode="&#xa4;" 
d="M604 559l-61 -53c30 -46 41 -97 32 -152c-7 -56 -32 -107 -75 -152l46 -53l-50 -44l-46 53c-51 -35 -103 -53 -157 -53c-55 0 -102 18 -143 53l-60 -53l-38 44l60 53c-29 47 -40 97 -31 152c7 56 31 107 74 152l-45 53l50 44l45 -53c51 35 103 53 158 53
c54 0 101 -18 142 -53l61 53zM181 221c30 -37 70 -56 121 -56c50 0 95 19 135 56c41 37 65 81 72 133s-4 97 -34 134s-70 55 -120 55c-51 0 -96 -18 -137 -55c-40 -37 -64 -82 -71 -134s4 -96 34 -133z" />
    <glyph glyph-name="yen" unicode="&#xa5;" 
d="M110 223h163l11 77l-5 12h-156l7 54h124l-156 342h85l147 -340l243 340h85l-253 -342h123l-7 -54h-156l-9 -12l-11 -77h163l-7 -54h-163l-24 -169h-72l24 169h-163z" />
    <glyph glyph-name="brokenbar" unicode="&#xa6;" horiz-adv-x="360" 
d="M202 750h57v-389h-57v389zM202 194h57v-387h-57v387z" />
    <glyph glyph-name="section" unicode="&#xa7;" 
d="M541 626l-63 -30c-17 43 -50 64 -99 64c-40 0 -71 -12 -94 -37c-15 -17 -24 -34 -27 -53c-5 -36 17 -68 68 -95l102 -56c60 -33 86 -80 77 -139c-7 -56 -42 -100 -105 -131c41 -32 58 -74 51 -125c-7 -53 -32 -94 -75 -123c-38 -27 -83 -40 -136 -40
c-100 0 -160 38 -181 115l70 32c12 -58 52 -87 120 -87c77 0 121 34 130 102c5 35 -14 65 -57 88l-128 67c-56 29 -80 73 -72 130c9 59 50 104 123 134c-46 35 -66 75 -60 120c7 49 30 89 69 118c36 27 79 40 128 40c43 0 79 -9 108 -27c27 -17 44 -40 51 -67zM299 404
l-18 -7c-52 -21 -81 -49 -86 -84c-3 -25 6 -46 27 -64c9 -7 30 -19 63 -36l61 -32c51 19 80 49 86 89c6 43 -21 79 -80 108z" />
    <glyph glyph-name="dieresis" unicode="&#xa8;" horiz-adv-x="240" 
d="M83 682c11 11 24 16 39 16s26 -5 35 -16c8 -10 11 -22 9 -35s-8 -25 -19 -35c-11 -11 -24 -16 -39 -16s-26 5 -35 16c-8 10 -11 22 -9 35s8 25 19 35zM275 682c11 11 24 16 39 16s26 -5 35 -16c8 -10 11 -22 9 -35s-8 -25 -19 -35c-11 -11 -24 -16 -39 -16s-26 5 -35 16
c-8 10 -11 22 -9 35s8 25 19 35z" />
    <glyph glyph-name="copyright" unicode="&#xa9;" horiz-adv-x="800" 
d="M585 282h57c-18 -48 -46 -86 -83 -114c-38 -28 -80 -42 -126 -42c-67 0 -118 22 -153 65s-47 97 -38 163c9 67 36 122 81 163c47 43 104 64 171 64c49 0 89 -13 119 -38c32 -27 48 -65 48 -114h-56c-1 29 -13 52 -34 70c-22 19 -50 28 -84 28c-49 0 -91 -17 -126 -50
c-33 -31 -52 -72 -59 -121c-7 -47 2 -88 27 -122c27 -36 64 -54 111 -54c34 0 64 10 91 30c26 19 44 43 54 72zM223 619c83 71 176 107 279 107s186 -35 249 -106c64 -72 89 -160 74 -264c-15 -106 -64 -195 -149 -267c-83 -71 -176 -107 -279 -107s-186 35 -249 106
c-64 72 -89 160 -74 264c15 106 65 195 149 267zM195 127c52 -61 122 -91 210 -91s167 31 236 92c70 61 111 137 124 228c13 89 -7 164 -60 225s-123 91 -211 91s-167 -30 -236 -91c-70 -62 -111 -138 -124 -229c-13 -89 8 -164 61 -225z" />
    <glyph glyph-name="ordfeminine" unicode="&#xaa;" horiz-adv-x="337" 
d="M126 445c-20 15 -28 35 -24 62c10 67 73 100 189 100h22l1 8c6 38 -13 57 -56 57c-33 0 -64 -10 -93 -30l-27 37c33 27 75 41 125 41c45 0 77 -11 96 -33c15 -16 21 -35 18 -57l-20 -137c-1 -3 -2 -24 -4 -63h-54l2 36h-1c-23 -28 -57 -42 -104 -42c-29 0 -53 7 -70 21z
M307 559h-13c-83 0 -126 -16 -131 -49c-4 -25 14 -38 53 -38c53 0 83 29 91 87z" />
    <glyph glyph-name="guillemotleft" unicode="&#xab;" horiz-adv-x="482" 
d="M297 416l-139 -176l90 -176l-52 -33l-110 209l169 209zM479 416l-139 -176l90 -176l-52 -33l-110 209l169 209z" />
    <glyph glyph-name="logicalnot" unicode="&#xac;" horiz-adv-x="666" 
d="M645 408l-39 -278h-60l31 218h-450l8 60h510z" />
    <glyph glyph-name="softhyphen" unicode="&#xad;" horiz-adv-x="333" 
d="M333 273l-9 -66h-257l9 66h257z" />
    <glyph glyph-name="registered" unicode="&#xae;" horiz-adv-x="800" 
d="M280 136l61 431h158c101 0 145 -41 134 -124c-10 -70 -53 -109 -130 -117l97 -190h-65l-92 185h-77l-26 -185h-60zM393 513l-19 -138h74c38 0 65 3 82 10c25 10 39 30 44 61c6 45 -23 67 -88 67h-93zM223 619c83 71 176 107 279 107s186 -35 249 -106
c64 -72 89 -160 74 -264c-15 -106 -64 -195 -149 -267c-83 -71 -176 -107 -279 -107s-186 35 -249 106c-64 72 -89 160 -74 264c15 106 65 195 149 267zM195 127c52 -61 122 -91 210 -91s167 31 236 92c70 61 111 137 124 228c13 89 -7 164 -60 225s-123 91 -211 91
s-167 -30 -236 -91c-70 -62 -111 -138 -124 -229c-13 -89 8 -164 61 -225z" />
    <glyph glyph-name="macron" unicode="&#xaf;" horiz-adv-x="240" 
d="M347 654l-8 -54h-270l8 54h270z" />
    <glyph glyph-name="degree" unicode="&#xb0;" horiz-adv-x="400" 
d="M372 464c-32 -28 -70 -42 -113 -42s-76 14 -101 42c-24 28 -33 64 -27 107s25 78 57 107c32 28 70 42 113 42s76 -14 101 -42c24 -28 33 -64 27 -107s-25 -78 -57 -107zM362 643c-17 19 -40 29 -68 29s-53 -10 -75 -29c-23 -20 -36 -44 -40 -72s3 -52 20 -71
c17 -20 39 -30 67 -30s53 10 76 30c22 19 35 43 39 71s-2 52 -19 72z" />
    <glyph glyph-name="plusminus" unicode="&#xb1;" horiz-adv-x="666" 
d="M127 347l8 60h225l22 156h60l-22 -156h225l-8 -60h-225l-21 -151h-60l21 151h-225zM85 48l8 60h510l-8 -60h-510z" />
    <glyph glyph-name="twosuperior" unicode="&#xb2;" horiz-adv-x="361" 
d="M375 343l-7 -54h-293l8 57l194 164c44 38 68 70 71 96c3 16 -3 30 -18 42c-14 12 -30 18 -49 18c-47 0 -79 -19 -96 -56l-55 9c23 67 74 101 155 101c39 0 71 -9 94 -28c25 -20 35 -47 30 -82c-6 -43 -44 -93 -114 -150l-147 -117h227z" />
    <glyph glyph-name="threesuperior" unicode="&#xb3;" horiz-adv-x="361" 
d="M198 483l7 54h24c67 0 104 22 110 67c3 18 -2 33 -14 45c-12 11 -28 17 -49 17c-35 0 -66 -15 -93 -46l-42 33c37 45 84 67 141 67c37 0 67 -10 90 -29c23 -20 33 -47 28 -81c-7 -49 -39 -82 -96 -99v-2c29 -5 50 -17 65 -36c13 -19 18 -41 15 -68
c-5 -38 -24 -68 -56 -90c-30 -21 -66 -32 -108 -32c-73 0 -118 29 -134 86l56 30c11 -41 40 -62 89 -62c20 0 40 7 59 22c20 15 31 30 34 47c7 51 -26 77 -97 77h-29z" />
    <glyph glyph-name="acute" unicode="&#xb4;" horiz-adv-x="240" 
d="M350 708l-153 -144h-59l121 144h91z" />
    <glyph glyph-name="mu" unicode="&#xb5;" 
d="M40 -228l98 696h66l-37 -259c-8 -59 -4 -100 11 -124c15 -25 47 -37 94 -37c41 0 77 16 108 47c31 33 51 77 59 133l34 240h66l-52 -365l-9 -103h-71l11 76h-2c-45 -59 -101 -88 -170 -88c-45 0 -81 10 -106 29l-34 -245h-66z" />
    <glyph glyph-name="paragraph" unicode="&#xb6;" horiz-adv-x="600" 
d="M613 708l-118 -834h-66l110 780h-124l-110 -780h-66l62 442c-61 0 -108 18 -142 54c-34 35 -47 79 -40 132c9 65 36 115 83 152c45 36 103 54 174 54h237z" />
    <glyph glyph-name="periodcentered" unicode="&#xb7;" horiz-adv-x="278" 
d="M217 277c-12 -11 -26 -17 -41 -17s-28 6 -37 17c-9 10 -12 22 -10 37s9 27 21 38s26 16 41 16s28 -5 37 -16c8 -11 11 -23 9 -38s-9 -27 -20 -37z" />
    <glyph glyph-name="cedilla" unicode="&#xb8;" horiz-adv-x="240" 
d="M156 0l-53 -60l1 -1c14 5 26 7 37 7c21 0 38 -6 51 -19c14 -15 19 -33 16 -56c-4 -29 -20 -51 -47 -67c-23 -14 -49 -21 -80 -21c-35 0 -66 8 -94 24l21 36c21 -12 45 -18 71 -18c41 0 64 15 69 45c2 27 -13 40 -44 40c-14 0 -30 -4 -47 -11l-16 17l74 84h41z" />
    <glyph glyph-name="onesuperior" unicode="&#xb9;" horiz-adv-x="361" 
d="M325 714l-59 -425h-60l51 365l-91 -67l-24 38l129 89h54z" />
    <glyph glyph-name="ordmasculine" unicode="&#xba;" horiz-adv-x="385" 
d="M374 466c-34 -28 -75 -42 -122 -42s-83 14 -110 42s-37 63 -31 105c6 43 26 79 60 107c35 28 75 42 122 42s84 -14 111 -42c26 -28 36 -64 30 -107c-6 -42 -26 -77 -60 -105zM356 642c-17 20 -41 30 -70 30s-54 -10 -77 -30c-21 -19 -34 -43 -38 -71c-3 -27 3 -51 19 -70
c17 -19 39 -29 68 -29s55 10 78 29c22 19 35 43 38 70c4 28 -2 52 -18 71z" />
    <glyph glyph-name="guillemotright" unicode="&#xbb;" horiz-adv-x="482" 
d="M252 64l140 176l-91 176l52 33l111 -209l-170 -209zM70 64l140 176l-91 176l52 33l111 -209l-170 -209z" />
    <glyph glyph-name="onequarter" unicode="&#xbc;" horiz-adv-x="834" 
d="M770 425l-39 -277h60l-8 -54h-60l-13 -94h-60l13 94h-192l9 62l217 269h73zM201 -32l-48 32l555 740l47 -31zM671 148l30 217h-2l-166 -217h138zM335 714l-59 -425h-60l51 365l-91 -67l-24 38l129 89h54z" />
    <glyph glyph-name="onehalf" unicode="&#xbd;" horiz-adv-x="834" 
d="M176 -32l-48 32l555 740l47 -31zM310 714l-59 -425h-60l51 365l-91 -67l-24 38l129 89h54zM803 54l-8 -54h-293l8 57l194 164c44 37 68 69 72 96c2 16 -4 30 -19 42c-14 12 -30 18 -49 18c-47 0 -79 -19 -96 -56l-55 9c24 67 76 101 156 101c39 0 70 -9 93 -28
c25 -20 35 -47 30 -82c-6 -43 -44 -93 -114 -150l-146 -117h227z" />
    <glyph glyph-name="threequarters" unicode="&#xbe;" horiz-adv-x="834" 
d="M790 425l-39 -277h60l-8 -54h-60l-13 -94h-60l13 94h-192l9 62l217 269h73zM241 -32l-48 32l555 740l47 -31zM691 148l30 217h-2l-166 -217h138zM207 483l7 54h24c67 0 104 24 110 71c3 16 -2 30 -14 41s-28 17 -49 17c-35 0 -66 -15 -93 -46l-42 33c37 45 84 67 141 67
c37 0 67 -10 90 -29c23 -20 33 -47 28 -81c-7 -49 -39 -82 -96 -99v-2c29 -5 50 -17 65 -36c13 -19 18 -41 15 -68c-5 -38 -24 -68 -56 -90c-30 -21 -66 -32 -108 -32c-73 0 -118 29 -133 86l55 30c11 -41 40 -62 89 -62c20 0 40 7 59 22c20 15 31 30 34 47
c7 51 -26 77 -97 77h-29z" />
    <glyph glyph-name="questiondown" unicode="&#xbf;" horiz-adv-x="482" 
d="M239 237l7 51h72l-11 -83c-6 -36 -39 -79 -100 -129s-94 -95 -99 -135c-5 -34 2 -62 21 -83s45 -32 80 -32c71 0 119 36 142 109l74 -9c-15 -51 -43 -92 -85 -122c-41 -29 -87 -44 -140 -44c-55 0 -98 15 -129 45c-32 32 -44 75 -36 130c8 59 43 112 104 160
c60 48 93 95 100 142zM263 470c12 11 26 16 41 16s28 -5 37 -16s12 -23 10 -38s-9 -27 -20 -37c-13 -11 -27 -17 -42 -17s-27 6 -36 17c-9 10 -12 22 -10 37s9 27 20 38z" />
    <glyph glyph-name="Agrave" unicode="&#xc0;" horiz-adv-x="686" 
d="M188 186l-104 -186h-84l408 708h70l208 -708h-84l-52 186h-362zM431 624l-207 -372h307zM449 739l-112 144h91l80 -144h-59z" />
    <glyph glyph-name="Aacute" unicode="&#xc1;" horiz-adv-x="686" 
d="M188 186l-104 -186h-84l408 708h70l208 -708h-84l-52 186h-362zM431 624l-207 -372h307zM597 883l-152 -144h-59l120 144h91z" />
    <glyph glyph-name="Acircumflex" unicode="&#xc2;" horiz-adv-x="686" 
d="M188 186l-104 -186h-84l408 708h70l208 -708h-84l-52 186h-362zM431 624l-207 -372h307zM507 883l89 -144h-66l-68 108l-98 -108h-66l129 144h80z" />
    <glyph glyph-name="Atilde" unicode="&#xc3;" horiz-adv-x="686" 
d="M188 186l-104 -186h-84l408 708h70l208 -708h-84l-52 186h-362zM431 624l-207 -372h307zM330 751h-43c21 69 57 104 106 104c19 0 42 -8 70 -23c31 -15 52 -23 64 -23c24 0 43 17 56 50h43c-23 -69 -58 -104 -107 -104c-15 0 -38 8 -70 23c-27 15 -48 23 -63 23
c-25 0 -44 -17 -56 -50z" />
    <glyph glyph-name="Adieresis" unicode="&#xc4;" horiz-adv-x="686" 
d="M188 186l-104 -186h-84l408 708h70l208 -708h-84l-52 186h-362zM431 624l-207 -372h307zM331 857c11 11 24 16 39 16s26 -5 34 -16c8 -10 11 -22 10 -35c-2 -13 -9 -25 -20 -35c-11 -11 -24 -16 -39 -16s-26 5 -34 16c-8 10 -11 22 -9 35c1 13 8 25 19 35zM523 857
c11 11 24 16 39 16s26 -5 34 -16c8 -10 11 -22 10 -35c-2 -13 -9 -25 -20 -35c-11 -11 -24 -16 -39 -16s-26 5 -34 16c-8 10 -11 22 -9 35c1 13 8 25 19 35z" />
    <glyph glyph-name="Aring" unicode="&#xc5;" horiz-adv-x="686" 
d="M188 186l-104 -186h-84l408 708h70l208 -708h-84l-52 186h-362zM431 624l-207 -372h307zM517 757c-21 -18 -45 -27 -71 -27c-27 0 -48 9 -64 27c-17 19 -23 41 -19 68s17 49 38 68c21 18 45 27 71 27c27 0 48 -9 64 -27c17 -19 23 -41 19 -68s-17 -49 -38 -68zM507 867
c-10 11 -23 17 -40 17s-31 -6 -44 -17s-21 -25 -24 -42s1 -31 12 -42c10 -11 23 -17 40 -17s32 6 45 17s20 25 23 42s-1 31 -12 42z" />
    <glyph glyph-name="AE" unicode="&#xc6;" horiz-adv-x="944" 
d="M673 642l-34 -241h276l-9 -66h-276l-38 -269h306l-9 -66h-378l28 198h-298l-156 -198h-85l561 708h416l-10 -66h-294zM292 264h256l53 378h-11z" />
    <glyph glyph-name="Ccedilla" unicode="&#xc7;" horiz-adv-x="704" 
d="M642 154l53 -42c-69 -87 -162 -130 -281 -130c-9 0 -16 1 -20 2l-39 -44l1 -1c14 5 26 7 37 7c21 0 38 -6 51 -19c14 -15 19 -33 16 -56c-4 -29 -20 -51 -47 -67c-23 -14 -49 -21 -80 -21c-35 0 -66 8 -94 24l21 36c21 -12 45 -18 71 -18c41 0 64 15 69 45
c2 27 -13 40 -44 40c-14 0 -30 -4 -47 -11l-16 17l62 71c-89 13 -158 54 -205 121c-49 68 -66 150 -52 246c15 107 62 196 143 267c79 70 172 105 278 105c105 0 181 -37 229 -112l-69 -47c-11 24 -33 45 -65 64c-33 19 -68 29 -104 29c-88 0 -164 -31 -227 -92
c-59 -58 -95 -129 -107 -214s4 -156 47 -214c46 -61 113 -92 201 -92c89 0 162 35 218 106z" />
    <glyph glyph-name="Egrave" unicode="&#xc8;" horiz-adv-x="593" 
d="M215 335l-38 -269h379l-9 -66h-451l100 708h439l-10 -66h-367l-34 -241h343l-9 -66h-343zM403 739l-112 144h91l80 -144h-59z" />
    <glyph glyph-name="Eacute" unicode="&#xc9;" horiz-adv-x="593" 
d="M215 335l-38 -269h379l-9 -66h-451l100 708h439l-10 -66h-367l-34 -241h343l-9 -66h-343zM551 883l-152 -144h-59l120 144h91z" />
    <glyph glyph-name="Ecircumflex" unicode="&#xca;" horiz-adv-x="593" 
d="M215 335l-38 -269h379l-9 -66h-451l100 708h439l-10 -66h-367l-34 -241h343l-9 -66h-343zM461 883l89 -144h-66l-68 108l-98 -108h-66l129 144h80z" />
    <glyph glyph-name="Edieresis" unicode="&#xcb;" horiz-adv-x="593" 
d="M215 335l-38 -269h379l-9 -66h-451l100 708h439l-10 -66h-367l-34 -241h343l-9 -66h-343zM285 857c11 11 24 16 39 16s26 -5 34 -16c8 -10 11 -22 10 -35c-2 -13 -9 -25 -20 -35c-11 -11 -24 -16 -39 -16s-26 5 -34 16c-8 10 -11 22 -9 35c1 13 8 25 19 35zM477 857
c11 11 24 16 39 16s26 -5 34 -16c8 -10 11 -22 10 -35c-2 -13 -9 -25 -20 -35c-11 -11 -24 -16 -39 -16s-26 5 -34 16c-8 10 -11 22 -9 35c1 13 8 25 19 35z" />
    <glyph glyph-name="Igrave" unicode="&#xcc;" horiz-adv-x="264" 
d="M268 708l-100 -708h-72l100 708h72zM238 739l-112 144h91l80 -144h-59z" />
    <glyph glyph-name="Iacute" unicode="&#xcd;" horiz-adv-x="264" 
d="M268 708l-100 -708h-72l100 708h72zM386 883l-152 -144h-59l120 144h91z" />
    <glyph glyph-name="Icircumflex" unicode="&#xce;" horiz-adv-x="264" 
d="M268 708l-100 -708h-72l100 708h72zM296 883l89 -144h-66l-68 108l-98 -108h-66l129 144h80z" />
    <glyph glyph-name="Idieresis" unicode="&#xcf;" horiz-adv-x="264" 
d="M268 708l-100 -708h-72l100 708h72zM120 857c11 11 24 16 39 16s26 -5 34 -16c8 -10 11 -22 10 -35c-2 -13 -9 -25 -20 -35c-11 -11 -24 -16 -39 -16s-26 5 -34 16c-8 10 -11 22 -9 35c1 13 8 25 19 35zM312 857c11 11 24 16 39 16s26 -5 34 -16c8 -10 11 -22 10 -35
c-2 -13 -9 -25 -20 -35c-11 -11 -24 -16 -39 -16s-26 5 -34 16c-8 10 -11 22 -9 35c1 13 8 25 19 35z" />
    <glyph glyph-name="Eth" unicode="&#xd0;" horiz-adv-x="741" 
d="M86 0l49 347h-73l7 54h73l44 307h235c97 0 177 -29 240 -88c70 -67 97 -155 82 -266s-68 -199 -157 -265c-79 -59 -168 -89 -265 -89h-235zM207 347l-40 -281h140c102 0 186 30 252 89c59 53 95 120 106 199s-6 146 -50 199c-49 59 -125 89 -227 89h-140l-34 -241h258
l-7 -54h-258z" />
    <glyph glyph-name="Ntilde" unicode="&#xd1;" horiz-adv-x="778" 
d="M286 708l337 -600h2l85 600h72l-100 -708h-90l-337 606h-2l-85 -606h-72l100 708h90zM376 751h-43c21 69 57 104 106 104c19 0 42 -8 70 -23c31 -15 52 -23 64 -23c24 0 43 17 56 50h43c-23 -69 -58 -104 -107 -104c-15 0 -38 8 -70 23c-27 15 -48 23 -63 23
c-25 0 -44 -17 -56 -50z" />
    <glyph glyph-name="Ograve" unicode="&#xd2;" horiz-adv-x="834" 
d="M693 87c-80 -70 -173 -105 -279 -105s-189 35 -248 105c-60 71 -83 160 -68 267s62 196 143 267c79 70 172 105 278 105s189 -35 249 -105c60 -71 83 -160 68 -267s-62 -196 -143 -267zM711 568c-46 61 -113 92 -201 92s-164 -31 -227 -92c-59 -58 -95 -129 -107 -214
s4 -156 47 -214c46 -61 113 -92 201 -92s164 31 227 92c59 58 95 129 107 214s-4 156 -47 214zM523 739l-112 144h91l80 -144h-59z" />
    <glyph glyph-name="Oacute" unicode="&#xd3;" horiz-adv-x="834" 
d="M693 87c-80 -70 -173 -105 -279 -105s-189 35 -248 105c-60 71 -83 160 -68 267s62 196 143 267c79 70 172 105 278 105s189 -35 249 -105c60 -71 83 -160 68 -267s-62 -196 -143 -267zM711 568c-46 61 -113 92 -201 92s-164 -31 -227 -92c-59 -58 -95 -129 -107 -214
s4 -156 47 -214c46 -61 113 -92 201 -92s164 31 227 92c59 58 95 129 107 214s-4 156 -47 214zM671 883l-152 -144h-59l120 144h91z" />
    <glyph glyph-name="Ocircumflex" unicode="&#xd4;" horiz-adv-x="834" 
d="M693 87c-80 -70 -173 -105 -279 -105s-189 35 -248 105c-60 71 -83 160 -68 267s62 196 143 267c79 70 172 105 278 105s189 -35 249 -105c60 -71 83 -160 68 -267s-62 -196 -143 -267zM711 568c-46 61 -113 92 -201 92s-164 -31 -227 -92c-59 -58 -95 -129 -107 -214
s4 -156 47 -214c46 -61 113 -92 201 -92s164 31 227 92c59 58 95 129 107 214s-4 156 -47 214zM581 883l89 -144h-66l-68 108l-98 -108h-66l129 144h80z" />
    <glyph glyph-name="Otilde" unicode="&#xd5;" horiz-adv-x="834" 
d="M693 87c-80 -70 -173 -105 -279 -105s-189 35 -248 105c-60 71 -83 160 -68 267s62 196 143 267c79 70 172 105 278 105s189 -35 249 -105c60 -71 83 -160 68 -267s-62 -196 -143 -267zM711 568c-46 61 -113 92 -201 92s-164 -31 -227 -92c-59 -58 -95 -129 -107 -214
s4 -156 47 -214c46 -61 113 -92 201 -92s164 31 227 92c59 58 95 129 107 214s-4 156 -47 214zM404 751h-43c21 69 57 104 106 104c19 0 42 -8 70 -23c31 -15 52 -23 64 -23c24 0 43 17 56 50h43c-23 -69 -58 -104 -107 -104c-15 0 -38 8 -70 23c-27 15 -48 23 -63 23
c-25 0 -44 -17 -56 -50z" />
    <glyph glyph-name="Odieresis" unicode="&#xd6;" horiz-adv-x="834" 
d="M693 87c-80 -70 -173 -105 -279 -105s-189 35 -248 105c-60 71 -83 160 -68 267s62 196 143 267c79 70 172 105 278 105s189 -35 249 -105c60 -71 83 -160 68 -267s-62 -196 -143 -267zM711 568c-46 61 -113 92 -201 92s-164 -31 -227 -92c-59 -58 -95 -129 -107 -214
s4 -156 47 -214c46 -61 113 -92 201 -92s164 31 227 92c59 58 95 129 107 214s-4 156 -47 214zM405 857c11 11 24 16 39 16s26 -5 34 -16c8 -10 11 -22 10 -35c-2 -13 -9 -25 -20 -35c-11 -11 -24 -16 -39 -16s-26 5 -34 16c-8 10 -11 22 -9 35c1 13 8 25 19 35zM597 857
c11 11 24 16 39 16s26 -5 34 -16c8 -10 11 -22 10 -35c-2 -13 -9 -25 -20 -35c-11 -11 -24 -16 -39 -16s-26 5 -34 16c-8 10 -11 22 -9 35c1 13 8 25 19 35z" />
    <glyph glyph-name="multiply" unicode="&#xd7;" horiz-adv-x="666" 
d="M245 505l137 -159l180 159l37 -42l-181 -160l136 -159l-49 -43l-135 159l-182 -159l-36 43l182 159l-137 160z" />
    <glyph glyph-name="Oslash" unicode="&#xd8;" horiz-adv-x="834" 
d="M863 692l-87 -82c54 -68 74 -153 60 -256c-15 -107 -62 -196 -143 -267c-80 -70 -173 -105 -279 -105c-91 0 -166 27 -224 81l-88 -81l-32 34l88 82c-55 69 -75 154 -60 256c15 107 62 196 143 267c79 70 172 105 278 105c91 0 166 -27 225 -81l87 81zM718 556l-473 -441
c45 -45 104 -67 179 -67c88 0 164 31 227 92c59 58 95 129 107 214c11 78 -3 145 -40 202zM215 152l473 441c-45 45 -104 67 -178 67c-88 0 -164 -31 -227 -92c-59 -58 -95 -129 -107 -214c-11 -79 2 -146 39 -202z" />
    <glyph glyph-name="Ugrave" unicode="&#xd9;" horiz-adv-x="686" 
d="M702 708l-63 -444c-10 -75 -35 -136 -76 -185c-53 -65 -128 -97 -223 -97s-160 32 -195 97c-26 48 -34 110 -24 185l63 444h72l-62 -436c-12 -89 4 -151 47 -188c28 -24 64 -36 109 -36s84 12 119 36c54 37 87 99 99 188l62 436h72zM449 739l-112 144h91l80 -144h-59z
" />
    <glyph glyph-name="Uacute" unicode="&#xda;" horiz-adv-x="686" 
d="M702 708l-63 -444c-10 -75 -35 -136 -76 -185c-53 -65 -128 -97 -223 -97s-160 32 -195 97c-26 48 -34 110 -24 185l63 444h72l-62 -436c-12 -89 4 -151 47 -188c28 -24 64 -36 109 -36s84 12 119 36c54 37 87 99 99 188l62 436h72zM597 883l-152 -144h-59l120 144h91z
" />
    <glyph glyph-name="Ucircumflex" unicode="&#xdb;" horiz-adv-x="686" 
d="M702 708l-63 -444c-10 -75 -35 -136 -76 -185c-53 -65 -128 -97 -223 -97s-160 32 -195 97c-26 48 -34 110 -24 185l63 444h72l-62 -436c-12 -89 4 -151 47 -188c28 -24 64 -36 109 -36s84 12 119 36c54 37 87 99 99 188l62 436h72zM507 883l89 -144h-66l-68 108
l-98 -108h-66l129 144h80z" />
    <glyph glyph-name="Udieresis" unicode="&#xdc;" horiz-adv-x="686" 
d="M702 708l-63 -444c-10 -75 -35 -136 -76 -185c-53 -65 -128 -97 -223 -97s-160 32 -195 97c-26 48 -34 110 -24 185l63 444h72l-62 -436c-12 -89 4 -151 47 -188c28 -24 64 -36 109 -36s84 12 119 36c54 37 87 99 99 188l62 436h72zM331 857c11 11 24 16 39 16
s26 -5 34 -16c8 -10 11 -22 10 -35c-2 -13 -9 -25 -20 -35c-11 -11 -24 -16 -39 -16s-26 5 -34 16c-8 10 -11 22 -9 35c1 13 8 25 19 35zM523 857c11 11 24 16 39 16s26 -5 34 -16c8 -10 11 -22 10 -35c-2 -13 -9 -25 -20 -35c-11 -11 -24 -16 -39 -16s-26 5 -34 16
c-8 10 -11 22 -9 35c1 13 8 25 19 35z" />
    <glyph glyph-name="Yacute" unicode="&#xdd;" horiz-adv-x="574" 
d="M366 305l-43 -305h-72l43 305l-208 403h90l164 -334l258 334h90zM541 883l-152 -144h-59l120 144h91z" />
    <glyph glyph-name="Thorn" unicode="&#xde;" horiz-adv-x="574" 
d="M96 0l100 708h72l-22 -156h160c61 0 108 -16 141 -47c35 -33 48 -81 39 -142c-9 -62 -35 -110 -79 -143c-41 -31 -93 -47 -155 -47h-160l-24 -173h-72zM236 486l-34 -247h116c51 0 91 6 118 19c41 19 65 54 72 105s-7 85 -43 104c-24 13 -62 19 -113 19h-116z" />
    <glyph glyph-name="germandbls" unicode="&#xdf;" horiz-adv-x="593" 
d="M227 550l-77 -550h-66l76 544c21 149 102 224 243 224c55 0 98 -15 129 -46c33 -33 45 -76 37 -131c-11 -78 -57 -131 -138 -159l-1 -2c55 -5 96 -28 121 -69c22 -37 29 -83 21 -138c-10 -71 -40 -128 -90 -171c-49 -43 -109 -64 -180 -64c-21 0 -40 3 -57 8l8 57
c13 -3 29 -5 48 -5c53 0 98 15 134 46c36 32 58 75 65 130c17 117 -41 175 -176 175l9 60c97 0 151 41 163 123c5 39 -2 70 -23 93c-19 22 -47 33 -82 33c-49 0 -88 -18 -118 -53c-25 -29 -40 -64 -46 -105z" />
    <glyph glyph-name="Agrave036" unicode="&#xe0;" horiz-adv-x="519" 
d="M379 287h33l2 12c11 81 -24 121 -103 121c-55 0 -105 -18 -151 -55l-33 47c51 45 120 68 207 68c49 0 88 -13 115 -40c29 -30 40 -72 33 -126l-29 -209c-5 -33 -7 -68 -7 -105h-64c-1 23 0 49 5 76h-2c-45 -59 -104 -88 -178 -88c-45 0 -80 11 -106 34
c-29 25 -41 60 -35 103c15 108 119 162 313 162zM405 233h-34c-145 0 -223 -33 -232 -99c-4 -29 5 -51 26 -66c18 -13 42 -20 72 -20c46 0 84 15 113 44c27 27 43 63 50 107zM341 564l-111 144h91l79 -144h-59z" />
    <glyph glyph-name="Aacute033" unicode="&#xe1;" horiz-adv-x="519" 
d="M379 287h33l2 12c11 81 -24 121 -103 121c-55 0 -105 -18 -151 -55l-33 47c51 45 120 68 207 68c49 0 88 -13 115 -40c29 -30 40 -72 33 -126l-29 -209c-5 -33 -7 -68 -7 -105h-64c-1 23 0 49 5 76h-2c-45 -59 -104 -88 -178 -88c-45 0 -80 11 -106 34
c-29 25 -41 60 -35 103c15 108 119 162 313 162zM405 233h-34c-145 0 -223 -33 -232 -99c-4 -29 5 -51 26 -66c18 -13 42 -20 72 -20c46 0 84 15 113 44c27 27 43 63 50 107zM490 708l-153 -144h-59l121 144h91z" />
    <glyph glyph-name="Acircumflex034" unicode="&#xe2;" horiz-adv-x="519" 
d="M379 287h33l2 12c11 81 -24 121 -103 121c-55 0 -105 -18 -151 -55l-33 47c51 45 120 68 207 68c49 0 88 -13 115 -40c29 -30 40 -72 33 -126l-29 -209c-5 -33 -7 -68 -7 -105h-64c-1 23 0 49 5 76h-2c-45 -59 -104 -88 -178 -88c-45 0 -80 11 -106 34
c-29 25 -41 60 -35 103c15 108 119 162 313 162zM405 233h-34c-145 0 -223 -33 -232 -99c-4 -29 5 -51 26 -66c18 -13 42 -20 72 -20c46 0 84 15 113 44c27 27 43 63 50 107zM400 708l88 -144h-66l-68 108l-98 -108h-66l130 144h80z" />
    <glyph glyph-name="Atilde038" unicode="&#xe3;" horiz-adv-x="519" 
d="M379 287h33l2 12c11 81 -24 121 -103 121c-55 0 -105 -18 -151 -55l-33 47c51 45 120 68 207 68c49 0 88 -13 115 -40c29 -30 40 -72 33 -126l-29 -209c-5 -33 -7 -68 -7 -105h-64c-1 23 0 49 5 76h-2c-45 -59 -104 -88 -178 -88c-45 0 -80 11 -106 34
c-29 25 -41 60 -35 103c15 108 119 162 313 162zM405 233h-34c-145 0 -223 -33 -232 -99c-4 -29 5 -51 26 -66c18 -13 42 -20 72 -20c46 0 84 15 113 44c27 27 43 63 50 107zM222 576h-43c21 69 57 104 107 104c18 0 41 -8 69 -23c32 -15 53 -23 64 -23c25 0 44 17 56 50h43
c-21 -69 -57 -104 -106 -104c-16 0 -39 8 -70 23c-28 15 -49 23 -64 23c-25 0 -44 -17 -56 -50z" />
    <glyph glyph-name="Adieresis035" unicode="&#xe4;" horiz-adv-x="519" 
d="M379 287h33l2 12c11 81 -24 121 -103 121c-55 0 -105 -18 -151 -55l-33 47c51 45 120 68 207 68c49 0 88 -13 115 -40c29 -30 40 -72 33 -126l-29 -209c-5 -33 -7 -68 -7 -105h-64c-1 23 0 49 5 76h-2c-45 -59 -104 -88 -178 -88c-45 0 -80 11 -106 34
c-29 25 -41 60 -35 103c15 108 119 162 313 162zM405 233h-34c-145 0 -223 -33 -232 -99c-4 -29 5 -51 26 -66c18 -13 42 -20 72 -20c46 0 84 15 113 44c27 27 43 63 50 107zM223 682c11 11 24 16 39 16s26 -5 35 -16c8 -10 11 -22 9 -35s-8 -25 -19 -35
c-11 -11 -24 -16 -39 -16s-26 5 -35 16c-8 10 -11 22 -9 35s8 25 19 35zM415 682c11 11 24 16 39 16s26 -5 35 -16c8 -10 11 -22 9 -35s-8 -25 -19 -35c-11 -11 -24 -16 -39 -16s-26 5 -35 16c-8 10 -11 22 -9 35s8 25 19 35z" />
    <glyph glyph-name="Aring037" unicode="&#xe5;" horiz-adv-x="519" 
d="M379 287h33l2 12c11 81 -24 121 -103 121c-55 0 -105 -18 -151 -55l-33 47c51 45 120 68 207 68c49 0 88 -13 115 -40c29 -30 40 -72 33 -126l-29 -209c-5 -33 -7 -68 -7 -105h-64c-1 23 0 49 5 76h-2c-45 -59 -104 -88 -178 -88c-45 0 -80 11 -106 34
c-29 25 -41 60 -35 103c15 108 119 162 313 162zM405 233h-34c-145 0 -223 -33 -232 -99c-4 -29 5 -51 26 -66c18 -13 42 -20 72 -20c46 0 84 15 113 44c27 27 43 63 50 107zM409 582c-21 -18 -44 -27 -71 -27c-26 0 -47 9 -64 27c-16 19 -22 41 -19 68c4 27 17 49 39 68
c21 18 45 27 71 27s47 -9 64 -27c16 -19 22 -41 18 -68c-3 -27 -16 -49 -38 -68zM400 692c-10 11 -23 17 -40 17s-32 -6 -45 -17s-21 -25 -24 -42c-2 -17 2 -31 12 -42s23 -17 40 -17s32 6 45 17s21 25 23 42c3 17 -1 31 -11 42z" />
    <glyph glyph-name="AE027" unicode="&#xe6;" horiz-adv-x="852" 
d="M834 216h-351l-1 -9c-6 -44 1 -81 21 -111c21 -32 53 -48 94 -48c61 0 113 25 156 76l47 -41c-59 -63 -129 -95 -210 -95c-84 0 -137 36 -159 109c-53 -73 -128 -109 -224 -109c-45 0 -80 11 -106 34c-29 25 -41 60 -35 103c13 97 96 145 248 145h111l4 29
c5 43 -6 76 -34 98c-20 15 -43 23 -69 23c-55 0 -105 -19 -150 -56l-34 48c55 45 120 68 195 68c35 0 66 -9 93 -26c26 -17 43 -38 50 -64c41 60 101 90 179 90c67 -1 116 -23 149 -68c30 -42 40 -97 31 -166zM417 216h-137c-86 0 -133 -27 -141 -82c-4 -29 5 -51 26 -66
c18 -13 42 -20 72 -20c47 0 87 15 120 45c33 29 52 67 59 114zM491 270h285c6 44 -2 80 -24 108c-23 28 -56 42 -99 42c-40 0 -75 -14 -106 -43s-50 -64 -56 -107z" />
    <glyph glyph-name="Ccedilla039" unicode="&#xe7;" horiz-adv-x="482" 
d="M523 399l-60 -41c-21 41 -57 62 -108 62c-53 1 -99 -17 -136 -52c-36 -35 -58 -79 -66 -134s1 -99 28 -134s68 -53 122 -52c52 0 94 21 125 62l49 -41c-53 -53 -114 -80 -183 -81c-4 0 -6 0 -7 1l-43 -49l1 -1c14 5 26 7 37 7c21 0 38 -6 51 -19c14 -15 19 -33 16 -56
c-4 -29 -20 -51 -47 -67c-23 -14 -49 -21 -80 -21c-35 0 -66 8 -94 24l21 36c21 -12 45 -18 71 -18c41 0 64 15 69 45c2 27 -13 40 -44 40c-14 0 -30 -4 -47 -11l-16 17l67 76c-61 9 -107 35 -137 80c-30 44 -40 98 -31 162c10 72 41 131 92 177c52 47 115 70 190 69
c69 -1 123 -28 160 -81z" />
    <glyph glyph-name="Egrave043" unicode="&#xe8;" 
d="M538 216h-390c-3 -47 10 -87 38 -119c28 -33 65 -49 111 -49c66 0 120 27 161 81l45 -42c-61 -66 -133 -99 -215 -99c-69 0 -124 23 -163 70s-54 105 -44 176c10 70 41 129 93 176c51 47 110 70 177 70c69 -1 121 -24 156 -69c33 -44 45 -99 36 -165zM158 270h316
c6 45 -2 81 -25 108c-24 28 -59 42 -106 42c-43 0 -83 -15 -121 -46c-37 -31 -59 -65 -64 -104zM359 564l-111 144h91l79 -144h-59z" />
    <glyph glyph-name="Eacute040" unicode="&#xe9;" 
d="M538 216h-390c-3 -47 10 -87 38 -119c28 -33 65 -49 111 -49c66 0 120 27 161 81l45 -42c-61 -66 -133 -99 -215 -99c-69 0 -124 23 -163 70s-54 105 -44 176c10 70 41 129 93 176c51 47 110 70 177 70c69 -1 121 -24 156 -69c33 -44 45 -99 36 -165zM158 270h316
c6 45 -2 81 -25 108c-24 28 -59 42 -106 42c-43 0 -83 -15 -121 -46c-37 -31 -59 -65 -64 -104zM508 708l-153 -144h-59l121 144h91z" />
    <glyph glyph-name="Ecircumflex041" unicode="&#xea;" 
d="M538 216h-390c-3 -47 10 -87 38 -119c28 -33 65 -49 111 -49c66 0 120 27 161 81l45 -42c-61 -66 -133 -99 -215 -99c-69 0 -124 23 -163 70s-54 105 -44 176c10 70 41 129 93 176c51 47 110 70 177 70c69 -1 121 -24 156 -69c33 -44 45 -99 36 -165zM158 270h316
c6 45 -2 81 -25 108c-24 28 -59 42 -106 42c-43 0 -83 -15 -121 -46c-37 -31 -59 -65 -64 -104zM418 708l88 -144h-66l-68 108l-98 -108h-66l130 144h80z" />
    <glyph glyph-name="Edieresis042" unicode="&#xeb;" 
d="M538 216h-390c-3 -47 10 -87 38 -119c28 -33 65 -49 111 -49c66 0 120 27 161 81l45 -42c-61 -66 -133 -99 -215 -99c-69 0 -124 23 -163 70s-54 105 -44 176c10 70 41 129 93 176c51 47 110 70 177 70c69 -1 121 -24 156 -69c33 -44 45 -99 36 -165zM158 270h316
c6 45 -2 81 -25 108c-24 28 -59 42 -106 42c-43 0 -83 -15 -121 -46c-37 -31 -59 -65 -64 -104zM241 682c11 11 24 16 39 16s26 -5 35 -16c8 -10 11 -22 9 -35s-8 -25 -19 -35c-11 -11 -24 -16 -39 -16s-26 5 -35 16c-8 10 -11 22 -9 35s8 25 19 35zM433 682
c11 11 24 16 39 16s26 -5 35 -16c8 -10 11 -22 9 -35s-8 -25 -19 -35c-11 -11 -24 -16 -39 -16s-26 5 -35 16c-8 10 -11 22 -9 35s8 25 19 35z" />
    <glyph glyph-name="Igrave047" unicode="&#xec;" horiz-adv-x="240" 
d="M219 468l-66 -468h-66l66 468h66zM201 564l-111 144h91l79 -144h-59z" />
    <glyph glyph-name="Iacute044" unicode="&#xed;" horiz-adv-x="240" 
d="M219 468l-66 -468h-66l66 468h66zM350 708l-153 -144h-59l121 144h91z" />
    <glyph glyph-name="Icircumflex045" unicode="&#xee;" horiz-adv-x="240" 
d="M219 468l-66 -468h-66l66 468h66zM260 708l88 -144h-66l-68 108l-98 -108h-66l130 144h80z" />
    <glyph glyph-name="Idieresis046" unicode="&#xef;" horiz-adv-x="240" 
d="M219 468l-66 -468h-66l66 468h66zM83 682c11 11 24 16 39 16s26 -5 35 -16c8 -10 11 -22 9 -35s-8 -25 -19 -35c-11 -11 -24 -16 -39 -16s-26 5 -35 16c-8 10 -11 22 -9 35s8 25 19 35zM275 682c11 11 24 16 39 16s26 -5 35 -16c8 -10 11 -22 9 -35s-8 -25 -19 -35
c-11 -11 -24 -16 -39 -16s-26 5 -35 16c-8 10 -11 22 -9 35s8 25 19 35z" />
    <glyph glyph-name="Eth032" unicode="&#xf0;" horiz-adv-x="593" 
d="M182 102c27 -36 68 -54 121 -54s99 18 137 54c36 34 58 78 66 132c7 53 -2 97 -29 132c-28 36 -69 54 -122 54s-98 -18 -136 -54c-37 -35 -59 -79 -66 -132s2 -97 29 -132zM555 714l-110 -54c112 -130 157 -265 136 -406c-11 -72 -37 -131 -78 -178
c-51 -59 -121 -88 -209 -88c-72 0 -128 23 -168 70s-55 105 -45 176s41 129 94 176s116 70 188 70c54 0 101 -19 142 -58l3 2c-32 81 -76 149 -131 204l-118 -57l-31 36l116 56c-29 31 -57 58 -84 79l65 37c37 -33 65 -61 86 -83l109 53z" />
    <glyph glyph-name="Ntilde048" unicode="&#xf1;" 
d="M133 468h68c-1 -22 -3 -47 -8 -75h2c41 58 97 87 169 87c117 0 168 -61 151 -183l-42 -297h-66l36 259c8 55 5 95 -10 120c-15 27 -47 41 -94 41c-26 0 -53 -9 -80 -26c-48 -31 -77 -82 -87 -154l-34 -240h-66l51 365c1 9 5 43 10 103zM240 576h-43c21 69 57 104 107 104
c18 0 41 -8 69 -23c32 -15 53 -23 64 -23c25 0 44 17 56 50h43c-21 -69 -57 -104 -106 -104c-16 0 -39 8 -70 23c-28 15 -49 23 -64 23c-25 0 -44 -17 -56 -50z" />
    <glyph glyph-name="Ograve052" unicode="&#xf2;" horiz-adv-x="593" 
d="M483 58c-53 -47 -116 -70 -189 -70c-72 0 -128 23 -168 70s-55 105 -45 176s41 129 94 176s116 70 188 70c73 0 129 -23 170 -70c40 -47 55 -105 45 -176s-42 -129 -95 -176zM477 366c-28 36 -69 54 -122 54s-98 -18 -136 -54c-37 -35 -59 -79 -66 -132s2 -97 29 -132
c27 -36 68 -54 121 -54s99 18 137 54c36 34 58 78 66 132c7 53 -2 97 -29 132zM378 564l-111 144h91l79 -144h-59z" />
    <glyph glyph-name="Oacute049" unicode="&#xf3;" horiz-adv-x="593" 
d="M483 58c-53 -47 -116 -70 -189 -70c-72 0 -128 23 -168 70s-55 105 -45 176s41 129 94 176s116 70 188 70c73 0 129 -23 170 -70c40 -47 55 -105 45 -176s-42 -129 -95 -176zM477 366c-28 36 -69 54 -122 54s-98 -18 -136 -54c-37 -35 -59 -79 -66 -132s2 -97 29 -132
c27 -36 68 -54 121 -54s99 18 137 54c36 34 58 78 66 132c7 53 -2 97 -29 132zM527 708l-153 -144h-59l121 144h91z" />
    <glyph glyph-name="Ocircumflex050" unicode="&#xf4;" horiz-adv-x="593" 
d="M483 58c-53 -47 -116 -70 -189 -70c-72 0 -128 23 -168 70s-55 105 -45 176s41 129 94 176s116 70 188 70c73 0 129 -23 170 -70c40 -47 55 -105 45 -176s-42 -129 -95 -176zM477 366c-28 36 -69 54 -122 54s-98 -18 -136 -54c-37 -35 -59 -79 -66 -132s2 -97 29 -132
c27 -36 68 -54 121 -54s99 18 137 54c36 34 58 78 66 132c7 53 -2 97 -29 132zM437 708l88 -144h-66l-68 108l-98 -108h-66l130 144h80z" />
    <glyph glyph-name="Otilde053" unicode="&#xf5;" horiz-adv-x="593" 
d="M483 58c-53 -47 -116 -70 -189 -70c-72 0 -128 23 -168 70s-55 105 -45 176s41 129 94 176s116 70 188 70c73 0 129 -23 170 -70c40 -47 55 -105 45 -176s-42 -129 -95 -176zM477 366c-28 36 -69 54 -122 54s-98 -18 -136 -54c-37 -35 -59 -79 -66 -132s2 -97 29 -132
c27 -36 68 -54 121 -54s99 18 137 54c36 34 58 78 66 132c7 53 -2 97 -29 132zM259 576h-43c21 69 57 104 107 104c18 0 41 -8 69 -23c32 -15 53 -23 64 -23c25 0 44 17 56 50h43c-21 -69 -57 -104 -106 -104c-16 0 -39 8 -70 23c-28 15 -49 23 -64 23
c-25 0 -44 -17 -56 -50z" />
    <glyph glyph-name="Odieresis051" unicode="&#xf6;" horiz-adv-x="593" 
d="M483 58c-53 -47 -116 -70 -189 -70c-72 0 -128 23 -168 70s-55 105 -45 176s41 129 94 176s116 70 188 70c73 0 129 -23 170 -70c40 -47 55 -105 45 -176s-42 -129 -95 -176zM477 366c-28 36 -69 54 -122 54s-98 -18 -136 -54c-37 -35 -59 -79 -66 -132s2 -97 29 -132
c27 -36 68 -54 121 -54s99 18 137 54c36 34 58 78 66 132c7 53 -2 97 -29 132zM260 682c11 11 24 16 39 16s26 -5 35 -16c8 -10 11 -22 9 -35s-8 -25 -19 -35c-11 -11 -24 -16 -39 -16s-26 5 -35 16c-8 10 -11 22 -9 35s8 25 19 35zM452 682c11 11 24 16 39 16s26 -5 35 -16
c8 -10 11 -22 9 -35s-8 -25 -19 -35c-11 -11 -24 -16 -39 -16s-26 5 -35 16c-8 10 -11 22 -9 35s8 25 19 35z" />
    <glyph glyph-name="divide" unicode="&#xf7;" horiz-adv-x="666" 
d="M635 333l-9 -60h-510l9 60h510zM432 428c-12 -11 -26 -17 -41 -17s-28 6 -37 17c-9 10 -12 22 -10 37s9 27 21 38s26 16 41 16s28 -5 37 -16c8 -11 11 -23 9 -38s-9 -27 -20 -37zM387 104c-13 -11 -27 -17 -42 -17s-27 6 -36 17c-9 10 -12 22 -10 37s9 27 20 38
c12 11 26 16 41 16s28 -5 37 -16s12 -23 10 -38s-9 -27 -20 -37z" />
    <glyph glyph-name="Oslash029" unicode="&#xf8;" horiz-adv-x="593" 
d="M488 348l-292 -262c27 -25 63 -38 107 -38c53 0 99 18 137 54c36 34 58 78 66 132c6 42 0 80 -18 114zM171 120l292 261c-27 26 -63 39 -108 39c-53 0 -98 -18 -136 -54c-37 -35 -59 -79 -66 -132c-6 -45 0 -83 18 -114zM618 465l-75 -68c32 -44 44 -98 35 -163
c-10 -71 -42 -129 -95 -176s-116 -70 -189 -70c-61 0 -111 17 -149 52l-77 -68l-28 31l76 68c-32 45 -44 99 -35 163c10 71 41 129 94 176s116 70 188 70c61 0 112 -17 152 -52l76 68z" />
    <glyph glyph-name="Ugrave058" unicode="&#xf9;" 
d="M478 0h-68c1 22 3 47 8 75h-2c-42 -58 -99 -87 -170 -87c-117 0 -167 61 -150 183l42 297h66l-37 -259c-7 -55 -4 -94 11 -119c15 -28 47 -42 94 -42c26 0 53 9 80 26c48 31 77 82 87 154l34 240h66l-52 -365zM359 564l-111 144h91l79 -144h-59z" />
    <glyph glyph-name="Uacute055" unicode="&#xfa;" 
d="M478 0h-68c1 22 3 47 8 75h-2c-42 -58 -99 -87 -170 -87c-117 0 -167 61 -150 183l42 297h66l-37 -259c-7 -55 -4 -94 11 -119c15 -28 47 -42 94 -42c26 0 53 9 80 26c48 31 77 82 87 154l34 240h66l-52 -365zM508 708l-153 -144h-59l121 144h91z" />
    <glyph glyph-name="Ucircumflex056" unicode="&#xfb;" 
d="M478 0h-68c1 22 3 47 8 75h-2c-42 -58 -99 -87 -170 -87c-117 0 -167 61 -150 183l42 297h66l-37 -259c-7 -55 -4 -94 11 -119c15 -28 47 -42 94 -42c26 0 53 9 80 26c48 31 77 82 87 154l34 240h66l-52 -365zM418 708l88 -144h-66l-68 108l-98 -108h-66l130 144h80z" />
    <glyph glyph-name="Udieresis057" unicode="&#xfc;" 
d="M478 0h-68c1 22 3 47 8 75h-2c-42 -58 -99 -87 -170 -87c-117 0 -167 61 -150 183l42 297h66l-37 -259c-7 -55 -4 -94 11 -119c15 -28 47 -42 94 -42c26 0 53 9 80 26c48 31 77 82 87 154l34 240h66l-52 -365zM241 682c11 11 24 16 39 16s26 -5 35 -16
c8 -10 11 -22 9 -35s-8 -25 -19 -35c-11 -11 -24 -16 -39 -16s-26 5 -35 16c-8 10 -11 22 -9 35s8 25 19 35zM433 682c11 11 24 16 39 16s26 -5 35 -16c8 -10 11 -22 9 -35s-8 -25 -19 -35c-11 -11 -24 -16 -39 -16s-26 5 -35 16c-8 10 -11 22 -9 35s8 25 19 35z" />
    <glyph glyph-name="Yacute059" unicode="&#xfd;" horiz-adv-x="482" 
d="M165 468l92 -387l198 387h80l-317 -590c-41 -79 -96 -118 -164 -118c-25 0 -45 2 -60 7l16 64c13 -7 29 -11 49 -11c39 0 73 28 102 84l46 90l-125 474h83zM471 708l-153 -144h-59l121 144h91z" />
    <glyph glyph-name="Thorn031" unicode="&#xfe;" horiz-adv-x="611" 
d="M40 -228l138 984h66l-52 -375h2c57 66 122 99 195 99s129 -23 170 -70c40 -47 55 -105 45 -176s-42 -129 -95 -176s-116 -70 -189 -70c-80 0 -136 30 -169 90h-2l-43 -306h-66zM503 366c-28 36 -69 54 -122 54c-54 0 -101 -18 -141 -54c-41 -35 -65 -79 -72 -132
s3 -97 32 -132c30 -36 73 -54 129 -54c53 0 99 18 137 54c36 34 58 78 66 132c7 53 -2 97 -29 132z" />
    <glyph glyph-name="Ydieresis060" unicode="&#xff;" horiz-adv-x="482" 
d="M165 468l92 -387l198 387h80l-317 -590c-41 -79 -96 -118 -164 -118c-25 0 -45 2 -60 7l16 64c13 -7 29 -11 49 -11c39 0 73 28 102 84l46 90l-125 474h83zM204 682c11 11 24 16 39 16s26 -5 35 -16c8 -10 11 -22 9 -35s-8 -25 -19 -35c-11 -11 -24 -16 -39 -16
s-26 5 -35 16c-8 10 -11 22 -9 35s8 25 19 35zM396 682c11 11 24 16 39 16s26 -5 35 -16c8 -10 11 -22 9 -35s-8 -25 -19 -35c-11 -11 -24 -16 -39 -16s-26 5 -35 16c-8 10 -11 22 -9 35s8 25 19 35z" />
    <glyph glyph-name="abreve110" unicode="&#x102;" horiz-adv-x="686" 
d="M188 186l-104 -186h-84l408 708h70l208 -708h-84l-52 186h-362zM431 624l-207 -372h307zM581 908h44c-11 -41 -32 -73 -65 -97c-32 -23 -69 -35 -110 -35s-73 12 -94 35c-22 24 -30 56 -25 97h44c-1 -52 28 -78 87 -78c60 0 100 26 119 78z" />
    <glyph glyph-name="abreve" unicode="&#x103;" horiz-adv-x="519" 
d="M379 287h33l2 12c11 81 -24 121 -103 121c-55 0 -105 -18 -151 -55l-33 47c51 45 120 68 207 68c49 0 88 -13 115 -40c29 -30 40 -72 33 -126l-29 -209c-5 -33 -7 -68 -7 -105h-64c-1 23 0 49 5 76h-2c-45 -59 -104 -88 -178 -88c-45 0 -80 11 -106 34
c-29 25 -41 60 -35 103c15 108 119 162 313 162zM405 233h-34c-145 0 -223 -33 -232 -99c-4 -29 5 -51 26 -66c18 -13 42 -20 72 -20c46 0 84 15 113 44c27 27 43 63 50 107zM441 708h44c-9 -41 -28 -73 -59 -97c-30 -23 -66 -35 -107 -35s-74 12 -97 35
c-24 24 -34 56 -31 97h44c1 -25 10 -44 28 -58c17 -13 38 -20 64 -20c59 0 97 26 114 78z" />
    <glyph glyph-name="dcroat062" unicode="&#x110;" horiz-adv-x="741" 
d="M86 0l49 347h-73l7 54h73l44 307h235c97 0 177 -29 240 -88c70 -67 97 -155 82 -266s-68 -199 -157 -265c-79 -59 -168 -89 -265 -89h-235zM207 347l-40 -281h140c102 0 186 30 252 89c59 53 95 120 106 199s-6 146 -50 199c-49 59 -125 89 -227 89h-140l-34 -241h258
l-7 -54h-258z" />
    <glyph glyph-name="dcroat" unicode="&#x111;" horiz-adv-x="611" 
d="M174 102c28 -36 69 -54 122 -54c54 0 101 18 141 54c41 35 65 79 72 132s-4 97 -34 132c-31 36 -73 54 -127 54c-53 0 -99 -18 -137 -54c-36 -34 -58 -78 -66 -132c-7 -53 2 -97 29 -132zM675 554h-58l-78 -554h-66l11 78h-2c-49 -60 -114 -90 -195 -90
c-73 0 -129 23 -169 70s-55 105 -45 176s41 129 94 176s116 70 189 70c81 0 137 -30 170 -90h2l23 164h-185l11 59h182l20 143h66l-20 -143h61z" />
    <glyph glyph-name="Itilde" unicode="&#x128;" horiz-adv-x="264" 
d="M268 708l-100 -708h-72l100 708h72zM123 816h-43c27 69 66 104 115 104c18 0 41 -8 68 -23c30 -15 51 -23 62 -23c25 0 44 17 59 50h43c-27 -69 -65 -104 -114 -104c-15 0 -38 8 -68 23c-26 15 -47 23 -62 23c-25 0 -45 -17 -60 -50z" />
    <glyph glyph-name="Itilde111" unicode="&#x129;" horiz-adv-x="240" 
d="M219 468l-66 -468h-66l66 468h66zM83 576h-43c21 69 57 104 107 104c18 0 41 -8 69 -23c32 -15 53 -23 64 -23c25 0 44 17 56 50h43c-21 -69 -57 -104 -106 -104c-16 0 -39 8 -70 23c-28 15 -49 23 -64 23c-25 0 -44 -17 -56 -50z" />
    <glyph glyph-name="Imacron" unicode="&#x12a;" horiz-adv-x="264" 
d="M268 708l-100 -708h-72l100 708h72zM393 894l-8 -54h-270l8 54h270z" />
    <glyph glyph-name="dotlessi" unicode="&#x131;" horiz-adv-x="240" 
d="M219 468l-66 -468h-66l66 468h66z" />
    <glyph glyph-name="Lslash" unicode="&#x141;" horiz-adv-x="500" 
d="M268 708l-49 -346l242 186l-10 -70l-242 -186l-32 -226h330l-9 -66h-402l32 230l-92 -70l10 70l92 70l58 408h72z" />
    <glyph glyph-name="Lslash028" unicode="&#x142;" horiz-adv-x="240" 
d="M259 756l-42 -298l93 84l-10 -73l-93 -83l-54 -386h-66l45 317l-93 -83l10 73l93 82l51 367h66z" />
    <glyph glyph-name="OE" unicode="&#x152;" horiz-adv-x="944" 
d="M682 642l-34 -241h282l-9 -66h-282l-38 -269h306l-9 -66h-447c-129 0 -224 40 -284 120c-49 66 -67 144 -54 235c15 112 68 201 159 266c81 58 173 87 277 87h437l-10 -66h-294zM529 66l81 576h-57c-95 0 -175 -25 -240 -74c-69 -52 -110 -124 -123 -216
c-9 -65 2 -123 32 -174c44 -75 123 -112 236 -112h71z" />
    <glyph glyph-name="OE030" unicode="&#x153;" horiz-adv-x="922" 
d="M904 216h-351l-1 -9c-6 -44 1 -81 21 -111c21 -32 53 -48 94 -48c61 0 113 25 156 76l47 -41c-59 -63 -129 -95 -210 -95c-85 0 -140 35 -167 106c-57 -71 -127 -106 -210 -106c-71 0 -125 23 -162 70c-37 46 -50 105 -40 176s41 129 93 176c51 47 111 70 178 70
c91 0 152 -35 184 -105c55 70 120 105 193 105c67 -1 116 -23 149 -68c30 -42 40 -97 31 -166zM460 365c-25 37 -64 55 -116 55c-48 0 -90 -18 -126 -54c-36 -35 -58 -79 -65 -132s2 -97 28 -132c26 -36 63 -54 111 -54c52 0 96 19 131 56c33 34 54 77 61 130s-1 96 -24 131
zM561 270h285c6 44 -2 80 -24 108c-23 28 -56 42 -99 42c-40 0 -75 -14 -106 -43s-50 -64 -56 -107z" />
    <glyph glyph-name="Scaron" unicode="&#x160;" 
d="M584 640l-70 -49c-24 46 -66 69 -127 69c-41 0 -77 -10 -108 -31c-35 -23 -56 -56 -61 -97c-6 -42 8 -75 43 -99c16 -11 55 -28 117 -49c55 -20 94 -41 116 -62c33 -33 46 -78 38 -135c-9 -61 -41 -112 -96 -151c-51 -36 -106 -54 -166 -54c-97 0 -167 35 -208 105l72 47
c25 -57 75 -86 149 -86c39 0 74 11 107 33c37 25 58 57 63 96c6 44 -8 78 -42 102c-17 12 -57 29 -118 50c-56 19 -95 39 -117 60c-33 33 -45 78 -37 136c9 65 40 115 93 152c47 33 101 49 164 49c83 0 146 -29 188 -86zM551 883l-129 -144h-80l-89 144h66l68 -108l98 108
h66z" />
    <glyph glyph-name="Scaron054" unicode="&#x161;" horiz-adv-x="426" 
d="M435 396l-65 -39c-15 42 -46 63 -92 63c-26 0 -49 -5 -68 -16c-23 -13 -36 -31 -39 -54c-3 -21 3 -37 17 -48c11 -10 33 -19 65 -26l65 -16c32 -8 57 -23 75 -45c19 -23 26 -51 21 -83c-7 -48 -32 -85 -73 -110c-36 -23 -79 -34 -130 -34c-79 0 -135 30 -167 91l63 39
c23 -47 61 -70 113 -70c30 0 56 6 78 19c25 14 39 34 43 59c5 36 -22 61 -79 75l-62 15c-77 20 -111 61 -102 123c6 46 29 82 68 107c35 23 76 34 124 34c77 0 125 -28 145 -84zM462 708l-130 -144h-80l-88 144h66l67 -108l99 108h66z" />
    <glyph glyph-name="Utilde" unicode="&#x168;" horiz-adv-x="686" 
d="M702 708l-63 -444c-10 -75 -35 -136 -76 -185c-53 -65 -128 -97 -223 -97s-160 32 -195 97c-26 48 -34 110 -24 185l63 444h72l-62 -436c-12 -89 4 -151 47 -188c28 -24 64 -36 109 -36s84 12 119 36c54 37 87 99 99 188l62 436h72zM334 816h-43c27 69 66 104 115 104
c18 0 41 -8 68 -23c30 -15 51 -23 62 -23c25 0 44 17 59 50h43c-27 -69 -65 -104 -114 -104c-15 0 -38 8 -68 23c-26 15 -47 23 -62 23c-25 0 -45 -17 -60 -50z" />
    <glyph glyph-name="Utilde063" unicode="&#x169;" 
d="M478 0h-68c1 22 3 47 8 75h-2c-42 -58 -99 -87 -170 -87c-117 0 -167 61 -150 183l42 297h66l-37 -259c-7 -55 -4 -94 11 -119c15 -28 47 -42 94 -42c26 0 53 9 80 26c48 31 77 82 87 154l34 240h66l-52 -365zM237 576h-43c21 69 57 104 107 104c18 0 41 -8 69 -23
c32 -15 53 -23 64 -23c25 0 44 17 56 50h43c-21 -69 -57 -104 -106 -104c-16 0 -39 8 -70 23c-28 15 -49 23 -64 23c-25 0 -44 -17 -56 -50z" />
    <glyph glyph-name="Ydieresis" unicode="&#x178;" horiz-adv-x="574" 
d="M366 305l-43 -305h-72l43 305l-208 403h90l164 -334l258 334h90zM275 857c11 11 24 16 39 16s26 -5 34 -16c8 -10 11 -22 10 -35c-2 -13 -9 -25 -20 -35c-11 -11 -24 -16 -39 -16s-26 5 -34 16c-8 10 -11 22 -9 35c1 13 8 25 19 35zM467 857c11 11 24 16 39 16
s26 -5 34 -16c8 -10 11 -22 10 -35c-2 -13 -9 -25 -20 -35c-11 -11 -24 -16 -39 -16s-26 5 -34 16c-8 10 -11 22 -9 35c1 13 8 25 19 35z" />
    <glyph glyph-name="Zcaron" unicode="&#x17d;" 
d="M627 708l-9 -60l-495 -582h419l-9 -66h-510l8 60l496 582h-408l10 66h498zM551 883l-129 -144h-80l-89 144h66l68 -108l98 108h66z" />
    <glyph glyph-name="Zcaron061" unicode="&#x17e;" horiz-adv-x="426" 
d="M459 468l-7 -48l-325 -360h284l-8 -60h-380l7 48l324 360h-260l9 60h356zM462 708l-130 -144h-80l-88 144h66l67 -108l99 108h66z" />
    <glyph glyph-name="florin" unicode="&#x192;" 
d="M482 419l-8 -54h-119l-116 -352c-34 -101 -93 -152 -177 -152c-33 0 -59 8 -78 24l39 48c13 -8 30 -12 50 -12c45 0 79 35 101 106l110 338h-108l8 54h119l47 144c35 105 93 157 174 157c35 0 66 -10 91 -29l-41 -48c-17 11 -35 17 -54 17c-47 0 -83 -39 -107 -116
l-39 -125h108z" />
    <glyph glyph-name="Ohorn" unicode="&#x1a0;" horiz-adv-x="834" 
d="M711 568c-46 61 -113 92 -201 92s-164 -31 -227 -92c-59 -58 -95 -129 -107 -214s4 -156 47 -214c46 -61 113 -92 201 -92s164 31 227 92c59 58 95 129 107 214s-4 156 -47 214zM724 663c16 -12 31 -26 44 -42c60 -71 83 -160 68 -267s-62 -196 -143 -267
c-80 -70 -173 -105 -279 -105s-189 35 -248 105c-60 71 -83 160 -68 267s62 196 143 267c79 70 172 105 278 105c53 0 100 -9 142 -26c21 2 38 9 52 21c17 15 29 35 35 61l61 -1c-10 -47 -31 -82 -64 -105c-7 -5 -14 -9 -21 -13z" />
    <glyph glyph-name="Ohorn064" unicode="&#x1a1;" horiz-adv-x="593" 
d="M477 366c-28 36 -69 54 -122 54s-98 -18 -136 -54c-37 -35 -59 -79 -66 -132s2 -97 29 -132c27 -36 68 -54 121 -54s99 18 137 54c36 34 58 78 66 132c7 53 -2 97 -29 132zM523 421c3 -3 7 -7 10 -11c40 -47 55 -105 45 -176s-42 -129 -95 -176s-116 -70 -189 -70
c-72 0 -128 23 -168 70s-55 105 -45 176s41 129 94 176s116 70 188 70c37 0 71 -6 100 -19c23 2 42 9 57 22c17 15 29 35 35 61l61 -1c-10 -47 -31 -82 -64 -105c-9 -7 -19 -12 -29 -17z" />
    <glyph glyph-name="Uhorn" unicode="&#x1af;" horiz-adv-x="686" 
d="M694 651l-55 -387c-10 -75 -35 -136 -76 -185c-53 -65 -128 -97 -223 -97s-160 32 -195 97c-26 48 -34 110 -24 185l63 444h72l-62 -436c-12 -89 4 -151 47 -188c28 -24 64 -36 109 -36s84 12 119 36c54 37 87 99 99 188l62 436h60c8 3 15 8 21 13c17 15 29 35 35 61
l61 -1c-10 -47 -31 -82 -64 -105c-15 -11 -31 -19 -49 -25z" />
    <glyph glyph-name="Uhorn065" unicode="&#x1b0;" 
d="M531 412l-44 -309l-9 -103h-68c1 22 3 47 8 75h-2c-42 -58 -99 -87 -170 -87c-117 0 -167 61 -150 183l42 297h66l-37 -259c-7 -55 -4 -94 11 -119c15 -28 47 -42 94 -42c26 0 53 9 80 26c48 31 77 82 87 154l34 240h53c10 3 19 8 26 15c17 15 29 35 35 61l61 -1
c-10 -47 -31 -82 -64 -105c-16 -12 -34 -21 -53 -26z" />
    <glyph glyph-name="circumflex" unicode="&#x2c6;" horiz-adv-x="240" 
d="M260 708l88 -144h-66l-68 108l-98 -108h-66l130 144h80z" />
    <glyph glyph-name="caron" unicode="&#x2c7;" horiz-adv-x="240" 
d="M369 708l-130 -144h-80l-88 144h66l67 -108l99 108h66z" />
    <glyph glyph-name="uni02C9" unicode="&#x2c9;" horiz-adv-x="240" 
d="M347 654l-8 -54h-270l8 54h270z" />
    <glyph glyph-name="breve" unicode="&#x2d8;" horiz-adv-x="240" 
d="M323 708h44c-9 -41 -28 -73 -59 -97c-30 -23 -66 -35 -107 -35s-74 12 -97 35c-24 24 -34 56 -31 97h44c1 -25 10 -44 28 -58c17 -13 38 -20 64 -20c59 0 97 26 114 78z" />
    <glyph glyph-name="dotaccent" unicode="&#x2d9;" horiz-adv-x="240" 
d="M181 692c11 11 24 16 39 16s26 -5 34 -16c8 -10 11 -22 9 -35c-1 -13 -8 -25 -19 -35c-11 -11 -24 -16 -39 -16s-26 5 -34 16c-8 10 -11 22 -10 35c2 13 9 25 20 35z" />
    <glyph glyph-name="ring" unicode="&#x2da;" horiz-adv-x="240" 
d="M269 582c-21 -18 -44 -27 -71 -27c-26 0 -47 9 -64 27c-16 19 -22 41 -19 68c4 27 17 49 39 68c21 18 45 27 71 27s47 -9 64 -27c16 -19 22 -41 18 -68c-3 -27 -16 -49 -38 -68zM260 692c-10 11 -23 17 -40 17s-32 -6 -45 -17s-21 -25 -24 -42c-2 -17 2 -31 12 -42
s23 -17 40 -17s32 6 45 17s21 25 23 42c3 17 -1 31 -11 42z" />
    <glyph glyph-name="ogonek" unicode="&#x2db;" horiz-adv-x="240" 
d="M171 -141l14 -40c-29 -24 -61 -36 -95 -36c-25 0 -45 8 -60 23c-16 17 -22 37 -19 62c7 45 43 91 109 138h48c-59 -51 -90 -92 -94 -121c-2 -14 1 -25 10 -34c8 -9 19 -14 33 -14c20 0 38 7 54 22z" />
    <glyph glyph-name="tilde" unicode="&#x2dc;" horiz-adv-x="240" 
d="M82 576h-43c21 69 57 104 107 104c18 0 41 -8 69 -23c32 -15 53 -23 64 -23c25 0 44 17 56 50h43c-21 -69 -57 -104 -106 -104c-16 0 -39 8 -70 23c-28 15 -49 23 -64 23c-25 0 -44 -17 -56 -50z" />
    <glyph glyph-name="hungarumlaut" unicode="&#x2dd;" horiz-adv-x="240" 
d="M216 708l-154 -144h-59l122 144h91zM416 708l-153 -144h-59l121 144h91z" />
    <glyph glyph-name="gravecomb" unicode="&#x300;" horiz-adv-x="0" 
d="M-90 564l-102 144h91l70 -144h-59z" />
    <glyph glyph-name="acutecomb" unicode="&#x301;" horiz-adv-x="0" 
d="M14 708l-162 -144h-59l130 144h91z" />
    <glyph glyph-name="tildecomb" unicode="&#x303;" horiz-adv-x="0" 
d="M-206 576h-43c27 69 66 104 115 104c18 0 41 -8 68 -23c30 -15 51 -23 62 -23c25 0 44 17 59 50h43c-27 -69 -65 -104 -114 -104c-15 0 -38 8 -68 23c-26 15 -47 23 -62 23c-25 0 -45 -17 -60 -50z" />
    <glyph glyph-name="hookabovecomb" unicode="&#x309;" horiz-adv-x="0" 
d="M391 547h-45c3 27 13 47 31 59c16 13 25 23 27 32c1 7 0 12 -4 16c-3 5 -9 7 -16 7s-13 -2 -18 -6c-6 -5 -12 -14 -18 -28l-43 5c9 27 22 45 38 56c15 11 32 16 51 16s34 -6 44 -17c11 -12 14 -28 10 -47c-5 -21 -18 -40 -40 -57c-10 -7 -16 -19 -17 -36z" />
    <glyph glyph-name="uni031B" unicode="&#x31b;" horiz-adv-x="482" 
d="M799 790l61 -1c-10 -47 -31 -82 -64 -105c-31 -23 -68 -34 -112 -34l13 57c27 0 49 7 67 22c17 14 29 34 35 61z" />
    <glyph glyph-name="dotbelowcomb" unicode="&#x323;" horiz-adv-x="0" 
d="M-223 -200c-13 -11 -27 -17 -42 -17s-27 6 -36 17c-7 10 -10 22 -7 37s11 27 23 38c13 11 28 16 43 16s27 -5 35 -16s10 -23 7 -38s-10 -27 -23 -37z" />
    <glyph glyph-name="_251" unicode="&#x3a9;" horiz-adv-x="722" 
d="M211 55v3c-80 81 -111 188 -93 319c14 99 54 181 121 245c65 63 141 94 226 94c86 0 152 -33 198 -100c44 -63 60 -141 47 -234c-19 -137 -81 -245 -185 -324v-3h153l-8 -55h-236l6 41c113 69 180 179 201 329c11 74 1 139 -29 195c-34 63 -86 95 -156 95
c-69 0 -130 -28 -181 -85c-49 -55 -80 -124 -91 -207c-11 -71 -4 -138 20 -201c21 -56 50 -98 89 -126l-6 -41h-236l8 55h152z" />
    <glyph glyph-name="_231" unicode="&#x3bc;" 
d="M40 -228l98 696h66l-37 -259c-8 -59 -4 -100 11 -124c15 -25 47 -37 94 -37c41 0 77 16 108 47c31 33 51 77 59 133l34 240h66l-52 -365l-9 -103h-71l11 76h-2c-45 -59 -101 -88 -170 -88c-45 0 -81 10 -106 29l-34 -245h-66z" />
    <glyph glyph-name="pi" unicode="&#x3c0;" horiz-adv-x="566" 
d="M604 466h-83l-44 -318c-9 -60 -11 -109 -6 -148h-64c-9 20 -8 67 3 141l45 325h-189c-37 -205 -83 -361 -140 -466h-65c59 119 106 275 139 466c-53 0 -91 -4 -115 -13l-5 45c31 17 80 26 145 26h395z" />
    <glyph glyph-name="A.dotbl" unicode="&#x1ea0;" horiz-adv-x="686" 
d="M188 186l-104 -186h-84l408 708h70l208 -708h-84l-52 186h-362zM431 624l-207 -372h307zM351 -200c-13 -11 -27 -17 -42 -17s-27 6 -36 17c-7 10 -10 22 -7 37s11 27 23 38c13 11 28 16 43 16s27 -5 35 -16s10 -23 7 -38s-10 -27 -23 -37z" />
    <glyph glyph-name="A.dotbl066" unicode="&#x1ea1;" horiz-adv-x="519" 
d="M379 287h33l2 12c11 81 -24 121 -103 121c-55 0 -105 -18 -151 -55l-33 47c51 45 120 68 207 68c49 0 88 -13 115 -40c29 -30 40 -72 33 -126l-29 -209c-5 -33 -7 -68 -7 -105h-64c-1 23 0 49 5 76h-2c-45 -59 -104 -88 -178 -88c-45 0 -80 11 -106 34
c-29 25 -41 60 -35 103c15 108 119 162 313 162zM405 233h-34c-145 0 -223 -33 -232 -99c-4 -29 5 -51 26 -66c18 -13 42 -20 72 -20c46 0 84 15 113 44c27 27 43 63 50 107zM255 -200c-13 -11 -27 -17 -42 -17s-27 6 -36 17c-7 10 -10 22 -7 37s11 27 23 38
c13 11 28 16 43 16s27 -5 35 -16s10 -23 7 -38s-10 -27 -23 -37z" />
    <glyph glyph-name="A.hook" unicode="&#x1ea2;" horiz-adv-x="686" 
d="M188 186l-104 -186h-84l408 708h70l208 -708h-84l-52 186h-362zM431 624l-207 -372h307zM478 787h-45c3 27 13 47 31 59c16 13 25 23 27 32c1 7 0 12 -4 16c-3 5 -9 7 -16 7s-13 -2 -18 -6c-6 -5 -12 -14 -18 -28l-43 5c9 27 22 45 38 56c15 11 32 16 51 16s34 -6 44 -17
c11 -12 14 -28 10 -47c-5 -21 -18 -40 -40 -57c-10 -7 -16 -19 -17 -36z" />
    <glyph glyph-name="A.hook067" unicode="&#x1ea3;" horiz-adv-x="519" 
d="M379 287h33l2 12c11 81 -24 121 -103 121c-55 0 -105 -18 -151 -55l-33 47c51 45 120 68 207 68c49 0 88 -13 115 -40c29 -30 40 -72 33 -126l-29 -209c-5 -33 -7 -68 -7 -105h-64c-1 23 0 49 5 76h-2c-45 -59 -104 -88 -178 -88c-45 0 -80 11 -106 34
c-29 25 -41 60 -35 103c15 108 119 162 313 162zM405 233h-34c-145 0 -223 -33 -232 -99c-4 -29 5 -51 26 -66c18 -13 42 -20 72 -20c46 0 84 15 113 44c27 27 43 63 50 107zM349 547h-45c3 27 13 47 31 59c16 13 25 23 27 32c1 7 0 12 -4 16c-3 5 -9 7 -16 7s-13 -2 -18 -6
c-6 -5 -12 -14 -18 -28l-43 5c9 27 22 45 38 56c15 11 32 16 51 16s34 -6 44 -17c11 -12 14 -28 10 -47c-5 -21 -18 -40 -40 -57c-10 -7 -16 -19 -17 -36z" />
    <glyph glyph-name="Acir.acute" unicode="&#x1ea4;" horiz-adv-x="686" 
d="M188 186l-104 -186h-84l408 708h70l208 -708h-84l-52 186h-362zM431 624l-207 -372h307zM518 882l79 -144h-66l-60 108l-106 -108h-66l139 144h80zM792 998l-163 -144h-59l131 144h91z" />
    <glyph glyph-name="Acir.acute068" unicode="&#x1ea5;" horiz-adv-x="519" 
d="M379 287h33l2 12c11 81 -24 121 -103 121c-55 0 -105 -18 -151 -55l-33 47c51 45 120 68 207 68c49 0 88 -13 115 -40c29 -30 40 -72 33 -126l-29 -209c-5 -33 -7 -68 -7 -105h-64c-1 23 0 49 5 76h-2c-45 -59 -104 -88 -178 -88c-45 0 -80 11 -106 34
c-29 25 -41 60 -35 103c15 108 119 162 313 162zM405 233h-34c-145 0 -223 -33 -232 -99c-4 -29 5 -51 26 -66c18 -13 42 -20 72 -20c46 0 84 15 113 44c27 27 43 63 50 107zM397 708l88 -144h-66l-68 108l-98 -108h-66l130 144h80zM656 834l-153 -144h-59l121 144h91z" />
    <glyph glyph-name="Acir.grave" unicode="&#x1ea6;" horiz-adv-x="686" 
d="M188 186l-104 -186h-84l408 708h70l208 -708h-84l-52 186h-362zM431 624l-207 -372h307zM518 882l79 -144h-66l-60 108l-106 -108h-66l139 144h80zM328 856l-102 144h91l70 -144h-59z" />
    <glyph glyph-name="Acir.grave069" unicode="&#x1ea7;" horiz-adv-x="519" 
d="M379 287h33l2 12c11 81 -24 121 -103 121c-55 0 -105 -18 -151 -55l-33 47c51 45 120 68 207 68c49 0 88 -13 115 -40c29 -30 40 -72 33 -126l-29 -209c-5 -33 -7 -68 -7 -105h-64c-1 23 0 49 5 76h-2c-45 -59 -104 -88 -178 -88c-45 0 -80 11 -106 34
c-29 25 -41 60 -35 103c15 108 119 162 313 162zM405 233h-34c-145 0 -223 -33 -232 -99c-4 -29 5 -51 26 -66c18 -13 42 -20 72 -20c46 0 84 15 113 44c27 27 43 63 50 107zM397 708l88 -144h-66l-68 108l-98 -108h-66l130 144h80zM189 696l-111 144h91l79 -144h-59z" />
    <glyph glyph-name="Acir.hook" unicode="&#x1ea8;" horiz-adv-x="686" 
d="M188 186l-104 -186h-84l408 708h70l208 -708h-84l-52 186h-362zM431 624l-207 -372h307zM518 882l79 -144h-66l-60 108l-106 -108h-66l139 144h80zM622 865h-45c3 27 13 47 30 59c16 13 25 23 27 32c1 7 0 12 -3 16c-3 5 -9 7 -16 7s-13 -2 -18 -6c-7 -5 -13 -14 -18 -28
l-43 5c9 27 21 45 38 56c15 11 31 16 50 16s34 -6 45 -17c11 -12 14 -28 10 -47c-5 -21 -18 -40 -40 -57c-11 -7 -16 -19 -17 -36z" />
    <glyph glyph-name="Acir.hook070" unicode="&#x1ea9;" horiz-adv-x="519" 
d="M379 287h33l2 12c11 81 -24 121 -103 121c-55 0 -105 -18 -151 -55l-33 47c51 45 120 68 207 68c49 0 88 -13 115 -40c29 -30 40 -72 33 -126l-29 -209c-5 -33 -7 -68 -7 -105h-64c-1 23 0 49 5 76h-2c-45 -59 -104 -88 -178 -88c-45 0 -80 11 -106 34
c-29 25 -41 60 -35 103c15 108 119 162 313 162zM405 233h-34c-145 0 -223 -33 -232 -99c-4 -29 5 -51 26 -66c18 -13 42 -20 72 -20c46 0 84 15 113 44c27 27 43 63 50 107zM397 708l88 -144h-66l-68 108l-98 -108h-66l130 144h80zM502 687h-45c3 27 13 47 31 59
c16 13 25 23 27 32c1 7 0 12 -4 16c-3 5 -9 7 -16 7s-13 -2 -18 -6c-6 -5 -12 -14 -18 -28l-43 5c9 27 22 45 38 56c15 11 32 16 51 16s34 -6 44 -17c11 -12 14 -28 10 -47c-5 -21 -18 -40 -40 -57c-10 -7 -16 -19 -17 -36z" />
    <glyph glyph-name="Acir.tilde" unicode="&#x1eaa;" horiz-adv-x="686" 
d="M188 186l-104 -186h-84l408 708h70l208 -708h-84l-52 186h-362zM431 624l-207 -372h307zM518 882l79 -144h-66l-60 108l-106 -108h-66l139 144h80zM391 899h-43c27 69 65 104 114 104c18 0 41 -8 68 -23c30 -15 51 -23 62 -23c25 0 45 17 60 50h43
c-27 -69 -65 -104 -114 -104c-15 0 -38 8 -68 23c-26 15 -47 23 -62 23c-25 0 -45 -17 -60 -50z" />
    <glyph glyph-name="Acir.tilde071" unicode="&#x1eab;" horiz-adv-x="519" 
d="M379 287h33l2 12c11 81 -24 121 -103 121c-55 0 -105 -18 -151 -55l-33 47c51 45 120 68 207 68c49 0 88 -13 115 -40c29 -30 40 -72 33 -126l-29 -209c-5 -33 -7 -68 -7 -105h-64c-1 23 0 49 5 76h-2c-45 -59 -104 -88 -178 -88c-45 0 -80 11 -106 34
c-29 25 -41 60 -35 103c15 108 119 162 313 162zM405 233h-34c-145 0 -223 -33 -232 -99c-4 -29 5 -51 26 -66c18 -13 42 -20 72 -20c46 0 84 15 113 44c27 27 43 63 50 107zM397 708l88 -144h-66l-68 108l-98 -108h-66l130 144h80zM288 741h-43c21 69 57 104 107 104
c18 0 41 -8 69 -23c32 -15 53 -23 64 -23c25 0 44 17 56 50h43c-21 -69 -57 -104 -106 -104c-16 0 -39 8 -70 23c-28 15 -49 23 -64 23c-25 0 -44 -17 -56 -50z" />
    <glyph glyph-name="Acir.dotbl" unicode="&#x1eac;" horiz-adv-x="686" 
d="M188 186l-104 -186h-84l408 708h70l208 -708h-84l-52 186h-362zM431 624l-207 -372h307zM518 882l79 -144h-66l-60 108l-106 -108h-66l139 144h80zM351 -200c-13 -11 -27 -17 -42 -17s-27 6 -36 17c-7 10 -10 22 -7 37s11 27 23 38c13 11 28 16 43 16s27 -5 35 -16
s10 -23 7 -38s-10 -27 -23 -37z" />
    <glyph glyph-name="Acir.dotbl072" unicode="&#x1ead;" horiz-adv-x="519" 
d="M379 287h33l2 12c11 81 -24 121 -103 121c-55 0 -105 -18 -151 -55l-33 47c51 45 120 68 207 68c49 0 88 -13 115 -40c29 -30 40 -72 33 -126l-29 -209c-5 -33 -7 -68 -7 -105h-64c-1 23 0 49 5 76h-2c-45 -59 -104 -88 -178 -88c-45 0 -80 11 -106 34
c-29 25 -41 60 -35 103c15 108 119 162 313 162zM405 233h-34c-145 0 -223 -33 -232 -99c-4 -29 5 -51 26 -66c18 -13 42 -20 72 -20c46 0 84 15 113 44c27 27 43 63 50 107zM397 708l88 -144h-66l-68 108l-98 -108h-66l130 144h80zM255 -200c-13 -11 -27 -17 -42 -17
s-27 6 -36 17c-7 10 -10 22 -7 37s11 27 23 38c13 11 28 16 43 16s27 -5 35 -16s10 -23 7 -38s-10 -27 -23 -37z" />
    <glyph glyph-name="Abrv.acute" unicode="&#x1eae;" horiz-adv-x="686" 
d="M188 186l-104 -186h-84l408 708h70l208 -708h-84l-52 186h-362zM431 624l-207 -372h307zM587 897h44c-11 -41 -33 -73 -66 -97c-31 -23 -68 -35 -109 -35s-73 12 -95 35c-22 24 -30 56 -24 97h44c-2 -52 27 -78 86 -78c60 0 100 26 120 78zM678 1049l-163 -144h-59
l131 144h91z" />
    <glyph glyph-name="Abrv.acute073" unicode="&#x1eaf;" horiz-adv-x="519" 
d="M379 287h33l2 12c11 81 -24 121 -103 121c-55 0 -105 -18 -151 -55l-33 47c51 45 120 68 207 68c49 0 88 -13 115 -40c29 -30 40 -72 33 -126l-29 -209c-5 -33 -7 -68 -7 -105h-64c-1 23 0 49 5 76h-2c-45 -59 -104 -88 -178 -88c-45 0 -80 11 -106 34
c-29 25 -41 60 -35 103c15 108 119 162 313 162zM405 233h-34c-145 0 -223 -33 -232 -99c-4 -29 5 -51 26 -66c18 -13 42 -20 72 -20c46 0 84 15 113 44c27 27 43 63 50 107zM441 708h44c-9 -41 -28 -73 -59 -97c-30 -23 -66 -35 -107 -35s-74 12 -97 35
c-24 24 -34 56 -31 97h44c1 -25 10 -44 28 -58c17 -13 38 -20 64 -20c59 0 97 26 114 78zM518 888l-153 -144h-59l121 144h91z" />
    <glyph glyph-name="Abrv.grave" unicode="&#x1eb0;" horiz-adv-x="686" 
d="M188 186l-104 -186h-84l408 708h70l208 -708h-84l-52 186h-362zM431 624l-207 -372h307zM575 897h44c-11 -41 -33 -73 -66 -97c-31 -23 -68 -35 -109 -35s-73 12 -95 35c-22 24 -30 56 -24 97h44c-2 -52 27 -78 86 -78c60 0 100 26 120 78zM454 906l-102 144h91l70 -144
h-59z" />
    <glyph glyph-name="Abrv.grave074" unicode="&#x1eb1;" horiz-adv-x="519" 
d="M379 287h33l2 12c11 81 -24 121 -103 121c-55 0 -105 -18 -151 -55l-33 47c51 45 120 68 207 68c49 0 88 -13 115 -40c29 -30 40 -72 33 -126l-29 -209c-5 -33 -7 -68 -7 -105h-64c-1 23 0 49 5 76h-2c-45 -59 -104 -88 -178 -88c-45 0 -80 11 -106 34
c-29 25 -41 60 -35 103c15 108 119 162 313 162zM405 233h-34c-145 0 -223 -33 -232 -99c-4 -29 5 -51 26 -66c18 -13 42 -20 72 -20c46 0 84 15 113 44c27 27 43 63 50 107zM441 708h44c-9 -41 -28 -73 -59 -97c-30 -23 -66 -35 -107 -35s-74 12 -97 35
c-24 24 -34 56 -31 97h44c1 -25 10 -44 28 -58c17 -13 38 -20 64 -20c59 0 97 26 114 78zM331 737l-111 144h91l79 -144h-59z" />
    <glyph glyph-name="Abrv.hook" unicode="&#x1eb2;" horiz-adv-x="686" 
d="M188 186l-104 -186h-84l408 708h70l208 -708h-84l-52 186h-362zM431 624l-207 -372h307zM575 896h44c-11 -41 -33 -73 -65 -97c-32 -23 -69 -35 -110 -35s-73 12 -94 35c-23 24 -31 56 -25 97h44c-1 -52 28 -78 87 -78c60 0 100 26 119 78zM481 864h-45c1 21 10 36 27 45
c15 9 24 17 25 24c1 5 0 9 -4 12c-3 3 -9 5 -16 5s-13 -2 -18 -5c-6 -3 -12 -10 -17 -21l-43 4c8 20 20 34 35 42s31 12 50 12s34 -4 45 -13s16 -20 13 -35c-4 -16 -17 -30 -38 -43c-9 -5 -14 -14 -14 -27z" />
    <glyph glyph-name="Abrv.hook075" unicode="&#x1eb3;" horiz-adv-x="519" 
d="M379 287h33l2 12c11 81 -24 121 -103 121c-55 0 -105 -18 -151 -55l-33 47c51 45 120 68 207 68c49 0 88 -13 115 -40c29 -30 40 -72 33 -126l-29 -209c-5 -33 -7 -68 -7 -105h-64c-1 23 0 49 5 76h-2c-45 -59 -104 -88 -178 -88c-45 0 -80 11 -106 34
c-29 25 -41 60 -35 103c15 108 119 162 313 162zM405 233h-34c-145 0 -223 -33 -232 -99c-4 -29 5 -51 26 -66c18 -13 42 -20 72 -20c46 0 84 15 113 44c27 27 43 63 50 107zM441 708h44c-9 -41 -28 -73 -59 -97c-30 -23 -66 -35 -107 -35s-74 12 -97 35
c-24 24 -34 56 -31 97h44c1 -25 10 -44 28 -58c17 -13 38 -20 64 -20c59 0 97 26 114 78zM382 733h-45c3 27 13 47 31 59c16 13 25 23 27 32c1 7 0 12 -4 16c-3 5 -9 7 -16 7s-13 -2 -18 -6c-6 -5 -12 -14 -18 -28l-43 5c9 27 22 45 38 56c15 11 32 16 51 16s34 -6 44 -17
c11 -12 14 -28 10 -47c-5 -21 -18 -40 -40 -57c-10 -7 -16 -19 -17 -36z" />
    <glyph glyph-name="Abrv.tilde" unicode="&#x1eb4;" horiz-adv-x="686" 
d="M188 186l-104 -186h-84l408 708h70l208 -708h-84l-52 186h-362zM431 624l-207 -372h307zM576 898h44c-11 -41 -33 -73 -65 -97c-32 -23 -69 -35 -110 -35s-73 12 -94 35c-23 24 -31 56 -25 97h44c-1 -52 28 -78 87 -78c60 0 100 26 119 78zM370 925h-43
c27 69 65 104 114 104c18 0 41 -8 68 -23c30 -15 51 -23 62 -23c25 0 45 17 60 50h43c-27 -69 -65 -104 -114 -104c-15 0 -38 8 -68 23c-26 15 -47 23 -62 23c-25 0 -45 -17 -60 -50z" />
    <glyph glyph-name="Abrv.tilde076" unicode="&#x1eb5;" horiz-adv-x="519" 
d="M379 287h33l2 12c11 81 -24 121 -103 121c-55 0 -105 -18 -151 -55l-33 47c51 45 120 68 207 68c49 0 88 -13 115 -40c29 -30 40 -72 33 -126l-29 -209c-5 -33 -7 -68 -7 -105h-64c-1 23 0 49 5 76h-2c-45 -59 -104 -88 -178 -88c-45 0 -80 11 -106 34
c-29 25 -41 60 -35 103c15 108 119 162 313 162zM405 233h-34c-145 0 -223 -33 -232 -99c-4 -29 5 -51 26 -66c18 -13 42 -20 72 -20c46 0 84 15 113 44c27 27 43 63 50 107zM441 708h44c-9 -41 -28 -73 -59 -97c-30 -23 -66 -35 -107 -35s-74 12 -97 35
c-24 24 -34 56 -31 97h44c1 -25 10 -44 28 -58c17 -13 38 -20 64 -20c59 0 97 26 114 78zM247 735h-43c21 69 57 104 107 104c18 0 41 -8 69 -23c32 -15 53 -23 64 -23c25 0 44 17 56 50h43c-21 -69 -57 -104 -106 -104c-16 0 -39 8 -70 23c-28 15 -49 23 -64 23
c-25 0 -44 -17 -56 -50z" />
    <glyph glyph-name="Abrv.dotbl" unicode="&#x1eb6;" horiz-adv-x="686" 
d="M188 186l-104 -186h-84l408 708h70l208 -708h-84l-52 186h-362zM431 624l-207 -372h307zM577 904h44c-11 -41 -32 -73 -65 -97c-32 -23 -69 -35 -110 -35s-73 12 -94 35c-22 24 -30 56 -25 97h44c-1 -52 28 -78 87 -78c60 0 100 26 119 78zM351 -200
c-13 -11 -27 -17 -42 -17s-27 6 -36 17c-7 10 -10 22 -7 37s11 27 23 38c13 11 28 16 43 16s27 -5 35 -16s10 -23 7 -38s-10 -27 -23 -37z" />
    <glyph glyph-name="Abrv.dotbl077" unicode="&#x1eb7;" horiz-adv-x="519" 
d="M379 287h33l2 12c11 81 -24 121 -103 121c-55 0 -105 -18 -151 -55l-33 47c51 45 120 68 207 68c49 0 88 -13 115 -40c29 -30 40 -72 33 -126l-29 -209c-5 -33 -7 -68 -7 -105h-64c-1 23 0 49 5 76h-2c-45 -59 -104 -88 -178 -88c-45 0 -80 11 -106 34
c-29 25 -41 60 -35 103c15 108 119 162 313 162zM405 233h-34c-145 0 -223 -33 -232 -99c-4 -29 5 -51 26 -66c18 -13 42 -20 72 -20c46 0 84 15 113 44c27 27 43 63 50 107zM441 708h44c-9 -41 -28 -73 -59 -97c-30 -23 -66 -35 -107 -35s-74 12 -97 35
c-24 24 -34 56 -31 97h44c1 -25 10 -44 28 -58c17 -13 38 -20 64 -20c59 0 97 26 114 78zM255 -200c-13 -11 -27 -17 -42 -17s-27 6 -36 17c-7 10 -10 22 -7 37s11 27 23 38c13 11 28 16 43 16s27 -5 35 -16s10 -23 7 -38s-10 -27 -23 -37z" />
    <glyph glyph-name="E.dotbl" unicode="&#x1eb8;" horiz-adv-x="593" 
d="M215 335l-38 -269h379l-9 -66h-451l100 708h439l-10 -66h-367l-34 -241h343l-9 -66h-343zM329 -200c-13 -11 -27 -17 -42 -17s-27 6 -36 17c-7 10 -10 22 -7 37s11 27 23 38c13 11 28 16 43 16s27 -5 35 -16s10 -23 7 -38s-10 -27 -23 -37z" />
    <glyph glyph-name="E.dotbl078" unicode="&#x1eb9;" 
d="M538 216h-390c-3 -47 10 -87 38 -119c28 -33 65 -49 111 -49c66 0 120 27 161 81l45 -42c-61 -66 -133 -99 -215 -99c-69 0 -124 23 -163 70s-54 105 -44 176c10 70 41 129 93 176c51 47 110 70 177 70c69 -1 121 -24 156 -69c33 -44 45 -99 36 -165zM158 270h316
c6 45 -2 81 -25 108c-24 28 -59 42 -106 42c-43 0 -83 -15 -121 -46c-37 -31 -59 -65 -64 -104zM286 -200c-13 -11 -27 -17 -42 -17s-27 6 -36 17c-7 10 -10 22 -7 37s11 27 23 38c13 11 28 16 43 16s27 -5 35 -16s10 -23 7 -38s-10 -27 -23 -37z" />
    <glyph glyph-name="E.hook" unicode="&#x1eba;" horiz-adv-x="593" 
d="M215 335l-38 -269h379l-9 -66h-451l100 708h439l-10 -66h-367l-34 -241h343l-9 -66h-343zM457 787h-45c3 27 13 47 31 59c16 13 25 23 27 32c1 7 0 12 -4 16c-3 5 -9 7 -16 7s-13 -2 -18 -6c-6 -5 -12 -14 -18 -28l-43 5c9 27 22 45 38 56c15 11 32 16 51 16
s34 -6 44 -17c11 -12 14 -28 10 -47c-5 -21 -18 -40 -40 -57c-10 -7 -16 -19 -17 -36z" />
    <glyph glyph-name="E.hook079" unicode="&#x1ebb;" 
d="M538 216h-390c-3 -47 10 -87 38 -119c28 -33 65 -49 111 -49c66 0 120 27 161 81l45 -42c-61 -66 -133 -99 -215 -99c-69 0 -124 23 -163 70s-54 105 -44 176c10 70 41 129 93 176c51 47 110 70 177 70c69 -1 121 -24 156 -69c33 -44 45 -99 36 -165zM158 270h316
c6 45 -2 81 -25 108c-24 28 -59 42 -106 42c-43 0 -83 -15 -121 -46c-37 -31 -59 -65 -64 -104zM380 547h-45c3 27 13 47 31 59c16 13 25 23 27 32c1 7 0 12 -4 16c-3 5 -9 7 -16 7s-13 -2 -18 -6c-6 -5 -12 -14 -18 -28l-43 5c9 27 22 45 38 56c15 11 32 16 51 16
s34 -6 44 -17c11 -12 14 -28 10 -47c-5 -21 -18 -40 -40 -57c-10 -7 -16 -19 -17 -36z" />
    <glyph glyph-name="E.tilde" unicode="&#x1ebc;" horiz-adv-x="593" 
d="M215 335l-38 -269h379l-9 -66h-451l100 708h439l-10 -66h-367l-34 -241h343l-9 -66h-343zM313 816h-43c27 69 66 104 115 104c18 0 41 -8 68 -23c30 -15 51 -23 62 -23c25 0 44 17 59 50h43c-27 -69 -65 -104 -114 -104c-15 0 -38 8 -68 23c-26 15 -47 23 -62 23
c-25 0 -45 -17 -60 -50z" />
    <glyph glyph-name="E.tilde080" unicode="&#x1ebd;" 
d="M538 216h-390c-3 -47 10 -87 38 -119c28 -33 65 -49 111 -49c66 0 120 27 161 81l45 -42c-61 -66 -133 -99 -215 -99c-69 0 -124 23 -163 70s-54 105 -44 176c10 70 41 129 93 176c51 47 110 70 177 70c69 -1 121 -24 156 -69c33 -44 45 -99 36 -165zM158 270h316
c6 45 -2 81 -25 108c-24 28 -59 42 -106 42c-43 0 -83 -15 -121 -46c-37 -31 -59 -65 -64 -104zM241 576h-43c21 69 57 104 107 104c18 0 41 -8 69 -23c32 -15 53 -23 64 -23c25 0 44 17 56 50h43c-21 -69 -57 -104 -106 -104c-16 0 -39 8 -70 23c-28 15 -49 23 -64 23
c-25 0 -44 -17 -56 -50z" />
    <glyph glyph-name="Ecir.acute" unicode="&#x1ebe;" horiz-adv-x="593" 
d="M215 335l-38 -269h379l-9 -66h-451l100 708h439l-10 -66h-367l-34 -241h343l-9 -66h-343zM482 882l79 -144h-66l-60 108l-106 -108h-66l139 144h80zM756 998l-163 -144h-59l131 144h91z" />
    <glyph glyph-name="Ecir.acute081" unicode="&#x1ebf;" 
d="M538 216h-390c-3 -47 10 -87 38 -119c28 -33 65 -49 111 -49c66 0 120 27 161 81l45 -42c-61 -66 -133 -99 -215 -99c-69 0 -124 23 -163 70s-54 105 -44 176c10 70 41 129 93 176c51 47 110 70 177 70c69 -1 121 -24 156 -69c33 -44 45 -99 36 -165zM158 270h316
c6 45 -2 81 -25 108c-24 28 -59 42 -106 42c-43 0 -83 -15 -121 -46c-37 -31 -59 -65 -64 -104zM428 708l88 -144h-66l-68 108l-98 -108h-66l130 144h80zM696 831l-153 -144h-59l121 144h91z" />
    <glyph glyph-name="Ecir.grave" unicode="&#x1ec0;" horiz-adv-x="593" 
d="M215 335l-38 -269h379l-9 -66h-451l100 708h439l-10 -66h-367l-34 -241h343l-9 -66h-343zM484 882l79 -144h-66l-60 108l-106 -108h-66l139 144h80zM294 856l-102 144h91l70 -144h-59z" />
    <glyph glyph-name="Ecir.grave082" unicode="&#x1ec1;" 
d="M538 216h-390c-3 -47 10 -87 38 -119c28 -33 65 -49 111 -49c66 0 120 27 161 81l45 -42c-61 -66 -133 -99 -215 -99c-69 0 -124 23 -163 70s-54 105 -44 176c10 70 41 129 93 176c51 47 110 70 177 70c69 -1 121 -24 156 -69c33 -44 45 -99 36 -165zM158 270h316
c6 45 -2 81 -25 108c-24 28 -59 42 -106 42c-43 0 -83 -15 -121 -46c-37 -31 -59 -65 -64 -104zM428 708l88 -144h-66l-68 108l-98 -108h-66l130 144h80zM230 698l-111 144h91l79 -144h-59z" />
    <glyph glyph-name="Ecir.hook" unicode="&#x1ec2;" horiz-adv-x="593" 
d="M215 335l-38 -269h379l-9 -66h-451l100 708h439l-10 -66h-367l-34 -241h343l-9 -66h-343zM481 882l79 -144h-66l-60 108l-106 -108h-66l139 144h80zM585 865h-45c3 27 13 47 30 59c16 13 25 23 27 32c1 7 0 12 -3 16c-3 5 -9 7 -16 7s-13 -2 -18 -6
c-7 -5 -13 -14 -18 -28l-43 5c9 27 21 45 38 56c15 11 31 16 50 16s34 -6 45 -17c11 -12 14 -28 10 -47c-5 -21 -18 -40 -40 -57c-11 -7 -16 -19 -17 -36z" />
    <glyph glyph-name="Ecir.hook083" unicode="&#x1ec3;" 
d="M538 216h-390c-3 -47 10 -87 38 -119c28 -33 65 -49 111 -49c66 0 120 27 161 81l45 -42c-61 -66 -133 -99 -215 -99c-69 0 -124 23 -163 70s-54 105 -44 176c10 70 41 129 93 176c51 47 110 70 177 70c69 -1 121 -24 156 -69c33 -44 45 -99 36 -165zM158 270h316
c6 45 -2 81 -25 108c-24 28 -59 42 -106 42c-43 0 -83 -15 -121 -46c-37 -31 -59 -65 -64 -104zM428 708l88 -144h-66l-68 108l-98 -108h-66l130 144h80zM525 690h-45c3 27 13 47 31 59c16 13 25 23 27 32c1 7 0 12 -4 16c-3 5 -9 7 -16 7s-13 -2 -18 -6
c-6 -5 -12 -14 -18 -28l-43 5c9 27 22 45 38 56c15 11 32 16 51 16s34 -6 44 -17c11 -12 14 -28 10 -47c-5 -21 -18 -40 -40 -57c-10 -7 -16 -19 -17 -36z" />
    <glyph glyph-name="Ecir.tilde" unicode="&#x1ec4;" horiz-adv-x="593" 
d="M215 335l-38 -269h379l-9 -66h-451l100 708h439l-10 -66h-367l-34 -241h343l-9 -66h-343zM481 882l79 -144h-66l-60 108l-106 -108h-66l139 144h80zM354 899h-43c27 69 65 104 114 104c18 0 41 -8 68 -23c30 -15 51 -23 62 -23c25 0 45 17 60 50h43
c-27 -69 -65 -104 -114 -104c-15 0 -38 8 -68 23c-26 15 -47 23 -62 23c-25 0 -45 -17 -60 -50z" />
    <glyph glyph-name="Ecir.tilde084" unicode="&#x1ec5;" 
d="M538 216h-390c-3 -47 10 -87 38 -119c28 -33 65 -49 111 -49c66 0 120 27 161 81l45 -42c-61 -66 -133 -99 -215 -99c-69 0 -124 23 -163 70s-54 105 -44 176c10 70 41 129 93 176c51 47 110 70 177 70c69 -1 121 -24 156 -69c33 -44 45 -99 36 -165zM158 270h316
c6 45 -2 81 -25 108c-24 28 -59 42 -106 42c-43 0 -83 -15 -121 -46c-37 -31 -59 -65 -64 -104zM428 708l88 -144h-66l-68 108l-98 -108h-66l130 144h80zM317 735h-43c21 69 57 104 107 104c18 0 41 -8 69 -23c32 -15 53 -23 64 -23c25 0 44 17 56 50h43
c-21 -69 -57 -104 -106 -104c-16 0 -39 8 -70 23c-28 15 -49 23 -64 23c-25 0 -44 -17 -56 -50z" />
    <glyph glyph-name="Ecir.dotbl" unicode="&#x1ec6;" horiz-adv-x="593" 
d="M215 335l-38 -269h379l-9 -66h-451l100 708h439l-10 -66h-367l-34 -241h343l-9 -66h-343zM481 882l79 -144h-66l-60 108l-106 -108h-66l139 144h80zM329 -200c-13 -11 -27 -17 -42 -17s-27 6 -36 17c-7 10 -10 22 -7 37s11 27 23 38c13 11 28 16 43 16s27 -5 35 -16
s10 -23 7 -38s-10 -27 -23 -37z" />
    <glyph glyph-name="Ecir.dotbl085" unicode="&#x1ec7;" 
d="M538 216h-390c-3 -47 10 -87 38 -119c28 -33 65 -49 111 -49c66 0 120 27 161 81l45 -42c-61 -66 -133 -99 -215 -99c-69 0 -124 23 -163 70s-54 105 -44 176c10 70 41 129 93 176c51 47 110 70 177 70c69 -1 121 -24 156 -69c33 -44 45 -99 36 -165zM158 270h316
c6 45 -2 81 -25 108c-24 28 -59 42 -106 42c-43 0 -83 -15 -121 -46c-37 -31 -59 -65 -64 -104zM428 708l88 -144h-66l-68 108l-98 -108h-66l130 144h80zM286 -200c-13 -11 -27 -17 -42 -17s-27 6 -36 17c-7 10 -10 22 -7 37s11 27 23 38c13 11 28 16 43 16s27 -5 35 -16
s10 -23 7 -38s-10 -27 -23 -37z" />
    <glyph glyph-name="I.hook" unicode="&#x1ec8;" horiz-adv-x="264" 
d="M268 708l-100 -708h-72l100 708h72zM268 787h-45c3 27 13 47 31 59c16 13 25 23 27 32c1 7 0 12 -4 16c-3 5 -9 7 -16 7s-13 -2 -18 -6c-6 -5 -12 -14 -18 -28l-43 5c9 27 22 45 38 56c15 11 32 16 51 16s34 -6 44 -17c11 -12 14 -28 10 -47c-5 -21 -18 -40 -40 -57
c-10 -7 -16 -19 -17 -36z" />
    <glyph glyph-name="I.hook086" unicode="&#x1ec9;" horiz-adv-x="240" 
d="M219 468l-66 -468h-66l66 468h66zM222 547h-45c3 27 13 47 31 59c16 13 25 23 27 32c1 7 0 12 -4 16c-3 5 -9 7 -16 7s-13 -2 -18 -6c-6 -5 -12 -14 -18 -28l-43 5c9 27 22 45 38 56c15 11 32 16 51 16s34 -6 44 -17c11 -12 14 -28 10 -47c-5 -21 -18 -40 -40 -57
c-10 -7 -16 -19 -17 -36z" />
    <glyph glyph-name="I.dotbl" unicode="&#x1eca;" horiz-adv-x="264" 
d="M268 708l-100 -708h-72l100 708h72zM140 -200c-13 -11 -27 -17 -42 -17s-27 6 -36 17c-7 10 -10 22 -7 37s11 27 23 38c13 11 28 16 43 16s27 -5 35 -16s10 -23 7 -38s-10 -27 -23 -37z" />
    <glyph glyph-name="I.dotbl087" unicode="&#x1ecb;" horiz-adv-x="240" 
d="M219 468l-66 -468h-66l66 468h66zM239 614c-11 -9 -22 -14 -35 -14s-23 5 -31 14c-9 9 -12 21 -10 34s9 25 20 35c11 9 22 13 35 13s23 -4 31 -13c9 -10 12 -22 10 -35s-9 -25 -20 -34zM128 -200c-13 -11 -27 -17 -42 -17s-27 6 -36 17c-7 10 -10 22 -7 37s11 27 23 38
c13 11 28 16 43 16s27 -5 35 -16s10 -23 7 -38s-10 -27 -23 -37z" />
    <glyph glyph-name="O.dotbl" unicode="&#x1ecc;" horiz-adv-x="834" 
d="M693 87c-80 -70 -173 -105 -279 -105s-189 35 -248 105c-60 71 -83 160 -68 267s62 196 143 267c79 70 172 105 278 105s189 -35 249 -105c60 -71 83 -160 68 -267s-62 -196 -143 -267zM711 568c-46 61 -113 92 -201 92s-164 -31 -227 -92c-59 -58 -95 -129 -107 -214
s4 -156 47 -214c46 -61 113 -92 201 -92s164 31 227 92c59 58 95 129 107 214s-4 156 -47 214zM425 -200c-13 -11 -27 -17 -42 -17s-27 6 -36 17c-7 10 -10 22 -7 37s11 27 23 38c13 11 28 16 43 16s27 -5 35 -16s10 -23 7 -38s-10 -27 -23 -37z" />
    <glyph glyph-name="O.dotbl088" unicode="&#x1ecd;" horiz-adv-x="593" 
d="M483 58c-53 -47 -116 -70 -189 -70c-72 0 -128 23 -168 70s-55 105 -45 176s41 129 94 176s116 70 188 70c73 0 129 -23 170 -70c40 -47 55 -105 45 -176s-42 -129 -95 -176zM477 366c-28 36 -69 54 -122 54s-98 -18 -136 -54c-37 -35 -59 -79 -66 -132s2 -97 29 -132
c27 -36 68 -54 121 -54s99 18 137 54c36 34 58 78 66 132c7 53 -2 97 -29 132zM304 -200c-13 -11 -27 -17 -42 -17s-27 6 -36 17c-7 10 -10 22 -7 37s11 27 23 38c13 11 28 16 43 16s27 -5 35 -16s10 -23 7 -38s-10 -27 -23 -37z" />
    <glyph glyph-name="O.hook" unicode="&#x1ece;" horiz-adv-x="834" 
d="M693 87c-80 -70 -173 -105 -279 -105s-189 35 -248 105c-60 71 -83 160 -68 267s62 196 143 267c79 70 172 105 278 105s189 -35 249 -105c60 -71 83 -160 68 -267s-62 -196 -143 -267zM711 568c-46 61 -113 92 -201 92s-164 -31 -227 -92c-59 -58 -95 -129 -107 -214
s4 -156 47 -214c46 -61 113 -92 201 -92s164 31 227 92c59 58 95 129 107 214s-4 156 -47 214zM553 787h-45c3 27 13 47 31 59c16 13 25 23 27 32c1 7 0 12 -4 16c-3 5 -9 7 -16 7s-13 -2 -18 -6c-6 -5 -12 -14 -18 -28l-43 5c9 27 22 45 38 56c15 11 32 16 51 16
s34 -6 44 -17c11 -12 14 -28 10 -47c-5 -21 -18 -40 -40 -57c-10 -7 -16 -19 -17 -36z" />
    <glyph glyph-name="O.hook089" unicode="&#x1ecf;" horiz-adv-x="593" 
d="M483 58c-53 -47 -116 -70 -189 -70c-72 0 -128 23 -168 70s-55 105 -45 176s41 129 94 176s116 70 188 70c73 0 129 -23 170 -70c40 -47 55 -105 45 -176s-42 -129 -95 -176zM477 366c-28 36 -69 54 -122 54s-98 -18 -136 -54c-37 -35 -59 -79 -66 -132s2 -97 29 -132
c27 -36 68 -54 121 -54s99 18 137 54c36 34 58 78 66 132c7 53 -2 97 -29 132zM398 547h-45c3 27 13 47 31 59c16 13 25 23 27 32c1 7 0 12 -4 16c-3 5 -9 7 -16 7s-13 -2 -18 -6c-6 -5 -12 -14 -18 -28l-43 5c9 27 22 45 38 56c15 11 32 16 51 16s34 -6 44 -17
c11 -12 14 -28 10 -47c-5 -21 -18 -40 -40 -57c-10 -7 -16 -19 -17 -36z" />
    <glyph glyph-name="Ocir.acute" unicode="&#x1ed0;" horiz-adv-x="834" 
d="M693 87c-80 -70 -173 -105 -279 -105s-189 35 -248 105c-60 71 -83 160 -68 267s62 196 143 267c79 70 172 105 278 105s189 -35 249 -105c60 -71 83 -160 68 -267s-62 -196 -143 -267zM711 568c-46 61 -113 92 -201 92s-164 -31 -227 -92c-59 -58 -95 -129 -107 -214
s4 -156 47 -214c46 -61 113 -92 201 -92s164 31 227 92c59 58 95 129 107 214s-4 156 -47 214zM590 881l79 -144h-66l-60 108l-106 -108h-66l139 144h80zM864 997l-163 -144h-59l131 144h91z" />
    <glyph glyph-name="Ocir.acute090" unicode="&#x1ed1;" horiz-adv-x="593" 
d="M483 58c-53 -47 -116 -70 -189 -70c-72 0 -128 23 -168 70s-55 105 -45 176s41 129 94 176s116 70 188 70c73 0 129 -23 170 -70c40 -47 55 -105 45 -176s-42 -129 -95 -176zM477 366c-28 36 -69 54 -122 54s-98 -18 -136 -54c-37 -35 -59 -79 -66 -132s2 -97 29 -132
c27 -36 68 -54 121 -54s99 18 137 54c36 34 58 78 66 132c7 53 -2 97 -29 132zM447 708l88 -144h-66l-68 108l-98 -108h-66l130 144h80zM727 837l-153 -144h-59l121 144h91z" />
    <glyph glyph-name="Ocir.grave" unicode="&#x1ed2;" horiz-adv-x="834" 
d="M693 87c-80 -70 -173 -105 -279 -105s-189 35 -248 105c-60 71 -83 160 -68 267s62 196 143 267c79 70 172 105 278 105s189 -35 249 -105c60 -71 83 -160 68 -267s-62 -196 -143 -267zM711 568c-46 61 -113 92 -201 92s-164 -31 -227 -92c-59 -58 -95 -129 -107 -214
s4 -156 47 -214c46 -61 113 -92 201 -92s164 31 227 92c59 58 95 129 107 214s-4 156 -47 214zM601 881l79 -144h-66l-60 108l-106 -108h-66l139 144h80zM411 855l-102 144h91l70 -144h-59z" />
    <glyph glyph-name="Ocir.grave091" unicode="&#x1ed3;" horiz-adv-x="593" 
d="M483 58c-53 -47 -116 -70 -189 -70c-72 0 -128 23 -168 70s-55 105 -45 176s41 129 94 176s116 70 188 70c73 0 129 -23 170 -70c40 -47 55 -105 45 -176s-42 -129 -95 -176zM477 366c-28 36 -69 54 -122 54s-98 -18 -136 -54c-37 -35 -59 -79 -66 -132s2 -97 29 -132
c27 -36 68 -54 121 -54s99 18 137 54c36 34 58 78 66 132c7 53 -2 97 -29 132zM447 708l88 -144h-66l-68 108l-98 -108h-66l130 144h80zM255 690l-111 144h91l79 -144h-59z" />
    <glyph glyph-name="Ocir.hook" unicode="&#x1ed4;" horiz-adv-x="834" 
d="M693 87c-80 -70 -173 -105 -279 -105s-189 35 -248 105c-60 71 -83 160 -68 267s62 196 143 267c79 70 172 105 278 105s189 -35 249 -105c60 -71 83 -160 68 -267s-62 -196 -143 -267zM711 568c-46 61 -113 92 -201 92s-164 -31 -227 -92c-59 -58 -95 -129 -107 -214
s4 -156 47 -214c46 -61 113 -92 201 -92s164 31 227 92c59 58 95 129 107 214s-4 156 -47 214zM604 882l79 -144h-66l-60 108l-106 -108h-66l139 144h80zM708 865h-45c3 27 13 47 30 59c16 13 25 23 27 32c1 7 0 12 -3 16c-3 5 -9 7 -16 7s-13 -2 -18 -6
c-7 -5 -13 -14 -18 -28l-43 5c9 27 21 45 38 56c15 11 31 16 50 16s34 -6 45 -17c11 -12 14 -28 10 -47c-5 -21 -18 -40 -40 -57c-11 -7 -16 -19 -17 -36z" />
    <glyph glyph-name="Ocir.hook092" unicode="&#x1ed5;" horiz-adv-x="593" 
d="M483 58c-53 -47 -116 -70 -189 -70c-72 0 -128 23 -168 70s-55 105 -45 176s41 129 94 176s116 70 188 70c73 0 129 -23 170 -70c40 -47 55 -105 45 -176s-42 -129 -95 -176zM477 366c-28 36 -69 54 -122 54s-98 -18 -136 -54c-37 -35 -59 -79 -66 -132s2 -97 29 -132
c27 -36 68 -54 121 -54s99 18 137 54c36 34 58 78 66 132c7 53 -2 97 -29 132zM447 708l88 -144h-66l-68 108l-98 -108h-66l130 144h80zM549 692h-45c3 27 13 47 31 59c16 13 25 23 27 32c1 7 0 12 -4 16c-3 5 -9 7 -16 7s-13 -2 -18 -6c-6 -5 -12 -14 -18 -28l-43 5
c9 27 22 45 38 56c15 11 32 16 51 16s34 -6 44 -17c11 -12 14 -28 10 -47c-5 -21 -18 -40 -40 -57c-10 -7 -16 -19 -17 -36z" />
    <glyph glyph-name="Ocir.tilde" unicode="&#x1ed6;" horiz-adv-x="834" 
d="M693 87c-80 -70 -173 -105 -279 -105s-189 35 -248 105c-60 71 -83 160 -68 267s62 196 143 267c79 70 172 105 278 105s189 -35 249 -105c60 -71 83 -160 68 -267s-62 -196 -143 -267zM711 568c-46 61 -113 92 -201 92s-164 -31 -227 -92c-59 -58 -95 -129 -107 -214
s4 -156 47 -214c46 -61 113 -92 201 -92s164 31 227 92c59 58 95 129 107 214s-4 156 -47 214zM604 882l79 -144h-66l-60 108l-106 -108h-66l139 144h80zM477 899h-43c27 69 65 104 114 104c18 0 41 -8 68 -23c30 -15 51 -23 62 -23c25 0 45 17 60 50h43
c-27 -69 -65 -104 -114 -104c-15 0 -38 8 -68 23c-26 15 -47 23 -62 23c-25 0 -45 -17 -60 -50z" />
    <glyph glyph-name="Ocir.tilde093" unicode="&#x1ed7;" horiz-adv-x="593" 
d="M483 58c-53 -47 -116 -70 -189 -70c-72 0 -128 23 -168 70s-55 105 -45 176s41 129 94 176s116 70 188 70c73 0 129 -23 170 -70c40 -47 55 -105 45 -176s-42 -129 -95 -176zM477 366c-28 36 -69 54 -122 54s-98 -18 -136 -54c-37 -35 -59 -79 -66 -132s2 -97 29 -132
c27 -36 68 -54 121 -54s99 18 137 54c36 34 58 78 66 132c7 53 -2 97 -29 132zM447 708l88 -144h-66l-68 108l-98 -108h-66l130 144h80zM334 724h-43c21 69 57 104 107 104c18 0 41 -8 69 -23c32 -15 53 -23 64 -23c25 0 44 17 56 50h43c-21 -69 -57 -104 -106 -104
c-16 0 -39 8 -70 23c-28 15 -49 23 -64 23c-25 0 -44 -17 -56 -50z" />
    <glyph glyph-name="Ocir.dotbl" unicode="&#x1ed8;" horiz-adv-x="834" 
d="M693 87c-80 -70 -173 -105 -279 -105s-189 35 -248 105c-60 71 -83 160 -68 267s62 196 143 267c79 70 172 105 278 105s189 -35 249 -105c60 -71 83 -160 68 -267s-62 -196 -143 -267zM711 568c-46 61 -113 92 -201 92s-164 -31 -227 -92c-59 -58 -95 -129 -107 -214
s4 -156 47 -214c46 -61 113 -92 201 -92s164 31 227 92c59 58 95 129 107 214s-4 156 -47 214zM604 882l79 -144h-66l-60 108l-106 -108h-66l139 144h80zM425 -200c-13 -11 -27 -17 -42 -17s-27 6 -36 17c-7 10 -10 22 -7 37s11 27 23 38c13 11 28 16 43 16s27 -5 35 -16
s10 -23 7 -38s-10 -27 -23 -37z" />
    <glyph glyph-name="Ocir.dotbl094" unicode="&#x1ed9;" horiz-adv-x="593" 
d="M483 58c-53 -47 -116 -70 -189 -70c-72 0 -128 23 -168 70s-55 105 -45 176s41 129 94 176s116 70 188 70c73 0 129 -23 170 -70c40 -47 55 -105 45 -176s-42 -129 -95 -176zM477 366c-28 36 -69 54 -122 54s-98 -18 -136 -54c-37 -35 -59 -79 -66 -132s2 -97 29 -132
c27 -36 68 -54 121 -54s99 18 137 54c36 34 58 78 66 132c7 53 -2 97 -29 132zM447 708l88 -144h-66l-68 108l-98 -108h-66l130 144h80zM304 -200c-13 -11 -27 -17 -42 -17s-27 6 -36 17c-7 10 -10 22 -7 37s11 27 23 38c13 11 28 16 43 16s27 -5 35 -16s10 -23 7 -38
s-10 -27 -23 -37z" />
    <glyph glyph-name="ohorn.acute095" unicode="&#x1eda;" horiz-adv-x="834" 
d="M711 568c-46 61 -113 92 -201 92s-164 -31 -227 -92c-59 -58 -95 -129 -107 -214s4 -156 47 -214c46 -61 113 -92 201 -92s164 31 227 92c59 58 95 129 107 214s-4 156 -47 214zM724 663c16 -12 31 -26 44 -42c60 -71 83 -160 68 -267s-62 -196 -143 -267
c-80 -70 -173 -105 -279 -105s-189 35 -248 105c-60 71 -83 160 -68 267s62 196 143 267c79 70 172 105 278 105c53 0 100 -9 142 -26c21 2 38 9 52 21c17 15 29 35 35 61l61 -1c-10 -47 -31 -82 -64 -105c-7 -5 -14 -9 -21 -13zM754 948l-162 -144h-59l130 144h91z" />
    <glyph glyph-name="ohorn.acute" unicode="&#x1edb;" horiz-adv-x="593" 
d="M477 366c-28 36 -69 54 -122 54s-98 -18 -136 -54c-37 -35 -59 -79 -66 -132s2 -97 29 -132c27 -36 68 -54 121 -54s99 18 137 54c36 34 58 78 66 132c7 53 -2 97 -29 132zM523 421c3 -3 7 -7 10 -11c40 -47 55 -105 45 -176s-42 -129 -95 -176s-116 -70 -189 -70
c-72 0 -128 23 -168 70s-55 105 -45 176s41 129 94 176s116 70 188 70c37 0 71 -6 100 -19c23 2 42 9 57 22c17 15 29 35 35 61l61 -1c-10 -47 -31 -82 -64 -105c-9 -7 -19 -12 -29 -17zM553 708l-153 -144h-59l121 144h91z" />
    <glyph glyph-name="Ohorn.grave" unicode="&#x1edc;" horiz-adv-x="834" 
d="M711 568c-46 61 -113 92 -201 92s-164 -31 -227 -92c-59 -58 -95 -129 -107 -214s4 -156 47 -214c46 -61 113 -92 201 -92s164 31 227 92c59 58 95 129 107 214s-4 156 -47 214zM724 663c16 -12 31 -26 44 -42c60 -71 83 -160 68 -267s-62 -196 -143 -267
c-80 -70 -173 -105 -279 -105s-189 35 -248 105c-60 71 -83 160 -68 267s62 196 143 267c79 70 172 105 278 105c53 0 100 -9 142 -26c21 2 38 9 52 21c17 15 29 35 35 61l61 -1c-10 -47 -31 -82 -64 -105c-7 -5 -14 -9 -21 -13zM535 804l-102 144h91l70 -144h-59z" />
    <glyph glyph-name="Ohorn.grave112" unicode="&#x1edd;" horiz-adv-x="593" 
d="M477 366c-28 36 -69 54 -122 54s-98 -18 -136 -54c-37 -35 -59 -79 -66 -132s2 -97 29 -132c27 -36 68 -54 121 -54s99 18 137 54c36 34 58 78 66 132c7 53 -2 97 -29 132zM523 421c3 -3 7 -7 10 -11c40 -47 55 -105 45 -176s-42 -129 -95 -176s-116 -70 -189 -70
c-72 0 -128 23 -168 70s-55 105 -45 176s41 129 94 176s116 70 188 70c37 0 71 -6 100 -19c23 2 42 9 57 22c17 15 29 35 35 61l61 -1c-10 -47 -31 -82 -64 -105c-9 -7 -19 -12 -29 -17zM283 564l-111 144h91l79 -144h-59z" />
    <glyph glyph-name="Ohorn.hook" unicode="&#x1ede;" horiz-adv-x="834" 
d="M711 568c-46 61 -113 92 -201 92s-164 -31 -227 -92c-59 -58 -95 -129 -107 -214s4 -156 47 -214c46 -61 113 -92 201 -92s164 31 227 92c59 58 95 129 107 214s-4 156 -47 214zM724 663c16 -12 31 -26 44 -42c60 -71 83 -160 68 -267s-62 -196 -143 -267
c-80 -70 -173 -105 -279 -105s-189 35 -248 105c-60 71 -83 160 -68 267s62 196 143 267c79 70 172 105 278 105c53 0 100 -9 142 -26c21 2 38 9 52 21c17 15 29 35 35 61l61 -1c-10 -47 -31 -82 -64 -105c-7 -5 -14 -9 -21 -13zM553 787h-45c3 27 13 47 31 59
c16 13 25 23 27 32c1 7 0 12 -4 16c-3 5 -9 7 -16 7s-13 -2 -18 -6c-6 -5 -12 -14 -18 -28l-43 5c9 27 22 45 38 56c15 11 32 16 51 16s34 -6 44 -17c11 -12 14 -28 10 -47c-5 -21 -18 -40 -40 -57c-10 -7 -16 -19 -17 -36z" />
    <glyph glyph-name="Ohorn.hook096" unicode="&#x1edf;" horiz-adv-x="593" 
d="M477 366c-28 36 -69 54 -122 54s-98 -18 -136 -54c-37 -35 -59 -79 -66 -132s2 -97 29 -132c27 -36 68 -54 121 -54s99 18 137 54c36 34 58 78 66 132c7 53 -2 97 -29 132zM523 421c3 -3 7 -7 10 -11c40 -47 55 -105 45 -176s-42 -129 -95 -176s-116 -70 -189 -70
c-72 0 -128 23 -168 70s-55 105 -45 176s41 129 94 176s116 70 188 70c37 0 71 -6 100 -19c23 2 42 9 57 22c17 15 29 35 35 61l61 -1c-10 -47 -31 -82 -64 -105c-9 -7 -19 -12 -29 -17zM426 547h-45c3 27 13 47 31 59c16 13 25 23 27 32c1 7 0 12 -4 16c-3 5 -9 7 -16 7
s-13 -2 -18 -6c-6 -5 -12 -14 -18 -28l-43 5c9 27 22 45 38 56c15 11 32 16 51 16s34 -6 44 -17c11 -12 14 -28 10 -47c-5 -21 -18 -40 -40 -57c-10 -7 -16 -19 -17 -36z" />
    <glyph glyph-name="Ohorn.tilde" unicode="&#x1ee0;" horiz-adv-x="834" 
d="M711 568c-46 61 -113 92 -201 92s-164 -31 -227 -92c-59 -58 -95 -129 -107 -214s4 -156 47 -214c46 -61 113 -92 201 -92s164 31 227 92c59 58 95 129 107 214s-4 156 -47 214zM724 663c16 -12 31 -26 44 -42c60 -71 83 -160 68 -267s-62 -196 -143 -267
c-80 -70 -173 -105 -279 -105s-189 35 -248 105c-60 71 -83 160 -68 267s62 196 143 267c79 70 172 105 278 105c53 0 100 -9 142 -26c21 2 38 9 52 21c17 15 29 35 35 61l61 -1c-10 -47 -31 -82 -64 -105c-7 -5 -14 -9 -21 -13zM408 816h-43c27 69 66 104 115 104
c18 0 41 -8 68 -23c30 -15 51 -23 62 -23c25 0 44 17 59 50h43c-27 -69 -65 -104 -114 -104c-15 0 -38 8 -68 23c-26 15 -47 23 -62 23c-25 0 -45 -17 -60 -50z" />
    <glyph glyph-name="Ohorn.tilde097" unicode="&#x1ee1;" horiz-adv-x="593" 
d="M477 366c-28 36 -69 54 -122 54s-98 -18 -136 -54c-37 -35 -59 -79 -66 -132s2 -97 29 -132c27 -36 68 -54 121 -54s99 18 137 54c36 34 58 78 66 132c7 53 -2 97 -29 132zM523 421c3 -3 7 -7 10 -11c40 -47 55 -105 45 -176s-42 -129 -95 -176s-116 -70 -189 -70
c-72 0 -128 23 -168 70s-55 105 -45 176s41 129 94 176s116 70 188 70c37 0 71 -6 100 -19c23 2 42 9 57 22c17 15 29 35 35 61l61 -1c-10 -47 -31 -82 -64 -105c-9 -7 -19 -12 -29 -17zM283 576h-43c21 69 57 104 107 104c18 0 41 -8 69 -23c32 -15 53 -23 64 -23
c25 0 44 17 56 50h43c-21 -69 -57 -104 -106 -104c-16 0 -39 8 -70 23c-28 15 -49 23 -64 23c-25 0 -44 -17 -56 -50z" />
    <glyph glyph-name="Ohorn.dotbl" unicode="&#x1ee2;" horiz-adv-x="834" 
d="M711 568c-46 61 -113 92 -201 92s-164 -31 -227 -92c-59 -58 -95 -129 -107 -214s4 -156 47 -214c46 -61 113 -92 201 -92s164 31 227 92c59 58 95 129 107 214s-4 156 -47 214zM724 663c16 -12 31 -26 44 -42c60 -71 83 -160 68 -267s-62 -196 -143 -267
c-80 -70 -173 -105 -279 -105s-189 35 -248 105c-60 71 -83 160 -68 267s62 196 143 267c79 70 172 105 278 105c53 0 100 -9 142 -26c21 2 38 9 52 21c17 15 29 35 35 61l61 -1c-10 -47 -31 -82 -64 -105c-7 -5 -14 -9 -21 -13zM425 -200c-13 -11 -27 -17 -42 -17
s-27 6 -36 17c-7 10 -10 22 -7 37s11 27 23 38c13 11 28 16 43 16s27 -5 35 -16s10 -23 7 -38s-10 -27 -23 -37z" />
    <glyph glyph-name="Ohorn.dotbl098" unicode="&#x1ee3;" horiz-adv-x="593" 
d="M477 366c-28 36 -69 54 -122 54s-98 -18 -136 -54c-37 -35 -59 -79 -66 -132s2 -97 29 -132c27 -36 68 -54 121 -54s99 18 137 54c36 34 58 78 66 132c7 53 -2 97 -29 132zM523 421c3 -3 7 -7 10 -11c40 -47 55 -105 45 -176s-42 -129 -95 -176s-116 -70 -189 -70
c-72 0 -128 23 -168 70s-55 105 -45 176s41 129 94 176s116 70 188 70c37 0 71 -6 100 -19c23 2 42 9 57 22c17 15 29 35 35 61l61 -1c-10 -47 -31 -82 -64 -105c-9 -7 -19 -12 -29 -17zM323 -200c-13 -11 -27 -17 -42 -17s-27 6 -36 17c-7 10 -10 22 -7 37s11 27 23 38
c13 11 28 16 43 16s27 -5 35 -16s10 -23 7 -38s-10 -27 -23 -37z" />
    <glyph glyph-name="U.dotbl" unicode="&#x1ee4;" horiz-adv-x="686" 
d="M702 708l-63 -444c-10 -75 -35 -136 -76 -185c-53 -65 -128 -97 -223 -97s-160 32 -195 97c-26 48 -34 110 -24 185l63 444h72l-62 -436c-12 -89 4 -151 47 -188c28 -24 64 -36 109 -36s84 12 119 36c54 37 87 99 99 188l62 436h72zM351 -200c-13 -11 -27 -17 -42 -17
s-27 6 -36 17c-7 10 -10 22 -7 37s11 27 23 38c13 11 28 16 43 16s27 -5 35 -16s10 -23 7 -38s-10 -27 -23 -37z" />
    <glyph glyph-name="U.dotbl099" unicode="&#x1ee5;" 
d="M478 0h-68c1 22 3 47 8 75h-2c-42 -58 -99 -87 -170 -87c-117 0 -167 61 -150 183l42 297h66l-37 -259c-7 -55 -4 -94 11 -119c15 -28 47 -42 94 -42c26 0 53 9 80 26c48 31 77 82 87 154l34 240h66l-52 -365zM283 -200c-13 -11 -27 -17 -42 -17s-27 6 -36 17
c-7 10 -10 22 -7 37s11 27 23 38c13 11 28 16 43 16s27 -5 35 -16s10 -23 7 -38s-10 -27 -23 -37z" />
    <glyph glyph-name="U.hook" unicode="&#x1ee6;" horiz-adv-x="686" 
d="M702 708l-63 -444c-10 -75 -35 -136 -76 -185c-53 -65 -128 -97 -223 -97s-160 32 -195 97c-26 48 -34 110 -24 185l63 444h72l-62 -436c-12 -89 4 -151 47 -188c28 -24 64 -36 109 -36s84 12 119 36c54 37 87 99 99 188l62 436h72zM479 787h-45c3 27 13 47 31 59
c16 13 25 23 27 32c1 7 0 12 -4 16c-3 5 -9 7 -16 7s-13 -2 -18 -6c-6 -5 -12 -14 -18 -28l-43 5c9 27 22 45 38 56c15 11 32 16 51 16s34 -6 44 -17c11 -12 14 -28 10 -47c-5 -21 -18 -40 -40 -57c-10 -7 -16 -19 -17 -36z" />
    <glyph glyph-name="U.hook100" unicode="&#x1ee7;" 
d="M478 0h-68c1 22 3 47 8 75h-2c-42 -58 -99 -87 -170 -87c-117 0 -167 61 -150 183l42 297h66l-37 -259c-7 -55 -4 -94 11 -119c15 -28 47 -42 94 -42c26 0 53 9 80 26c48 31 77 82 87 154l34 240h66l-52 -365zM376 547h-45c3 27 13 47 31 59c16 13 25 23 27 32
c1 7 0 12 -4 16c-3 5 -9 7 -16 7s-13 -2 -18 -6c-6 -5 -12 -14 -18 -28l-43 5c9 27 22 45 38 56c15 11 32 16 51 16s34 -6 44 -17c11 -12 14 -28 10 -47c-5 -21 -18 -40 -40 -57c-10 -7 -16 -19 -17 -36z" />
    <glyph glyph-name="Uhorn.acute" unicode="&#x1ee8;" horiz-adv-x="686" 
d="M694 651l-55 -387c-10 -75 -35 -136 -76 -185c-53 -65 -128 -97 -223 -97s-160 32 -195 97c-26 48 -34 110 -24 185l63 444h72l-62 -436c-12 -89 4 -151 47 -188c28 -24 64 -36 109 -36s84 12 119 36c54 37 87 99 99 188l62 436h60c8 3 15 8 21 13c17 15 29 35 35 61
l61 -1c-10 -47 -31 -82 -64 -105c-15 -11 -31 -19 -49 -25zM613 948l-162 -144h-59l130 144h91z" />
    <glyph glyph-name="Uhorn.acute101" unicode="&#x1ee9;" 
d="M531 412l-44 -309l-9 -103h-68c1 22 3 47 8 75h-2c-42 -58 -99 -87 -170 -87c-117 0 -167 61 -150 183l42 297h66l-37 -259c-7 -55 -4 -94 11 -119c15 -28 47 -42 94 -42c26 0 53 9 80 26c48 31 77 82 87 154l34 240h53c10 3 19 8 26 15c17 15 29 35 35 61l61 -1
c-10 -47 -31 -82 -64 -105c-16 -12 -34 -21 -53 -26zM544 708l-153 -144h-59l121 144h91z" />
    <glyph glyph-name="Uhorn.grave" unicode="&#x1eea;" horiz-adv-x="686" 
d="M694 651l-55 -387c-10 -75 -35 -136 -76 -185c-53 -65 -128 -97 -223 -97s-160 32 -195 97c-26 48 -34 110 -24 185l63 444h72l-62 -436c-12 -89 4 -151 47 -188c28 -24 64 -36 109 -36s84 12 119 36c54 37 87 99 99 188l62 436h60c8 3 15 8 21 13c17 15 29 35 35 61
l61 -1c-10 -47 -31 -82 -64 -105c-15 -11 -31 -19 -49 -25zM461 804l-102 144h91l70 -144h-59z" />
    <glyph glyph-name="Uhorn.grave102" unicode="&#x1eeb;" 
d="M531 412l-44 -309l-9 -103h-68c1 22 3 47 8 75h-2c-42 -58 -99 -87 -170 -87c-117 0 -167 61 -150 183l42 297h66l-37 -259c-7 -55 -4 -94 11 -119c15 -28 47 -42 94 -42c26 0 53 9 80 26c48 31 77 82 87 154l34 240h53c10 3 19 8 26 15c17 15 29 35 35 61l61 -1
c-10 -47 -31 -82 -64 -105c-16 -12 -34 -21 -53 -26zM361 564l-111 144h91l79 -144h-59z" />
    <glyph glyph-name="Uhorn.hook" unicode="&#x1eec;" horiz-adv-x="686" 
d="M694 651l-55 -387c-10 -75 -35 -136 -76 -185c-53 -65 -128 -97 -223 -97s-160 32 -195 97c-26 48 -34 110 -24 185l63 444h72l-62 -436c-12 -89 4 -151 47 -188c28 -24 64 -36 109 -36s84 12 119 36c54 37 87 99 99 188l62 436h60c8 3 15 8 21 13c17 15 29 35 35 61
l61 -1c-10 -47 -31 -82 -64 -105c-15 -11 -31 -19 -49 -25zM479 787h-45c3 27 13 47 31 59c16 13 25 23 27 32c1 7 0 12 -4 16c-3 5 -9 7 -16 7s-13 -2 -18 -6c-6 -5 -12 -14 -18 -28l-43 5c9 27 22 45 38 56c15 11 32 16 51 16s34 -6 44 -17c11 -12 14 -28 10 -47
c-5 -21 -18 -40 -40 -57c-10 -7 -16 -19 -17 -36z" />
    <glyph glyph-name="Uhorn.hook103" unicode="&#x1eed;" 
d="M531 412l-44 -309l-9 -103h-68c1 22 3 47 8 75h-2c-42 -58 -99 -87 -170 -87c-117 0 -167 61 -150 183l42 297h66l-37 -259c-7 -55 -4 -94 11 -119c15 -28 47 -42 94 -42c26 0 53 9 80 26c48 31 77 82 87 154l34 240h53c10 3 19 8 26 15c17 15 29 35 35 61l61 -1
c-10 -47 -31 -82 -64 -105c-16 -12 -34 -21 -53 -26zM386 547h-45c3 27 13 47 31 59c16 13 25 23 27 32c1 7 0 12 -4 16c-3 5 -9 7 -16 7s-13 -2 -18 -6c-6 -5 -12 -14 -18 -28l-43 5c9 27 22 45 38 56c15 11 32 16 51 16s34 -6 44 -17c11 -12 14 -28 10 -47
c-5 -21 -18 -40 -40 -57c-10 -7 -16 -19 -17 -36z" />
    <glyph glyph-name="Uhorn.tilde" unicode="&#x1eee;" horiz-adv-x="686" 
d="M694 651l-55 -387c-10 -75 -35 -136 -76 -185c-53 -65 -128 -97 -223 -97s-160 32 -195 97c-26 48 -34 110 -24 185l63 444h72l-62 -436c-12 -89 4 -151 47 -188c28 -24 64 -36 109 -36s84 12 119 36c54 37 87 99 99 188l62 436h60c8 3 15 8 21 13c17 15 29 35 35 61
l61 -1c-10 -47 -31 -82 -64 -105c-15 -11 -31 -19 -49 -25zM334 816h-43c27 69 66 104 115 104c18 0 41 -8 68 -23c30 -15 51 -23 62 -23c25 0 44 17 59 50h43c-27 -69 -65 -104 -114 -104c-15 0 -38 8 -68 23c-26 15 -47 23 -62 23c-25 0 -45 -17 -60 -50z" />
    <glyph glyph-name="Uhorn.tilde104" unicode="&#x1eef;" 
d="M531 412l-44 -309l-9 -103h-68c1 22 3 47 8 75h-2c-42 -58 -99 -87 -170 -87c-117 0 -167 61 -150 183l42 297h66l-37 -259c-7 -55 -4 -94 11 -119c15 -28 47 -42 94 -42c26 0 53 9 80 26c48 31 77 82 87 154l34 240h53c10 3 19 8 26 15c17 15 29 35 35 61l61 -1
c-10 -47 -31 -82 -64 -105c-16 -12 -34 -21 -53 -26zM249 576h-43c21 69 57 104 107 104c18 0 41 -8 69 -23c32 -15 53 -23 64 -23c25 0 44 17 56 50h43c-21 -69 -57 -104 -106 -104c-16 0 -39 8 -70 23c-28 15 -49 23 -64 23c-25 0 -44 -17 -56 -50z" />
    <glyph glyph-name="Uhorn.dotbl" unicode="&#x1ef0;" horiz-adv-x="686" 
d="M694 651l-55 -387c-10 -75 -35 -136 -76 -185c-53 -65 -128 -97 -223 -97s-160 32 -195 97c-26 48 -34 110 -24 185l63 444h72l-62 -436c-12 -89 4 -151 47 -188c28 -24 64 -36 109 -36s84 12 119 36c54 37 87 99 99 188l62 436h60c8 3 15 8 21 13c17 15 29 35 35 61
l61 -1c-10 -47 -31 -82 -64 -105c-15 -11 -31 -19 -49 -25zM351 -200c-13 -11 -27 -17 -42 -17s-27 6 -36 17c-7 10 -10 22 -7 37s11 27 23 38c13 11 28 16 43 16s27 -5 35 -16s10 -23 7 -38s-10 -27 -23 -37z" />
    <glyph glyph-name="Uhorn.dotbl105" unicode="&#x1ef1;" 
d="M531 412l-44 -309l-9 -103h-68c1 22 3 47 8 75h-2c-42 -58 -99 -87 -170 -87c-117 0 -167 61 -150 183l42 297h66l-37 -259c-7 -55 -4 -94 11 -119c15 -28 47 -42 94 -42c26 0 53 9 80 26c48 31 77 82 87 154l34 240h53c10 3 19 8 26 15c17 15 29 35 35 61l61 -1
c-10 -47 -31 -82 -64 -105c-16 -12 -34 -21 -53 -26zM264 -200c-13 -11 -27 -17 -42 -17s-27 6 -36 17c-7 10 -10 22 -7 37s11 27 23 38c13 11 28 16 43 16s27 -5 35 -16s10 -23 7 -38s-10 -27 -23 -37z" />
    <glyph glyph-name="Ygrave" unicode="&#x1ef2;" horiz-adv-x="574" 
d="M366 305l-43 -305h-72l43 305l-208 403h90l164 -334l258 334h90zM348 804l-102 144h91l70 -144h-59z" />
    <glyph glyph-name="Ygrave106" unicode="&#x1ef3;" horiz-adv-x="482" 
d="M165 468l92 -387l198 387h80l-317 -590c-41 -79 -96 -118 -164 -118c-25 0 -45 2 -60 7l16 64c13 -7 29 -11 49 -11c39 0 73 28 102 84l46 90l-125 474h83zM280 564l-111 144h91l79 -144h-59z" />
    <glyph glyph-name="Y.dotbl" unicode="&#x1ef4;" horiz-adv-x="574" 
d="M366 305l-43 -305h-72l43 305l-208 403h90l164 -334l258 334h90zM295 -200c-13 -11 -27 -17 -42 -17s-27 6 -36 17c-7 10 -10 22 -7 37s11 27 23 38c13 11 28 16 43 16s27 -5 35 -16s10 -23 7 -38s-10 -27 -23 -37z" />
    <glyph glyph-name="Y.dotbl107" unicode="&#x1ef5;" horiz-adv-x="482" 
d="M165 468l92 -387l198 387h80l-317 -590c-41 -79 -96 -118 -164 -118c-25 0 -45 2 -60 7l16 64c13 -7 29 -11 49 -11c39 0 73 28 102 84l46 90l-125 474h83zM393 -200c-13 -11 -27 -17 -42 -17s-27 6 -36 17c-7 10 -10 22 -7 37s11 27 23 38c13 11 28 16 43 16
s27 -5 35 -16s10 -23 7 -38s-10 -27 -23 -37z" />
    <glyph glyph-name="Y.hook" unicode="&#x1ef6;" horiz-adv-x="574" 
d="M366 305l-43 -305h-72l43 305l-208 403h90l164 -334l258 334h90zM423 787h-45c3 27 13 47 31 59c16 13 25 23 27 32c1 7 0 12 -4 16c-3 5 -9 7 -16 7s-13 -2 -18 -6c-6 -5 -12 -14 -18 -28l-43 5c9 27 22 45 38 56c15 11 32 16 51 16s34 -6 44 -17c11 -12 14 -28 10 -47
c-5 -21 -18 -40 -40 -57c-10 -7 -16 -19 -17 -36z" />
    <glyph glyph-name="Y.hook108" unicode="&#x1ef7;" horiz-adv-x="482" 
d="M165 468l92 -387l198 387h80l-317 -590c-41 -79 -96 -118 -164 -118c-25 0 -45 2 -60 7l16 64c13 -7 29 -11 49 -11c39 0 73 28 102 84l46 90l-125 474h83zM344 547h-45c3 27 13 47 31 59c16 13 25 23 27 32c1 7 0 12 -4 16c-3 5 -9 7 -16 7s-13 -2 -18 -6
c-6 -5 -12 -14 -18 -28l-43 5c9 27 22 45 38 56c15 11 32 16 51 16s34 -6 44 -17c11 -12 14 -28 10 -47c-5 -21 -18 -40 -40 -57c-10 -7 -16 -19 -17 -36z" />
    <glyph glyph-name="Ytilde" unicode="&#x1ef8;" horiz-adv-x="574" 
d="M366 305l-43 -305h-72l43 305l-208 403h90l164 -334l258 334h90zM279 816h-43c27 69 66 104 115 104c18 0 41 -8 68 -23c30 -15 51 -23 62 -23c25 0 44 17 59 50h43c-27 -69 -65 -104 -114 -104c-15 0 -38 8 -68 23c-26 15 -47 23 -62 23c-25 0 -45 -17 -60 -50z" />
    <glyph glyph-name="Ytilde109" unicode="&#x1ef9;" horiz-adv-x="482" 
d="M165 468l92 -387l198 387h80l-317 -590c-41 -79 -96 -118 -164 -118c-25 0 -45 2 -60 7l16 64c13 -7 29 -11 49 -11c39 0 73 28 102 84l46 90l-125 474h83zM205 576h-43c21 69 57 104 107 104c18 0 41 -8 69 -23c32 -15 53 -23 64 -23c25 0 44 17 56 50h43
c-21 -69 -57 -104 -106 -104c-16 0 -39 8 -70 23c-28 15 -49 23 -64 23c-25 0 -44 -17 -56 -50z" />
    <glyph glyph-name="uni2010" unicode="&#x2010;" horiz-adv-x="333" 
d="M333 273l-9 -66h-257l9 66h257z" />
    <glyph glyph-name="endash" unicode="&#x2013;" horiz-adv-x="500" 
d="M538 273l-9 -66h-500l9 66h500z" />
    <glyph glyph-name="emdash" unicode="&#x2014;" horiz-adv-x="1000" 
d="M1038 273l-9 -66h-1000l9 66h1000z" />
    <glyph glyph-name="quoteleft" unicode="&#x2018;" horiz-adv-x="260" 
d="M122 473l115 235h67l-101 -235h-81z" />
    <glyph glyph-name="quoteright" unicode="&#x2019;" horiz-adv-x="260" 
d="M304 708l-115 -235h-67l101 235h81z" />
    <glyph glyph-name="quotesinglbase" unicode="&#x201a;" horiz-adv-x="260" 
d="M217 95l-114 -235h-67l100 235h81z" />
    <glyph glyph-name="quotedblleft" unicode="&#x201c;" horiz-adv-x="519" 
d="M161 473l115 235h67l-101 -235h-81zM342 473l115 235h67l-101 -235h-81z" />
    <glyph glyph-name="quotedblright" unicode="&#x201d;" horiz-adv-x="519" 
d="M524 708l-115 -235h-67l101 235h81zM343 708l-115 -235h-67l101 235h81z" />
    <glyph glyph-name="quotedblbase" unicode="&#x201e;" horiz-adv-x="519" 
d="M437 95l-114 -235h-67l100 235h81zM256 95l-114 -235h-67l100 235h81z" />
    <glyph glyph-name="dagger" unicode="&#x2020;" 
d="M411 708l-29 -204h204l-9 -60h-204l-80 -570h-66l80 570h-204l9 60h204l29 204h66z" />
    <glyph glyph-name="daggerdbl" unicode="&#x2021;" 
d="M411 708l-27 -192h195l-9 -60h-195l-46 -330h195l-9 -60h-195l-27 -192h-66l27 192h-195l9 60h195l46 330h-195l9 60h195l27 192h66z" />
    <glyph glyph-name="bullet" unicode="&#x2022;" horiz-adv-x="500" 
d="M193 479c39 35 83 52 132 52s89 -17 118 -52s41 -76 34 -125s-30 -91 -69 -125c-40 -35 -84 -52 -133 -52s-89 17 -118 52s-41 76 -34 125s31 91 70 125z" />
    <glyph glyph-name="ellipsis" unicode="&#x2026;" horiz-adv-x="1000" 
d="M208 11c-13 -11 -27 -17 -42 -17s-27 6 -36 17c-9 10 -12 22 -10 37s9 27 20 38c12 11 26 16 41 16s28 -5 37 -16s12 -23 10 -38s-9 -27 -20 -37zM541 11c-13 -11 -27 -17 -42 -17s-27 6 -36 17c-9 10 -12 22 -10 37s9 27 20 38c12 11 26 16 41 16s28 -5 37 -16
s12 -23 10 -38s-9 -27 -20 -37zM874 11c-13 -11 -27 -17 -42 -17s-27 6 -36 17c-9 10 -12 22 -10 37s9 27 20 38c12 11 26 16 41 16s28 -5 37 -16s12 -23 10 -38s-9 -27 -20 -37z" />
    <glyph glyph-name="perthousand" unicode="&#x2030;" horiz-adv-x="1000" 
d="M351 458c-35 -31 -73 -46 -115 -46s-76 15 -102 46c-25 30 -35 66 -29 108c5 42 25 78 59 109c34 30 72 45 115 45c42 0 76 -15 102 -45c25 -31 35 -67 30 -109c-6 -42 -26 -78 -60 -108zM338 637c-17 19 -39 29 -66 29s-52 -10 -74 -29c-23 -20 -36 -44 -39 -71
c-4 -27 2 -51 18 -71c17 -19 39 -29 66 -29s52 10 75 29c22 20 35 44 39 71c3 27 -3 51 -19 71zM585 34c-35 -31 -73 -46 -115 -46s-76 15 -102 46c-25 30 -35 66 -29 108s26 78 60 109c35 30 73 45 115 45s76 -15 102 -45c25 -31 35 -67 29 -109s-26 -78 -60 -108zM572 213
c-17 19 -39 29 -66 29s-52 -10 -74 -29c-22 -20 -35 -44 -39 -71s2 -51 19 -71c17 -19 39 -29 66 -29s52 10 74 29c22 20 35 44 39 71s-2 51 -19 71zM935 34c-35 -31 -73 -46 -115 -46s-76 15 -102 46c-25 30 -35 66 -29 108s26 78 60 109c35 30 73 45 115 45
s76 -15 102 -45c25 -31 35 -67 29 -109s-26 -78 -60 -108zM922 213c-17 19 -39 29 -66 29s-52 -10 -74 -29c-22 -20 -35 -44 -39 -71s2 -51 19 -71c17 -19 39 -29 66 -29s52 10 74 29c22 20 35 44 39 71s-2 51 -19 71zM675 712l-554 -743l-49 27l556 743z" />
    <glyph glyph-name="guilsinglleft" unicode="&#x2039;" horiz-adv-x="315" 
d="M165 240l90 -176l-52 -33l-110 209l169 209l42 -33z" />
    <glyph glyph-name="guilsinglright" unicode="&#x203a;" horiz-adv-x="315" 
d="M218 240l-91 176l52 33l111 -209l-170 -209l-42 33z" />
    <glyph glyph-name="fraction" unicode="&#x2044;" horiz-adv-x="168" 
d="M-119 -32l-48 32l555 740l47 -31z" />
    <glyph glyph-name="Euro" unicode="&#x20ac;" 
d="M614 680l-30 -62c-31 26 -74 39 -129 39c-99 0 -170 -61 -211 -182h283l-25 -56h-275c-6 -31 -11 -56 -14 -76l-6 -55h240l-25 -55h-216c3 -123 51 -185 144 -185c56 0 101 21 134 64l42 -34c-45 -60 -110 -90 -194 -90c-133 0 -200 82 -201 245h-75l27 55h49
c3 25 5 45 7 58c3 19 7 44 13 73h-69l28 56h57c55 163 154 245 297 245c61 0 111 -13 149 -40z" />
    <glyph glyph-name="uni2113" unicode="&#x2113;" horiz-adv-x="481" 
d="M444 145l29 -28c-55 -83 -122 -124 -200 -124c-53 0 -92 19 -115 57c-20 33 -27 78 -22 133l2 14l-65 -48l-17 39c51 39 81 62 90 70l40 280c11 85 36 148 74 189c31 34 67 51 109 51c39 0 68 -16 85 -47c15 -29 20 -67 14 -114c-16 -112 -103 -237 -261 -374l-4 -32
c-7 -56 -2 -98 16 -127c17 -25 41 -38 73 -38c57 0 107 33 152 99zM249 544l-32 -233c124 118 192 219 203 304c11 75 -8 112 -59 112c-23 0 -44 -13 -63 -40c-23 -33 -40 -80 -49 -143z" />
    <glyph glyph-name="trademark" unicode="&#x2122;" horiz-adv-x="1000" 
d="M501 708l-8 -54h-133l-50 -358h-60l50 358h-136l8 54h329zM1028 708l-58 -412h-60l48 346h-2l-187 -346h-39l-91 346h-2l-48 -346h-60l58 412h93l84 -316l174 316h90z" />
    <glyph glyph-name="Omega" unicode="&#x2126;" horiz-adv-x="722" 
d="M211 55v3c-80 81 -111 188 -93 319c14 99 54 181 121 245c65 63 141 94 226 94c86 0 152 -33 198 -100c44 -63 60 -141 47 -234c-19 -137 -81 -245 -185 -324v-3h153l-8 -55h-236l6 41c113 69 180 179 201 329c11 74 1 139 -29 195c-34 63 -86 95 -156 95
c-69 0 -130 -28 -181 -85c-49 -55 -80 -124 -91 -207c-11 -71 -4 -138 20 -201c21 -56 50 -98 89 -126l-6 -41h-236l8 55h152z" />
    <glyph glyph-name="estimated" unicode="&#x212e;" horiz-adv-x="984" 
d="M949 344h-659c-3 0 -5 -2 -5 -5v-199c0 -8 3 -16 9 -23c70 -72 153 -108 249 -108c104 0 191 40 262 121h58c-79 -94 -186 -141 -321 -141c-112 0 -208 36 -287 107s-119 157 -119 258s40 187 119 259c79 71 175 107 287 107c113 0 209 -36 288 -107s119 -158 119 -259
v-10zM799 370v200c0 9 -3 17 -9 24c-71 69 -153 104 -247 104c-95 0 -178 -36 -248 -107c-7 -7 -10 -15 -10 -25v-196c0 -5 2 -7 5 -7h505c3 0 4 2 4 7z" />
    <glyph glyph-name="partialdiff" unicode="&#x2202;" horiz-adv-x="543" 
d="M198 686l-17 49c52 37 109 56 172 56c69 0 122 -31 159 -93c41 -69 53 -166 36 -289s-53 -222 -106 -297c-57 -80 -127 -120 -210 -120c-60 0 -104 24 -133 73c-25 43 -34 96 -25 159c11 76 42 139 92 188c47 46 100 69 158 69c41 0 77 -13 108 -38c22 -18 37 -38 46 -61
h1l7 46c13 91 4 165 -26 223c-28 56 -69 84 -122 84c-48 0 -95 -16 -140 -49zM246 48h1c47 0 90 27 131 80c37 49 65 111 82 185c-5 27 -19 52 -40 74c-26 27 -57 40 -94 40c-43 0 -82 -20 -118 -59c-37 -40 -59 -88 -66 -143c-7 -52 -2 -94 17 -127s48 -50 87 -50z" />
    <glyph glyph-name="Delta" unicode="&#x2206;" horiz-adv-x="646" 
d="M32 0l7 48l350 677h76l157 -677l-7 -48h-583zM107 55h444l-95 401c-3 15 -10 48 -22 98c-11 43 -17 74 -19 91h-4c-6 -14 -19 -41 -39 -80z" />
    <glyph glyph-name="product" unicode="&#x220f;" horiz-adv-x="794" 
d="M768 644h-110v-741h-66v741h-291v-741h-65v741h-110v61h642v-61z" />
    <glyph glyph-name="summation" unicode="&#x2211;" horiz-adv-x="652" 
d="M630 -97h-508v45l274 354l-261 356v47h479v-58h-387v-3l246 -332l-265 -343v-3h422v-63z" />
    <glyph glyph-name="minus" unicode="&#x2212;" horiz-adv-x="666" 
d="M635 333l-9 -60h-510l9 60h510z" />
    <glyph glyph-name="uni2215" unicode="&#x2215;" horiz-adv-x="168" 
d="M-119 -32l-48 32l555 740l47 -31z" />
    <glyph glyph-name="uni2219" unicode="&#x2219;" horiz-adv-x="278" 
d="M217 277c-12 -11 -26 -17 -41 -17s-28 6 -37 17c-9 10 -12 22 -10 37s9 27 21 38s26 16 41 16s28 -5 37 -16c8 -11 11 -23 9 -38s-9 -27 -20 -37z" />
    <glyph glyph-name="radical" unicode="&#x221a;" horiz-adv-x="670" 
d="M669 837l-222 -990h-60l-162 473l-75 -28l-14 42l131 51l132 -385c7 -27 13 -51 17 -71h1c4 24 8 48 13 71l189 837h50z" />
    <glyph glyph-name="infinity" unicode="&#x221e;" horiz-adv-x="842" 
d="M791 294v-1c0 -47 -15 -85 -46 -115c-29 -29 -65 -43 -106 -43c-51 0 -112 40 -185 121c-73 -81 -136 -121 -191 -121c-41 0 -76 15 -105 45s-44 66 -44 109c0 45 15 83 44 112c30 30 67 45 112 45c56 0 118 -40 187 -121c39 42 66 70 83 83c34 25 69 38 106 38
c43 0 78 -14 105 -43c27 -28 40 -64 40 -109zM269 179h2c36 0 89 36 158 109c-63 77 -119 116 -166 116c-31 0 -56 -12 -75 -35c-18 -22 -27 -49 -27 -81c0 -31 10 -56 30 -77s46 -32 78 -32zM641 404h-1c-29 0 -60 -14 -92 -42c-11 -9 -23 -22 -38 -37l-30 -33
c70 -75 124 -113 162 -113c31 0 56 12 75 35c18 21 27 47 27 76c0 35 -10 63 -29 84c-19 20 -44 30 -74 30z" />
    <glyph glyph-name="integral" unicode="&#x222b;" horiz-adv-x="452" 
d="M438 846l-13 -47c-10 7 -22 11 -36 11c-22 0 -39 -8 -51 -24c-23 -28 -35 -89 -35 -182c0 -52 2 -137 7 -254c4 -117 6 -203 6 -258c0 -93 -15 -161 -44 -204c-21 -32 -52 -48 -95 -48c-25 0 -46 5 -63 16l13 49c16 -8 31 -12 45 -12c20 0 36 8 47 23c24 31 36 90 36 177
c0 55 -2 142 -7 261s-7 204 -7 256c0 105 18 176 53 212c23 25 53 38 90 38c19 0 37 -5 54 -14z" />
    <glyph glyph-name="approxequal" unicode="&#x2248;" horiz-adv-x="626" 
d="M551 431l28 -25c-31 -63 -74 -94 -128 -94c-27 0 -66 14 -118 43c-41 23 -73 34 -95 34c-35 0 -68 -25 -100 -75l-30 23c32 63 78 95 137 95c23 0 61 -14 113 -42c43 -23 75 -35 96 -35c35 0 68 25 97 76zM551 262l28 -24c-31 -63 -74 -94 -128 -94c-27 0 -66 14 -118 43
c-43 23 -74 34 -95 34c-35 0 -68 -25 -100 -76l-30 24c32 63 77 95 136 95c21 0 59 -14 114 -41c43 -24 75 -36 97 -36c35 0 67 25 96 75z" />
    <glyph glyph-name="notequal" unicode="&#x2260;" horiz-adv-x="639" 
d="M474 506l-47 -100h161v-45h-179l-69 -149h248v-44h-266l-55 -119l-36 17l47 102h-153v44h173l68 149h-241v45h259l54 117z" />
    <glyph glyph-name="lessequal" unicode="&#x2264;" horiz-adv-x="650" 
d="M596 97l-454 227v47l454 227v-54l-405 -195v-2l405 -196v-54zM599 9h-463v46h463v-46z" />
    <glyph glyph-name="greaterequal" unicode="&#x2265;" horiz-adv-x="650" 
d="M142 598l454 -227v-47l-453 -227v54l404 195v2l-405 196v54zM598 9h-461v46h461v-46z" />
    <glyph glyph-name="lozenge" unicode="&#x25ca;" horiz-adv-x="670" 
d="M615 352l-203 -397h-54l-201 397l203 398h54zM554 350l-148 290c-6 12 -12 29 -19 52h-3c-5 -18 -11 -35 -19 -52l-147 -286l149 -292c8 -17 14 -34 18 -51h3c3 15 9 31 18 50z" />
    <glyph glyph-name="cir.acute" unicode="&#xe00d;" horiz-adv-x="0" 
d="M347 881l79 -144h-66l-60 108l-106 -108h-66l139 144h80zM621 997l-163 -144h-59l131 144h91z" />
    <glyph glyph-name="cir.grave" unicode="&#xe00e;" horiz-adv-x="0" 
d="M347 881l79 -144h-66l-60 108l-106 -108h-66l139 144h80zM157 855l-102 144h91l70 -144h-59z" />
    <glyph glyph-name="cir.tilde" unicode="&#xe00f;" horiz-adv-x="0" 
d="M347 881l79 -144h-66l-60 108l-106 -108h-66l139 144h80zM220 898h-43c27 69 65 104 114 104c18 0 41 -8 68 -23c30 -15 51 -23 62 -23c25 0 45 17 60 50h43c-27 -69 -65 -104 -114 -104c-15 0 -38 8 -68 23c-26 15 -47 23 -62 23c-25 0 -45 -17 -60 -50z" />
    <glyph glyph-name="breve.tilde" unicode="&#xe010;" horiz-adv-x="0" 
d="M408 871h44c-11 -41 -33 -73 -65 -97c-32 -23 -69 -35 -110 -35s-73 12 -94 35c-23 24 -31 56 -25 97h44c-1 -52 28 -78 87 -78c60 0 100 26 119 78zM202 898h-43c27 69 65 104 114 104c18 0 41 -8 68 -23c30 -15 51 -23 62 -23c25 0 45 17 60 50h43
c-27 -69 -65 -104 -114 -104c-15 0 -38 8 -68 23c-26 15 -47 23 -62 23c-25 0 -45 -17 -60 -50z" />
    <glyph glyph-name="breve.acute" unicode="&#xe011;" horiz-adv-x="0" 
d="M414 897h44c-11 -41 -33 -73 -66 -97c-31 -23 -68 -35 -109 -35s-73 12 -95 35c-22 24 -30 56 -24 97h44c-2 -52 27 -78 86 -78c60 0 100 26 120 78zM505 1049l-163 -144h-59l131 144h91z" />
    <glyph glyph-name="breve.grave" unicode="&#xe012;" horiz-adv-x="0" 
d="M415 897h44c-11 -41 -33 -73 -66 -97c-31 -23 -68 -35 -109 -35s-73 12 -95 35c-22 24 -30 56 -24 97h44c-2 -52 27 -78 86 -78c60 0 100 26 120 78zM294 906l-102 144h91l70 -144h-59z" />
    <glyph glyph-name="breve.hook" unicode="&#xe013;" horiz-adv-x="0" 
d="M413 896h44c-11 -41 -33 -73 -65 -97c-32 -23 -69 -35 -110 -35s-73 12 -94 35c-23 24 -31 56 -25 97h44c-1 -52 28 -78 87 -78c60 0 100 26 119 78zM319 864h-45c1 21 10 36 27 45c15 9 24 17 25 24c1 5 0 9 -4 12c-3 3 -9 5 -16 5s-13 -2 -18 -5c-6 -3 -12 -10 -17 -21
l-43 4c8 20 20 34 35 42s31 12 50 12s34 -4 45 -13s16 -20 13 -35c-4 -16 -17 -30 -38 -43c-9 -5 -14 -14 -14 -27z" />
    <glyph glyph-name="cir.hook" unicode="&#xe014;" horiz-adv-x="0" 
d="M347 882l79 -144h-66l-60 108l-106 -108h-66l139 144h80zM451 865h-45c3 27 13 47 30 59c16 13 25 23 27 32c1 7 0 12 -3 16c-3 5 -9 7 -16 7s-13 -2 -18 -6c-7 -5 -13 -14 -18 -28l-43 5c9 27 21 45 38 56c15 11 31 16 50 16s34 -6 45 -17c11 -12 14 -28 10 -47
c-5 -21 -18 -40 -40 -57c-11 -7 -16 -19 -17 -36z" />
    <glyph glyph-name="uniE015" unicode="&#xe015;" horiz-adv-x="240" 
d="M242 564l-102 144h91l70 -144h-59z" />
    <glyph glyph-name="uniE016" unicode="&#xe016;" horiz-adv-x="240" 
d="M400 708l-162 -144h-59l130 144h91z" />
    <glyph glyph-name="uniE017" unicode="&#xe017;" horiz-adv-x="240" 
d="M310 708l79 -144h-66l-60 108l-106 -108h-66l139 144h80z" />
    <glyph glyph-name="uniE018" unicode="&#xe018;" horiz-adv-x="240" 
d="M419 708l-139 -144h-80l-79 144h66l61 -108l105 108h66z" />
    <glyph glyph-name="uniE019" unicode="&#xe019;" horiz-adv-x="240" 
d="M123 576h-43c27 69 66 104 115 104c18 0 41 -8 68 -23c30 -15 51 -23 62 -23c25 0 44 17 59 50h43c-27 -69 -65 -104 -114 -104c-15 0 -38 8 -68 23c-26 15 -47 23 -62 23c-25 0 -45 -17 -60 -50z" />
    <glyph glyph-name="uniE01A" unicode="&#xe01a;" horiz-adv-x="240" 
d="M242 564l-102 144h91l70 -144h-59z" />
    <glyph glyph-name="uniE01B" unicode="&#xe01b;" horiz-adv-x="240" 
d="M266 708l-163 -144h-59l131 144h91zM466 708l-162 -144h-59l130 144h91z" />
    <glyph glyph-name="uniE01C" unicode="&#xe01c;" horiz-adv-x="240" 
d="M373 708h44c-11 -41 -32 -73 -65 -97c-32 -23 -69 -35 -110 -35s-73 12 -94 35c-22 24 -30 56 -25 97h44c-1 -52 28 -78 87 -78c60 0 100 26 119 78z" />
    <glyph glyph-name="uniE01D" unicode="&#xe01d;" horiz-adv-x="240" 
d="M373 708h44c-11 -41 -32 -73 -65 -97c-32 -23 -69 -35 -110 -35s-73 12 -94 35c-22 24 -30 56 -25 97h44c-1 -52 28 -78 87 -78c60 0 100 26 119 78z" />
    <glyph glyph-name="uniE01E" unicode="&#xe01e;" horiz-adv-x="240" 
d="M312 582c-23 -18 -48 -27 -74 -27s-46 9 -61 27c-15 19 -20 41 -15 68c6 27 21 49 44 68c22 18 46 27 72 27s47 -9 63 -27c15 -19 19 -41 13 -68c-5 -27 -19 -49 -42 -68zM309 692c-9 11 -21 17 -38 17s-32 -6 -46 -17c-15 -11 -24 -25 -27 -42s0 -31 9 -42
s22 -17 39 -17s32 6 45 17c15 11 24 25 27 42s0 31 -9 42z" />
    <glyph glyph-name="uniE01F" unicode="&#xe01f;" horiz-adv-x="0" 
d="M391 547h-45c3 27 13 47 31 59c16 13 25 23 27 32c1 7 0 12 -4 16c-3 5 -9 7 -16 7s-13 -2 -18 -6c-6 -5 -12 -14 -18 -28l-43 5c9 27 22 45 38 56c15 11 32 16 51 16s34 -6 44 -17c11 -12 14 -28 10 -47c-5 -21 -18 -40 -40 -57c-10 -7 -16 -19 -17 -36z" />
    <glyph glyph-name="uniE020" unicode="&#xe020;" horiz-adv-x="252" 
d="M134 692c12 11 25 16 40 16s26 -5 34 -16c7 -10 10 -22 7 -35s-11 -25 -22 -35c-12 -11 -25 -16 -40 -16s-26 5 -34 16c-7 10 -9 22 -6 35s10 25 21 35zM338 692c12 11 25 16 40 16s26 -5 34 -16c7 -10 10 -22 7 -35s-11 -25 -22 -35c-12 -11 -25 -16 -40 -16
s-26 5 -34 16c-7 10 -9 22 -6 35s10 25 21 35z" />
    <glyph glyph-name="fi" unicode="&#xfb01;" horiz-adv-x="537" 
d="M356 468l-9 -60h-111l-57 -408h-66l57 408h-99l9 60h99l18 128c16 115 76 172 181 172c17 0 35 -2 56 -7l-20 -60c-19 5 -35 7 -50 7c-57 0 -91 -40 -102 -120l-17 -120h111zM516 468l-66 -468h-66l66 468h66zM536 614c-11 -9 -22 -14 -35 -14s-23 5 -31 14
c-9 9 -12 21 -10 34s9 25 20 35c11 9 22 13 35 13s23 -4 31 -13c9 -10 12 -22 10 -35s-9 -25 -20 -34z" />
    <glyph glyph-name="fl" unicode="&#xfb02;" horiz-adv-x="537" 
d="M356 468l-9 -60h-111l-57 -408h-66l57 408h-99l9 60h99l18 128c16 115 76 172 181 172c17 0 35 -2 56 -7l-20 -60c-19 5 -35 7 -50 7c-57 0 -91 -40 -102 -120l-17 -120h111zM556 756l-106 -756h-66l106 756h66z" />
    <glyph glyph-name="_254" horiz-adv-x="337" 
d="M126 445c-20 15 -28 35 -24 62c10 67 73 100 189 100h22l1 8c6 38 -13 57 -56 57c-33 0 -64 -10 -93 -30l-27 37c33 27 75 41 125 41c45 0 77 -11 96 -33c15 -16 21 -35 18 -57l-20 -137c-1 -3 -2 -24 -4 -63h-54l2 36h-1c-23 -28 -57 -42 -104 -42c-29 0 -53 7 -70 21z
M307 559h-13c-83 0 -126 -16 -131 -49c-4 -25 14 -38 53 -38c53 0 83 29 91 87z" />
    <glyph glyph-name="_255" horiz-adv-x="385" 
d="M374 466c-34 -28 -75 -42 -122 -42s-83 14 -110 42s-37 63 -31 105c6 43 26 79 60 107c35 28 75 42 122 42s84 -14 111 -42c26 -28 36 -64 30 -107c-6 -42 -26 -77 -60 -105zM356 642c-17 20 -41 30 -70 30s-54 -10 -77 -30c-21 -19 -34 -43 -38 -71c-3 -27 3 -51 19 -70
c17 -19 39 -29 68 -29s55 10 78 29c22 19 35 43 38 70c4 28 -2 52 -18 71z" />
    <glyph glyph-name="_256" horiz-adv-x="361" 
d="M325 714l-59 -425h-60l51 365l-91 -67l-24 38l129 89h54z" />
    <glyph glyph-name="_257" horiz-adv-x="361" 
d="M375 343l-7 -54h-293l8 57l194 164c44 38 68 70 71 96c3 16 -3 30 -18 42c-14 12 -30 18 -49 18c-47 0 -79 -19 -96 -56l-55 9c23 67 74 101 155 101c39 0 71 -9 94 -28c25 -20 35 -47 30 -82c-6 -43 -44 -93 -114 -150l-147 -117h227z" />
    <glyph glyph-name="_258" horiz-adv-x="361" 
d="M198 483l7 54h24c67 0 104 22 110 67c3 18 -2 33 -14 45c-12 11 -28 17 -49 17c-35 0 -66 -15 -93 -46l-42 33c37 45 84 67 141 67c37 0 67 -10 90 -29c23 -20 33 -47 28 -81c-7 -49 -39 -82 -96 -99v-2c29 -5 50 -17 65 -36c13 -19 18 -41 15 -68
c-5 -38 -24 -68 -56 -90c-30 -21 -66 -32 -108 -32c-73 0 -118 29 -134 86l56 30c11 -41 40 -62 89 -62c20 0 40 7 59 22c20 15 31 30 34 47c7 51 -26 77 -97 77h-29z" />
    </font>
</defs>
</svg>
