<?xml version="1.0" standalone="no"?>
<!DOCTYPE svg PUBLIC "-//W3C//DTD SVG 1.1//EN" "http://www.w3.org/Graphics/SVG/1.1/DTD/svg11.dtd">
<svg xmlns="http://www.w3.org/2000/svg">
<metadata>Generated by Fontastic.me</metadata>
<defs>
<font id="precita" horiz-adv-x="512">
<font-face font-family="precita" units-per-em="512" ascent="480" descent="-32"/>
<missing-glyph horiz-adv-x="512" />

<glyph glyph-name="0percent" unicode="&#98;" d="M122 258c0 7 1 14 1 21 1 7 2 14 4 21 2 7 4 14 7 20 4 7 7 12 12 17 5 5 11 9 17 11 6 3 14 5 23 5 8 0 16-2 22-5 7-2 13-6 17-11 5-5 9-10 12-17 3-6 5-13 7-20 2-7 3-14 4-21 1-7 1-14 1-21 0-10-1-20-3-31-1-11-5-22-9-31-5-10-11-17-19-24-9-6-19-9-32-9-13 0-24 3-32 9-8 7-15 14-19 24-5 9-8 20-10 31-2 11-3 21-3 31z m25 0c0-6 1-13 1-22 1-8 3-16 6-24 2-7 6-14 11-19 5-5 12-8 21-8 9 0 15 3 21 8 5 5 8 12 11 19 3 8 4 16 5 24 1 9 1 16 1 22 0 4 0 9 0 14 0 5-1 11-2 16-1 6-2 11-4 16-2 5-4 10-7 14-3 4-6 7-10 9-4 3-9 4-15 4-6 0-11-1-15-4-4-2-8-5-10-9-3-4-6-9-7-14-2-5-3-10-4-16-1-5-2-11-2-16-1-5-1-10-1-14z m128 60c0 4 1 8 2 12 2 4 4 7 7 10 3 3 6 5 10 7 4 2 8 3 13 3 4 0 9-1 12-3 4-2 8-4 11-7 2-3 5-6 6-10 2-4 3-8 3-12 0-5-1-9-3-13-1-4-4-7-6-10-3-3-7-5-11-7-4-2-8-2-12-2-5 0-9 0-13 2-4 2-7 4-10 7-3 3-5 6-7 10-1 4-2 8-2 13z m14 0c0-6 2-10 5-13 3-4 8-5 13-5 5 0 9 1 13 5 3 3 5 7 5 13 0 5-2 9-5 12-4 4-8 6-13 6-5 0-10-2-13-6-3-3-5-7-5-12z m22-106l-11 6 81 134 11-5z m41 35c0 4 1 8 2 12 2 4 4 8 7 10 3 3 6 6 10 7 4 2 8 3 13 3 4 0 8-1 12-3 4-1 7-4 10-7 3-2 5-6 7-10 2-4 3-8 3-12 0-5-1-9-3-13-2-4-4-7-7-10-3-3-6-5-10-7-4-1-8-2-12-2-5 0-9 1-13 2-4 2-7 4-10 7-3 3-5 7-7 10-1 4-2 8-2 13z m14 0c0-5 2-10 5-13 3-3 8-5 13-5 5 0 9 2 13 5 3 3 5 8 5 13 0 5-2 9-5 13-4 3-8 5-13 5-5 0-10-2-13-5-3-4-5-8-5-13z m-110-243c-139 0-252 113-252 252 0 139 113 252 252 252 139 0 252-113 252-252 0-139-113-252-252-252z m0 470c-120 0-218-98-218-218 0-120 98-218 218-218 120 0 218 98 218 218 0 120-98 218-218 218z"/>
<glyph glyph-name="earth" unicode="&#100;" d="M82 430c48 48 105 72 173 72 68 0 125-24 173-72 48-47 72-105 72-173 0-68-24-125-72-173-48-47-105-71-173-71-68 0-125 24-173 71-48 48-72 105-72 173 0 68 24 126 72 173z m37-332l3-2c5-5 13-11 25-18-18 18-26 47-23 85l3 27c1 1 0 3-2 6-1 2-2 4-2 6 0 5-2 8-5 9-1 2-3 3-4 5-7 6-11 13-13 18-6 13-3 28 11 47 3 6 3 13-3 21-5 8-8 13-8 14 0 3-2 5-4 7-3 2-3 4-3 6 1 4 0 6-4 7-2 1-4 2-6 3-5 3-7 8-6 15 1 7 0 11-1 13-24-38-33-80-30-125 3-45 19-85 47-119l1-1 0-1 1 0c5-6 8-10 10-12 2-2 4-3 6-6 3-2 4-3 5-4z m45-30l9-4c4-2 8-3 11-3 14-6 30-9 47-11 33-4 63-1 91 8 19 7 35 14 46 22 3 2 5 6 7 13 2 8 4 12 4 13 3 5 4 13 4 25 0 12 4 21 9 27 4 4 6 8 7 12 1 3 0 8-1 12-1 5-1 9-1 13 0 2 1 7 3 14 2 8 2 13 1 18 0 1-2 1-5 0-2-1-4-1-5 1-2 2-4 3-8 3-4 1-9 1-13 0-5-1-8-1-10-1-8 1-20 10-36 25-2 2-1 12 1 28 1 3 2 8 3 16 0 8 2 14 5 18 2 4 7 6 13 8 3 1 5 3 6 6 2 3 4 5 5 6 2 1 5 1 8 2 4 1 6 1 9 2 3 1 8 1 14 0 6-1 11-2 14-2 5 0 13-4 24-12 2-2 5-3 7-4 3 0 6 0 9 0 3 0 6 0 8-1 3 1 2 3-2 9-2 1-5 2-9 2-6 1-14 6-22 16-8 9-14 14-17 17-5 2-9 2-12 0l1-14c0 0-5-2-14-5-7-2-13 2-19 11-3 6-3 11 2 13l4 0c1 1 3 1 4 2 1 0 3 1 6 1 2 1 3 2 5 3 1 0 3 1 4 2 2 1 3 3 4 4 0 2 0 3 0 5-1 1-1 4-1 7-1 5-3 7-5 8-3 1-5 2-8 4-3 3-5 4-8 5-4 0-6 6-6 15 0 5 2 8 6 8 1 0 3 0 4 0-18 11-39 20-62 26-3-9-6-13-9-13-5-2-8-3-10-3-1-2-3-4-5-7-2-4-4-6-6-8-1-1-3-2-4-3-2-1-4-1-6 1-2 2-4 5-6 9-1 4-1 10 1 16 1 7 2 12 1 14l-9 0c5-10 2-17-9-20-3 0-6 0-9 2-4 2-7 3-10 2-1 0-3 1-6 2-2 1-4 1-6 0-9-4-14-8-15-13-1-6 0-10 3-11 4-1 8 0 12 5 11 10 20 12 28 6 3-3 5-8 5-15 0-3 0-6 0-8-1-2-2-5-3-7-2-3-4-3-7-3 0 0-2 1-3 2-2 1-3 2-4 2-1 0-2 0-5 0-1-2-12-5-31-10-5-1-10-3-16-5-6-3-10-4-12-5-8-3-12-8-13-13 0-11-1-16-3-17-2 0-3 1-5 5-2 4-4 8-8 12-3 4-7 6-11 5-7-1-14-4-21-10-6-6-9-13-6-20 0-2 3-3 8-4 5-1 7-2 8-3 2-1 0-4-5-9-1-1-1-3-1-5 0-2 1-5 2-9 0-4 1-7 1-7 0-6 3-9 8-12 6-3 10-3 15 1 3 3 8 4 15 2 28-16 45-25 49-30 1-1 4-6 8-15 4-9 8-14 11-15 0-1 5-3 12-6 8-3 13-6 16-10 3-4 3-9 1-13-3-5-6-9-9-12-2-1-5-6-9-15-5-10-8-15-9-17-1-2-7-4-17-7-1 0-2-1-4-3-1-2-2-4-3-5-1-2-2-4-3-4-2-2-4-5-8-10-3-5-7-9-11-11-16-12-23-28-19-48 1-9 5-15 11-18z m201 331c5-9 6-15 3-16-1-2-3-2-7-1-3 0-5 3-7 6-1 2-1 5-1 7l-1 3-3 0c-5-2-7 0-7 4 1 2 3 3 6 5 0 1-1 1-1 2-1 5 0 6 3 6 6-2 11-7 15-16z"/>
<glyph glyph-name="30day" unicode="&#99;" d="M170 202c3-8 6-15 11-19 5-4 12-6 22-6 5 0 9 0 13 2 4 2 8 4 11 7 3 2 6 6 8 10 2 4 3 8 3 13 0 8-2 14-5 18-3 5-7 8-12 11-5 2-11 3-17 4-6 1-11 1-17 1l0 22c9 0 17 0 23 1 6 2 11 3 14 6 4 2 6 5 7 9 2 3 2 7 2 12 0 9-3 17-8 22-6 5-13 7-22 7-7 0-13-2-18-6-5-4-10-9-12-15l-25 8c4 12 12 21 21 26 10 6 21 9 33 9 8 0 15-1 22-3 6-2 12-5 17-9 5-4 10-10 12-16 3-6 5-13 5-22 0-9-3-18-9-25-5-8-13-13-22-16l0 0c6-1 11-3 15-6 4-3 8-6 11-10 3-4 6-9 7-14 2-5 2-10 2-16 0-9-1-16-4-23-4-6-8-12-14-16-5-4-12-8-19-10-7-2-15-3-23-3-14 0-26 3-36 9-11 6-18 16-22 30z m87 47c0 6 0 13 1 20 1 7 2 14 4 21 2 7 4 14 7 20 3 7 7 12 11 17 5 5 11 8 17 11 6 3 14 4 22 4 9 0 16-1 23-4 6-3 12-6 16-11 5-5 9-10 12-17 3-6 5-13 7-20 2-6 3-14 4-21 0-7 1-14 1-20 0-10-1-20-3-31-2-11-5-21-9-30-5-10-11-18-19-24-8-6-19-9-32-9-13 0-23 3-31 9-8 6-15 14-19 24-5 9-8 19-10 30-1 11-2 21-2 31z m25 0c0-6 0-13 1-22 1-8 2-16 5-23 2-8 6-14 11-20 5-5 12-8 20-8 9 0 16 3 21 8 5 6 9 12 11 20 3 7 5 15 5 23 1 9 1 16 1 22 0 4 0 8 0 14 0 5-1 10-2 16-1 5-2 10-4 15-1 5-4 10-7 14-2 4-6 7-10 9-4 2-9 4-15 4-5 0-10-2-14-4-4-2-8-6-10-9-3-4-6-9-7-14-2-5-3-10-4-15-1-6-2-11-2-16 0-6 0-10 0-14z m223 177l-22-77c-1-4-4-8-8-10-4-2-9-3-14-1l-77 22c-4 1-8 4-10 8l0 0c-2 4-3 9-2 13 2 5 5 8 9 11l0 0c4 2 8 2 13 1l34-10c-18 24-40 44-66 59-32 17-68 27-105 27-58 0-112-23-152-63-40-41-63-94-63-152 0-57 23-111 63-151 41-41 95-63 152-63 37 0 74 10 107 28 32 18 58 43 77 74 5 8 16 11 24 6l0 0c4-3 6-7 7-11 1-5 1-10-2-13-21-36-53-66-89-86-38-22-81-33-124-33-138 0-249 112-249 249 0 138 111 250 249 250 43 0 85-12 123-33 32-18 60-43 81-74l11 39c2 6 7 11 14 12l1 0c2 1 4 1 7 0 9-3 14-13 11-22z"/>
<glyph glyph-name="location" unicode="&#97;" d="M255 3l-12 11c-31 30-60 63-86 97-58 76-88 142-88 198 0 112 82 200 186 200 104 0 185-88 185-200 0-118-143-265-172-294z m0 471c-85 0-151-72-151-165 0-96 113-219 151-258 38 39 151 164 151 258 0 45-16 87-44 118-28 31-66 47-107 47z m0-236c-38 0-72 22-87 56-14 35-6 73 21 100 27 25 67 33 102 19 35-14 58-47 58-84-1-50-43-91-94-91z m-5 148c-30-3-54-27-54-57 0-31 26-57 59-57 0 0 0 0 0 0 32 0 59 26 59 57 0 31-26 57-59 57l-5 0z"/>
<glyph glyph-name="phone" unicode="&#101;" d="M484 148c-13 14-32 28-56 42-39 23-72 28-91 14-29-18-36-20-37-20 0 0-3 1-13 9l-1 2c-9 7-22 20-41 39l-5 5c-2 1-3 2-4 3-4 4-16 17-35 39l-1 1c-17 19-17 21-17 21 0 3 2 11 15 29 17 22 17 49 2 80-8 16-24 39-46 68l-1 1c-15 18-32 27-52 27-14 0-30-6-49-18l0-1c-22-14-36-30-42-49-12-35-3-80 26-134 31-56 69-107 111-151 33-33 70-65 110-94 51-38 96-57 133-57 14 0 24 0 31 1 8 1 18 5 29 12 12 7 23 17 35 31 30 36 29 70-1 100z m-26-77c-12-15-22-24-30-27-9-4-21-6-37-6-28 0-66 18-114 52-41 30-77 60-106 89-40 41-76 90-105 144-24 44-32 80-23 106 4 11 13 22 26 30l3 1c16 10 25 12 29 12 10 0 18-5 27-15l1-1c41-49 57-85 43-103-17-22-25-38-24-52 1-9 9-22 25-40l0-2 2-1c30-34 36-41 39-43 3-3 4-4 4-4l3-2c11-13 25-27 43-42l3-1c14-12 25-18 34-18 6 0 17 3 55 26 2 1 5 2 8 2 13 0 30-6 50-18 21-13 36-24 46-35 11-10 13-17 14-21 0-2-1-10-16-31z"/>
<glyph glyph-name="bag" unicode="&#102;" d="M92 382l10-8-10-8z m77 16c-4-14-6-28-7-44l-62 0 17 14c2 1 3 3 3 5 0 2-1 4-3 6l-21 18c1 0 2 1 4 1z m84 95c24 0 44-18 55-45-15 16-34 25-55 25-20 0-39-9-55-25 11 27 32 45 55 45z m154-95c1 0 2-1 3-1l-21-18c-2-2-2-4-2-6 0-2 1-4 2-6l18-13-63 0c0 15-2 30-7 43z m-3-24l11 8 0-16z m-88 38l-126 0c0 0 0 1 0 2 14 27 37 45 63 45 26 0 49-18 63-45 0-1 0-2 0-2z m-132-14l139 0c5-13 7-28 7-44l-154 0c0 16 3 31 8 44z m263-57c-1 1-1 2-2 2l-1 1c-1 1-1 1-1 1l-15 11 0 34c0 12-9 22-21 22l-75 0c-1 2-1 4-2 5-5 51-37 90-77 90-39 0-71-39-76-90-1-1-2-3-2-5l-75 0c-12 0-22-10-22-22l0-34-14-11c0 0-1 0-1 0l-1-1c-1-1-2-2-2-3-2-2-3-5-3-8l0-315c0-8 7-15 15-15l363 0c8 0 14 7 14 15l0 314c0 4 0 6-2 9z"/>
<glyph glyph-name="search" unicode="&#103;" d="M102 171c-65 66-65 173 0 239 32 32 75 49 120 49 45 0 87-17 119-49 66-66 66-173 0-239-32-32-74-50-119-50-45 0-88 18-120 50m397-109l-101 101c61 85 54 204-23 280-42 43-97 64-153 64-56 0-111-21-153-64-85-84-85-222 0-306 42-43 97-64 153-64 45 0 89 14 127 42l101-102c7-6 16-10 24-10 9 0 18 4 25 10 13 14 13 35 0 49"/>
<glyph glyph-name="right-arrow" unicode="&#105;" d="M135 2l-11 11 243 242-243 243 11 11 254-254z"/>
<glyph glyph-name="left-arrow" unicode="&#104;" d="M378 509l11-11-243-243 243-242-11-11-254 253z"/>
<glyph glyph-name="polygon" unicode="&#106;" d="M256 508l218-126 0-252-218-126-218 126 0 252z"/>
<glyph glyph-name="rotation" unicode="&#107;" d="M315 91c-5-1-11-2-17-2l0-24c0-20-14-36-32-36l-32 0c-18 0-33 16-33 36l0 23c-5 0-10 1-16 2l0-25c0-30 22-54 49-54l32 0c27 0 49 24 49 54z m-64 410c-36 0-65-29-65-64 0-36 29-64 65-64 35 0 64 28 64 64 0 35-29 64-64 64z m0-110c-26 0-46 21-46 46 0 26 20 46 46 46 25 0 45-21 45-46 0-25-20-46-45-46z m193-177c-1 3-4 8-6 12-1 0-1 0-1 0l0-1c-15-14-34-28-54-44-6-4-12-8-18-12l-9-7c-1 0-1 0-1-1 0 0 0 0 1 0 2-1 4-1 6-1 3 0 5 0 7-1 2 0 5 0 7 0 2 0 4 0 7-1l10-1-9-5c-2-1-5-2-9-3-1-1-4-1-6-2-5-2-10-4-16-5-11-3-22-6-35-8l-3 0 0 29 1 1c12 10 19 25 19 41l0 107c0 28-22 51-50 51l-75 0c-28 0-50-23-50-51l0-45-3 0c-67-14-109-42-109-74 0-5 1-10 3-15 17-39 97-67 195-67 77 0 143 17 176 45l1 0 41-1-1 0 1 0c-4 19-10 39-20 59z m-265-81l-3 1c-25 4-45 9-61 15-24 10-40 21-47 33 0 1-1 1-1 2 0 1 0 2-1 2-1 3-1 4-1 7 0 15 18 31 50 43 11 5 24 9 40 12l4 1 0-44c0-15 7-31 19-40l2-1 0-31z m122 43c-2-1-5-4-5-8l0-37-2 0c-14-2-30-2-49-2-18 0-32 0-45 2l-3 0 0 38c0 4-3 6-5 7-10 6-16 18-16 29l0 107c0 19 15 34 33 34l74 0c19 0 34-15 34-34l0-104 1 0 0-3c-1-12-7-23-17-29z"/>
<glyph glyph-name="arrow-down" unicode="&#108;" d="M55 398l201-199 201 199 50-50-251-251-251 251z"/>
<glyph glyph-name="instagram" unicode="&#109;" d="M426 105l0 185-39 0c4-12 6-25 6-38 0-24-6-46-18-66-13-20-29-36-50-48-21-12-44-18-69-18-37 0-69 13-96 39-27 26-40 57-40 93 0 13 2 26 6 38l-41 0 0-185c0-5 2-10 5-13 4-3 8-5 13-5l305 0c5 0 9 2 13 5 3 3 5 8 5 13z m-81 152c0 23-9 44-26 60-18 17-38 25-63 25-24 0-45-8-62-25-17-16-26-37-26-60 0-24 9-44 26-61 17-16 38-25 62-25 25 0 45 9 63 25 17 17 26 37 26 61z m81 103l0 47c0 5-2 10-6 14-4 4-8 6-14 6l-50 0c-5 0-10-2-14-6-4-4-5-9-5-14l0-47c0-6 1-10 5-14 4-4 9-6 14-6l50 0c6 0 10 2 14 6 4 4 6 8 6 14z m49 59l0-326c0-16-5-29-16-40-11-11-24-16-40-16l-326 0c-16 0-29 5-40 16-11 11-16 24-16 40l0 326c0 16 5 29 16 40 11 11 24 16 40 16l326 0c16 0 29-5 40-16 11-11 16-24 16-40z"/>
<glyph glyph-name="facebook" unicode="&#110;" d="M384 509l0-76-45 0c-17 0-28-3-33-10-6-7-9-17-9-31l0-54 84 0-11-85-73 0 0-216-87 0 0 216-73 0 0 85 73 0 0 62c0 36 10 63 29 83 20 19 47 29 80 29 28 0 49-1 65-3z"/>
<glyph glyph-name="youtube" unicode="&#111;" d="M314 157l0-61c0-12-4-19-11-19-5 0-9 2-13 6l0 86c4 5 8 7 13 7 7 0 11-7 11-19z m97-1l0-13-26 0 0 13c0 13 4 20 13 20 8 0 13-7 13-20z m-276 63l30 0 0 26-89 0 0-26 30 0 0-163 29 0z m82-163l25 0 0 141-25 0 0-108c-6-8-11-12-16-12-4 0-6 2-6 6-1 1-1 4-1 10l0 104-25 0 0-112c0-9 1-16 2-20 2-7 8-11 17-11 9 0 19 6 29 17z m122 42l0 57c0 13 0 23-2 28-3 11-10 16-20 16-10 0-19-5-27-16l0 62-25 0 0-189 25 0 0 14c9-11 17-16 27-16 10 0 17 5 20 16 2 5 2 14 2 28z m97 3l0 4-26 0c0-10 0-16-1-18-1-6-5-10-11-10-9 0-13 7-13 20l0 25 51 0 0 29c0 15-3 26-8 33-7 10-17 15-30 15-13 0-23-5-31-15-5-7-8-18-8-33l0-49c0-15 3-26 9-33 7-10 17-15 31-15 13 0 24 5 30 15 4 5 6 10 6 16 1 1 1 7 1 16z m-174 261l0 60c0 13-4 20-12 20-8 0-12-7-12-20l0-60c0-13 4-20 12-20 8 0 12 7 12 20z m206-215c0-44-3-77-8-100-2-11-8-20-16-28-9-7-18-12-29-13-35-4-88-6-159-6-71 0-124 2-159 6-11 1-20 6-29 13-8 8-14 17-16 28-5 22-8 55-8 100 0 45 3 78 8 100 2 12 8 21 16 29 9 7 18 12 30 13 35 4 87 6 158 6 71 0 124-2 159-6 11-1 20-6 29-13 8-8 14-17 16-29 5-21 8-54 8-100z m-285 365l29 0-35-114 0-77-28 0 0 77c-3 14-9 34-18 61-7 19-13 37-18 53l30 0 20-75z m105-95l0-50c0-16-2-27-8-34-7-10-17-14-30-14-13 0-23 4-30 14-5 7-8 19-8 34l0 50c0 15 3 26 8 33 7 10 17 15 30 15 13 0 23-5 30-15 6-7 8-18 8-33z m96 46l0-142-26 0 0 15c-10-12-20-17-29-17-9 0-15 3-17 10-2 5-3 12-3 22l0 112 26 0 0-105c0-6 1-9 1-10 0-4 2-6 6-6 5 0 10 4 16 12l0 109z"/>
<glyph glyph-name="google-plus" unicode="&#112;" d="M228 285c0-7 3-14 9-21 7-6 14-13 23-19 8-6 17-13 25-21 9-8 16-18 22-30 7-12 10-25 10-40 0-17-5-34-14-50-14-23-34-40-60-51-27-11-55-16-86-16-25 0-48 4-70 11-22 8-38 21-49 40-7 11-11 24-11 37 0 16 5 30 13 43 9 13 20 24 34 33 25 15 63 25 115 28-6 8-10 15-13 22-3 6-5 13-5 20 0 7 2 15 6 25-8-1-15-1-19-1-28 0-52 9-71 27-20 19-29 42-29 70 0 16 3 31 10 45 7 15 16 28 28 38 15 12 32 22 52 28 21 6 41 9 63 9l119 0-39-25-38 0c14-12 25-25 32-38 7-13 11-29 11-46 0-14-2-26-7-37-5-11-10-20-17-26-6-7-13-13-20-19-6-6-12-11-17-18-4-6-7-12-7-18z m-41 27c7 0 14 2 22 5 7 3 14 7 19 12 10 11 15 26 15 46 0 11-2 23-5 35-3 13-8 25-14 37-6 12-14 22-24 30-10 8-21 12-33 12-8 0-16-2-24-6-8-4-14-9-19-15-9-11-13-26-13-46 0-8 1-18 3-28 2-9 5-19 9-29 4-10 9-19 15-26 5-8 13-15 21-20 8-5 18-7 28-7z m0-249c11 0 22 1 32 3 10 3 20 6 28 11 9 5 16 12 21 21 5 9 8 20 8 31 0 5-1 10-2 14-1 5-3 9-4 12-2 4-4 8-8 12-4 5-6 8-8 10-2 2-6 6-11 10-6 5-9 7-11 8-1 2-5 4-12 9-6 5-9 7-10 7-3 1-8 1-14 1-10 0-20-1-30-2-10-1-20-4-30-7-11-4-20-8-28-13-8-6-15-13-20-22-5-8-7-18-7-30 0-13 3-25 10-35 6-10 15-18 26-24 10-5 22-10 34-12 12-3 24-4 36-4z m232 250l60 0 0-31-60 0 0-63-30 0 0 63-61 0 0 31 61 0 0 62 30 0z"/>
<glyph glyph-name="ios-arrow-thin-left" unicode="&#113;" d="M190 162c3 3 3 8 0 12l-67 74 285 0c4 0 8 4 8 8 0 4-4 8-8 8l-285 0 67 74c3 4 3 8 0 12-3 3-9 3-12 0 0 0-79-87-80-88 0-1-2-3-2-6 0-3 2-5 2-6 1-1 80-88 80-88 2-1 4-2 6-2 2 0 4 1 6 2z"/>
<glyph glyph-name="help-buoy" unicode="&#114;" d="M256 480c-124 0-224-100-224-224 0-124 100-224 224-224 124 0 224 100 224 224 0 124-100 224-224 224z m178-153l-61-18c-6 14-15 26-26 38-12 11-24 20-38 26l18 61c24-9 46-24 65-42 18-19 33-41 42-65z m-178-167c-53 0-96 43-96 96 0 53 43 96 96 96 53 0 96-43 96-96 0-53-43-96-96-96z m-136 232c19 18 41 33 65 42l18-61c-14-7-26-15-38-27-11-11-20-24-26-38l-61 19c9 24 24 46 42 65z m-42-208l61 19c7-14 15-26 27-38 11-11 24-20 38-26l-19-61c-24 9-46 23-65 42-18 19-33 41-42 64z m314-64c-19-19-41-33-64-42l-19 61c14 6 26 15 38 26 11 12 20 24 26 38l61-18c-9-24-24-46-42-65z"/>
<glyph glyph-name="certificate" unicode="&#115;" d="M256 429c-15 0-29-3-43-8-13-6-25-14-35-24-10-10-18-22-24-35-6-14-8-28-8-43 0-15 2-29 8-43 6-13 14-25 24-35 10-10 22-18 35-24 14-6 28-8 43-8 15 0 29 2 43 8 13 6 25 14 35 24 10 10 18 22 24 35 6 14 8 28 8 43 0 15-2 29-8 43-6 13-14 25-24 35-10 10-22 18-35 24-14 5-28 8-43 8z m0-189c-22 0-40 8-56 24-15 15-23 33-23 55 0 22 8 40 23 56 16 15 34 23 56 23 22 0 40-8 56-23 15-16 23-34 23-56 0-22-8-40-23-55-16-16-34-24-56-24z m174-7c6 13 11 27 14 41 4 14 6 28 6 44 0 26-6 51-16 74-10 23-24 43-41 60-18 18-38 31-62 41-23 10-48 15-75 15-27 0-52-5-75-15-24-10-44-23-62-41-17-17-31-37-41-60-11-24-16-48-16-74 0-16 2-30 6-44 3-14 8-28 14-41l-78-134c0 0 10-2 31-6 21-4 44-9 69-14 17-19 32-36 46-52 14-16 21-23 21-23l73 123c2 0 4 0 6 0 2-1 4-1 6-1 2 0 4 0 6 1 2 0 4 0 6 0l73-123c0 0 7 7 21 23 14 15 29 33 46 52 25 5 48 10 69 14 21 4 31 6 31 6z m-262-172c0 0-5 5-15 14-10 10-21 20-33 31-16 5-30 9-44 13-13 4-20 6-20 6l45 78c14-17 30-32 48-44 19-13 39-21 61-27z m88 100c-22 0-42 5-61 13-20 8-36 19-50 34-14 14-26 31-34 50-8 19-13 39-13 61 0 22 5 42 13 61 8 19 20 36 34 50 14 15 30 26 50 34 19 8 39 12 61 12 22 0 42-4 61-12 20-8 36-19 50-34 14-14 26-31 34-50 8-19 13-39 13-61 0-22-5-42-13-61-8-20-20-36-34-50-14-15-30-26-50-34-19-8-39-13-61-13z m136-55c-12-11-23-21-33-31-10-9-15-14-15-14l-41 71c22 6 42 14 60 27 19 12 35 27 48 44l45-78c0 0-6-2-20-6-14-4-28-8-44-13z"/>
<glyph glyph-name="money-back" unicode="&#116;" d="M256 34c-122 0-223 100-223 222 0 122 100 222 223 222 123 0 223-100 223-222 0-122-101-222-223-222m0 473c-140 0-252-113-252-251 0-138 112-252 252-252 140 0 252 113 252 252 0 139-112 251-252 251m21-165l-96 0 23 23-21 21-59-58 59-59 21 21-23 23 95 0c45 0 82-37 82-81 0-45-37-81-82-81l-129 0 0-30 130 0c61 0 111 50 111 111 0 61-51 110-111 110"/>
<glyph glyph-name="heart-o" unicode="&#117;" d="M475 342c0 15-2 29-6 41-4 11-9 21-15 28-7 7-15 12-24 17-9 4-18 7-27 9-8 1-18 2-28 2-9 0-20-3-32-7-11-5-22-11-31-19-10-7-18-14-25-20-7-7-12-13-17-18-3-4-8-6-14-6-6 0-11 2-14 6-5 5-10 11-17 18-7 6-15 13-25 20-9 8-20 14-31 19-12 4-23 7-32 7-10 0-20-1-28-2-9-2-18-5-27-9-9-5-17-10-24-17-6-7-11-17-15-28-4-12-6-26-6-41 0-32 17-66 53-102l166-160 166 160c36 36 53 70 53 102z m37 0c0-42-22-85-65-129l-178-171c-4-4-8-5-13-5-5 0-9 1-13 5l-178 172c-2 1-4 4-8 7-3 4-8 10-16 19-7 9-13 18-19 28-6 9-11 21-15 34-5 14-7 27-7 40 0 42 12 74 36 98 24 24 58 35 101 35 11 0 23-2 36-6 12-4 23-9 34-16 11-7 20-14 27-20 8-6 15-12 22-19 7 7 14 13 22 19 7 6 16 13 27 20 11 7 22 12 34 16 13 4 25 6 36 6 43 0 77-11 101-35 24-24 36-56 36-98z"/>
<glyph glyph-name="like" unicode="&#118;" d="M431 351l-143 0 0 81c1 51-15 76-47 76-11 0-22-3-30-8-8-6-13-12-15-18l-3-7c-1-23-6-43-16-62-9-19-19-34-31-45-12-11-24-21-37-28-12-8-22-14-30-17-7-2-11-4-12-4l0-252 46-2c22 0 39-3 52-7 13-4 23-9 30-15 7-6 16-12 25-18 10-6 26-11 48-15 23-4 53-6 89-6 20 0 38 2 55 7 16 6 30 12 40 20 11 8 20 18 27 32 7 13 13 25 17 36 4 11 6 25 8 42 3 18 4 32 4 42 0 11 0 25 0 41 0 42-7 73-23 94-15 22-33 33-54 33z m-74-316c-31 0-57 2-77 6-20 3-33 7-40 10-6 4-14 8-22 14-15 11-29 18-43 24-14 5-35 8-61 8l-16 1 0 199c13 6 25 13 36 21 12 9 25 20 38 33 14 13 26 30 35 51 10 20 16 42 18 67 2 5 8 7 16 7 4 0 7 0 8-2 5-5 8-19 7-42l0-113 175 0c12 0 23-9 32-25 9-17 14-40 14-70 0-66-8-114-24-144-17-30-49-45-96-45z m-337 0c4 0 8 2 11 5 3 3 4 6 4 11l0 283c0 4-1 7-4 11-3 3-7 5-11 5-5 0-9-2-12-5-3-4-4-7-4-11l0-283c0-5 1-8 4-11 3-3 7-5 12-5z"/>
<glyph glyph-name="ios-minus-empty" unicode="&#119;" d="M384 247l-256 0 0 17 256 0z"/>
<glyph glyph-name="ios-plus-empty" unicode="&#120;" d="M384 247l-120 0 0-119-17 0 0 119-119 0 0 17 119 0 0 120 17 0 0-120 120 0z"/>
<glyph glyph-name="signin-google" unicode="&#121;" d="M109 256c0 16 3 32 8 47l-87 65c-17-34-26-72-26-112 0-40 9-78 26-112l87 65c-5 15-8 31-8 47m153 149c36 0 69-13 95-33l75 73c-46 39-105 63-170 63-102 0-190-57-232-140l87-65c20 59 77 102 145 102m0-298c-68 0-125 43-145 102l-87-65c42-83 130-140 231-140 63 0 123 22 168 63l-82 62c-23-14-52-22-85-22m246 149c0 15-2 31-6 46l-240 0 0-98 138 0c-7-33-26-58-53-75l83-62c47 43 78 107 78 189"/>
<glyph glyph-name="navicon" unicode="&#122;" d="M96 271l320 0 0-32-320 0z m0 96l320 0 0-32-320 0z m0-192l320 0 0-32-320 0z"/>
<glyph glyph-name="arrow-up" unicode="&#65;" d="M256 298l174-167c5-4 12-4 16 0l31 30c4 4 4 11 0 16l-213 204c-2 2-5 3-8 3-3 0-6-1-8-3l-213-204c-4-5-4-12 0-16l31-30c4-4 12-4 16 0z"/>
<glyph glyph-name="close-round" unicode="&#66;" d="M438 125l-131 131 131 131c14 14 14 36 0 50-15 15-37 15-51 0l-131-130-131 130c-14 15-36 15-50 0-15-14-15-36 0-50l130-131-130-131c-15-14-15-36 0-51 14-14 36-14 50 0l131 131 131-131c14-14 36-14 51 0 14 15 14 37 0 51z"/>
<glyph glyph-name="cart-mobile" unicode="&#67;" d="M224 86c-8 0-15-4-21-10-7-6-10-13-10-21 0-8 3-16 10-22 6-6 13-9 21-9 9 0 16 3 22 9 6 6 9 14 9 22 0 8-3 15-9 21-6 6-13 10-22 10z m-62 276l-38 123-100 0c-4 0-8-2-11-5-3-3-5-7-5-11 0-4 2-7 5-10 3-3 7-5 11-5l77 0 31-92 31-184c0-17 6-32 18-44 12-12 27-18 44-18l169 0c17 0 32 6 44 18 12 12 18 27 18 44l46 184z m264-184c0-9-3-16-9-22-6-6-13-9-22-9l-170 0c-8 0-15 3-21 9-7 6-10 13-10 22l-25 153 296 0z m-47-92c-9 0-16-4-22-10-6-6-9-13-9-21 0-8 3-16 9-22 6-6 13-9 22-9 8 0 15 3 21 9 6 6 9 14 9 22 0 8-3 15-9 21-6 6-13 10-21 10z"/>
<glyph glyph-name="search-mobile" unicode="&#68;" d="M506 39l-29-29-145 145c-35-29-76-43-123-43-54 0-100 19-139 57-38 39-57 85-57 139 0 53 19 99 57 137 39 38 84 57 138 57 54 0 100-19 138-57 39-38 58-84 58-138 0-46-15-87-43-122z m-421 144c34-34 75-50 123-50 48 0 89 17 124 51 34 34 51 75 51 123 0 48-17 89-51 124-35 34-76 51-124 51-48 0-89-17-123-51-34-35-51-76-51-124 0-48 17-90 51-124z"/>
<glyph glyph-name="messenger" unicode="&#69;" d="M280 207c5 5 10 11 16 17 5 6 9 11 14 16 7 7 13 14 19 21 4 4 7 8 11 12 6 7 12 14 19 20 3 4 7 8 10 12 5 6 10 11 16 17 4 4 8 9 13 14 1 2 2 3 3 4 0 0 0 0 0 0-36-20-72-40-109-60-21 20-41 41-62 61-5-6-10-11-15-17-5-6-10-11-15-16-6-7-12-14-18-21-4-4-8-8-12-12-6-7-12-14-18-21-4-3-7-7-11-11-5-6-10-11-15-17-4-5-9-9-14-14-1-2-2-3-3-4 0 0 0-1 0-1 36 20 73 41 109 61 21-20 41-41 62-61m-27 295l5 0c1 0 2 0 2 0 18 0 35-3 52-7 22-5 42-13 62-24 24-14 46-31 64-53 14-16 25-34 34-53 8-20 14-40 16-62 2-16 2-32 0-49-2-14-5-28-10-41-6-20-15-38-27-55-12-16-25-31-40-43-16-14-34-25-53-34-15-7-30-12-46-16-12-3-25-5-39-6-11-1-22-1-34 0-15 1-31 4-46 7-1 1-3 1-4 0-30-19-61-37-92-55 0-1-1-1-2-2l0 3c0 35 0 70 0 105 0 1 0 2-1 3-9 8-17 16-24 25-12 15-22 30-30 48-9 20-15 41-18 63-2 18-1 35 1 52 3 20 8 40 16 58 13 29 31 53 54 74 25 23 53 39 86 50 13 4 27 8 41 9 9 2 19 2 29 3 1 0 2 0 4 0"/>
<glyph glyph-name="ios-arrow-down" unicode="&#70;" d="M397 352l19-21-160-171-160 171 19 21 141-151z"/>
<glyph glyph-name="ios-arrow-up" unicode="&#71;" d="M397 160l19 21-160 171-160-171 19-21 141 150z"/>
<glyph glyph-name="round-circle" unicode="&#72;" d="M507 255c0 136-107 245-244 250l-27 1 1-2c-132-9-234-117-234-249 0-41 10-82 30-118l13-23 0 1c47-69 125-110 209-110 88 0 168 44 214 118l14 23-1-1c16 34 25 72 25 110z m-463-81c-10 26-15 53-15 81 0 120 93 217 212 224l27-34-27-36c-80-7-142-74-142-154 0-17 3-34 8-50l-47 6z m325 17l-4-7c-24-37-65-59-110-59-44 0-85 22-110 59l-3 5 0 0-4 7c-9 18-14 38-14 59 0 69 55 126 124 130l6 0 0 0 8 0c69-4 124-61 124-130 0-21-5-40-14-59z m-114-161c-77 0-147 38-189 101l17 40 44-6c30-41 77-65 128-65 45 0 88 19 117 53l19-44 40 5c-43-53-107-84-176-84z m203 124l-44-5-17 41c10 20 14 42 14 65 0 75-53 138-125 152l29 38-25 32c109-17 191-109 191-222 0-35-8-70-23-101z"/>
<glyph glyph-name="water" unicode="&#73;" d="M260 75c-7 0-12 5-12 12 0 7 5 12 12 12 49 0 87 36 87 81 0 7 6 12 13 12 6 0 12-5 12-12 0-59-49-105-112-105z m-11 318c-72 0-73 99-73 103 0 7-5 12-12 12-6 0-12-5-12-12 0-4-1-103-72-103-7 0-13-6-13-13 0-6 6-12 13-12 71 0 72-99 72-103 0-7 6-12 12-12 7 0 12 5 12 12 0 4 1 103 73 103 6 0 12 6 12 12 0 7-6 13-12 13z m-85-64c-8 20-20 39-40 51 20 12 32 31 40 52 8-21 21-40 40-52-19-11-32-31-40-51z m148 152c-13 16-30 24-52 24-22 0-39-8-52-24-7-9-15-20-24-33 3-9 6-18 11-26 11 17 22 31 32 44 9 11 18 15 33 15 15 0 24-4 33-15 53-67 132-202 132-300 0-85-86-138-165-138-79 0-165 53-165 138 0 48 19 105 45 159-4 9-9 17-15 24-30-59-54-125-54-183 0-101 96-162 189-162 93 0 189 61 189 162 0 112-90 255-137 315z"/>
<glyph glyph-name="diamond" unicode="&#74;" d="M259 3c-1 0-3 0-5 1-1 0-2 1-3 2-1 0-1 0-1 1l-194 209c0 1 0 1-1 2 0 1-1 2-1 3-1 1-1 2-1 3 0 2 0 3 0 5 1 1 1 2 1 3 1 0 1 1 1 1l75 104c0 0 1 0 1 0 2 4 6 6 10 6l236 0c5 0 9-2 11-6 0 0 0 0 0 0l75-104c1-1 1-1 1-1 1-1 1-2 1-3 1-2 1-3 1-5 0-1 0-2-1-3 0-1-1-2-1-3-1-1-1-1-1-2l-194-209c0 0-1-1-1-1-1-1-2-2-4-2-1-1-3-1-5-1z m-63 209l63-160 63 160z m155 0l-54-136 126 136z m-255 0l125-136-53 136z m264 26l67 0-45 63z m-156 0l111 0-56 70z m-112 0l66 0-21 63z m195 78l50-64 22 64z m-127 0l21-64 51 64z m228 56c-4 0-7 1-10 3-5 6-5 14 0 19l55 54c5 5 13 5 18 0 6-5 6-13 0-18l-54-55c-3-2-6-3-9-3z m-257 0c-3 0-7 1-9 3l-55 55c-5 5-5 13 0 18 5 5 14 5 19 0l54-54c6-5 6-14 0-19-2-2-6-3-9-3z m128 27c-7 0-13 6-13 13l0 77c0 8 6 14 13 14 8 0 14-6 14-14l0-77c0-8-6-13-14-13z"/>
<glyph glyph-name="trade" unicode="&#75;" d="M125 130c-3 0-6 2-7 4l-63 69c-3 4-4 9-1 13l25 35c1 2 5 4 8 4l77 0c3 0 6-2 8-4l25-35c3-4 2-9-1-13l-63-69c-2-2-5-4-8-4z m-49 81l49-55 50 55-17 23-66 0z m49 98c-61 0-111-50-111-112 0-62 50-112 111-112 62 0 111 50 111 112 0 62-49 112-111 112z m0-203c-50 0-90 41-90 91 0 50 40 91 90 91 50 0 90-41 90-91 0-50-40-91-90-91z m275 102c-13 5-15 8-15 12 0 4 3 9 11 9 8 0 14-3 16-5l4-2 7 17-3 2c-5 3-11 5-17 5l0 15-17 0 0-16c-13-3-22-13-22-26 0-17 14-24 27-29 12-5 13-10 13-14 0-6-5-10-13-10-6 0-13 2-18 6l-4 3-7-18 3-2c5-3 12-6 20-7l0-15 17 0 0 16c14 4 23 15 23 28 0 18-13 26-25 31z m-6 101c-62 0-111-50-111-112 0-62 49-112 111-112 61 0 110 50 110 112 0 62-49 112-110 112z m0-203c-50 0-91 41-91 91 0 50 41 91 91 91 49 0 90-41 90-91 0-50-41-91-90-91z m-40 298l-66 0 35 36-14 15-45-45-45 45-14-15 35-36-73 0c-28 0-51-23-51-52l0-51 20 0 0 51c0 18 14 32 31 32l71 0-33-34 14-15 45 45 45-45 14 15-34 34 65 0c17 0 31-14 31-32l0-51 21 0 0 51c0 29-24 52-52 52z"/>
<glyph glyph-name="balance" unicode="&#76;" d="M272 89c-43 0-78 37-78 83 0 45 35 82 78 82 5 0 8-3 8-8 0-4-3-8-8-8-34 0-62-30-62-66 0-37 28-67 62-67 35 0 63 30 63 67 0 4 4 8 8 8 4 0 8-4 8-8 0-46-35-83-79-83z m105-81l-210 0c-12 0-24 5-33 14-9 10-14 23-13 37l11 223c2 30 25 53 54 53l173 0c29 0 52-23 54-53l11-223c1-14-4-27-13-37-9-9-21-14-34-14z m-191 307c-18 0-33-15-34-34l-11-223c-1-8 2-16 8-22 5-5 11-8 18-8l211 0c7 0 13 3 18 8 6 6 9 14 8 22l-11 223c-1 19-16 34-34 34z m76 32l20 0 0-34-20 0z m-141-56c-5 0-10 5-10 10 0 4-1 87-60 87-6 0-10 4-10 10 0 6 4 10 10 10 59 0 60 83 60 87 0 5 5 10 10 10 6 0 10-5 10-11 0-3 1-86 61-86 6 0 10-5 10-10 0-6-4-10-10-10-60 0-61-83-61-87 0-5-4-10-10-10z m-33 107c16-10 27-26 33-43 7 17 18 33 33 43-15 10-26 26-33 43-6-17-17-33-33-43z m340 46c-9 10-22 16-35 16l-241 0c-6 0-11-1-15-2 2-7 4-13 7-19 3 1 5 1 8 1l241 0c8 0 14-3 20-9 5-7 8-16 6-24l-3-20c-3-22-20-37-41-37l-206 0c-9 0-18 3-24 8-4-6-6-13-8-19 9-6 20-9 32-9l206 0c31 0 56 22 61 54l3 20c3 14-2 29-11 40z"/>
<glyph glyph-name="ios-arrow-back" unicode="&#77;" d="M352 384l-32 32-160-160 160-160 32 32-127 128z"/>
<glyph glyph-name="ios-arrow-forward" unicode="&#78;" d="M160 384l32 32 160-160-160-160-32 32 127 128z"/>
<glyph glyph-name="load-c" unicode="&#79;" d="M480 286c-2 9-3 17-5 26-3 10-7 21-11 31-9 22-21 41-36 59-16 19-35 35-57 48-21 12-44 21-68 26-12 2-25 4-38 4-9 0-19 0-29-1-26-3-51-10-74-21-20-9-38-21-55-36-16-15-31-32-42-50-13-21-22-44-27-68-5-19-7-38-6-58 1-19 4-37 10-56 3-11 8-22 13-33 5-11 12-21 19-31 13-19 30-36 49-50 20-15 42-26 65-33 24-8 50-12 76-11 24 1 49 6 72 15 22 8 43 21 62 36 9 8 17 17 25 26 8 9 15 19 20 30 5 9 10 19 13 28 2 5 4 10 5 15 2 5 3 11 4 16 1 9 2 17 1 26-1-4-1-7-2-11-1-4-3-9-4-13-4-8-8-17-11-25-5-11-11-21-17-31-3-5-7-10-10-15-4-5-8-9-12-14-8-9-17-17-27-24-10-8-21-14-32-20-23-11-47-17-72-19-26-3-52 0-77 7-23 7-45 18-65 33-19 14-35 32-48 52-14 20-23 43-28 67-1 6-2 13-3 19-1 5-1 11-1 16-1 12 0 23 2 34 4 25 12 49 24 70 11 20 25 37 42 52 17 15 36 26 57 35 12 5 24 8 37 11 7 1 13 2 20 2 3 1 6 1 9 1 2 0 3 0 4 0 22 0 44-2 64-9 23-7 44-18 62-33 19-15 35-34 47-56 10-18 17-38 22-58 1-5 2-9 2-14 1-4 3-8 7-11 8-5 19-1 23 7 1 3 1 6 1 9z"/>
<glyph glyph-name="talk-chat-2" unicode="&#80;" d="M402 293c0-27-9-51-27-74-17-22-42-40-73-53-31-13-64-20-101-20-16 0-33 2-50 5-24-17-50-29-80-37-6-1-15-3-24-4l-1 0c-2 0-4 0-6 2-2 2-3 4-3 6 0 1 0 1 0 2 0 1 0 1 0 2 0 0 0 1 0 1l1 2c0 0 0 0 1 1 1 1 1 2 1 2 0 0 1 0 1 1 1 1 2 2 2 2 1 1 3 3 6 7 4 3 6 6 8 8 1 2 3 5 6 8 3 4 5 8 7 11 2 4 4 8 6 13-24 14-42 31-56 51-13 20-20 41-20 64 0 26 9 51 27 73 18 22 42 40 73 53 31 13 65 20 101 20 37 0 70-7 101-20 31-13 56-31 73-53 18-22 27-47 27-73z m110-74c0-22-7-44-20-64-14-20-32-36-56-50 2-5 4-9 6-13 2-4 4-7 7-11 3-3 5-6 6-8 2-2 4-5 8-8 3-4 5-6 6-8 1 0 1 0 2-1 0-1 1-1 1-1 0-1 1-1 1-2 0 0 1-1 1-1l1-2c0 0 0 0 0-1 1-2 1-2 0-2 0 0 0-1 0-2 0-3-2-5-4-6-1-2-4-3-6-2-9 1-18 2-24 4-30 8-56 20-80 37-17-3-34-5-50-5-52 0-97 13-135 38 11-1 19-1 25-1 31 0 60 4 88 13 29 8 54 20 76 36 24 18 42 38 55 61 12 23 19 47 19 73 0 14-2 29-7 43 25-14 44-30 59-51 14-20 21-42 21-66z"/>
<glyph glyph-name="instagram-alt" unicode="&#81;" d="M338 256c0-46-37-83-83-83-46 0-83 37-83 83 0 46 37 83 83 83 46 0 83-37 83-83z m45 0c0 71-57 128-128 128-71 0-128-57-128-128 0-71 57-128 128-128 71 0 128 57 128 128z m35 133c0 17-13 30-30 30-16 0-29-13-29-30 0-16 13-30 29-30 17 0 30 14 30 30z m-163 72c37 0 114 3 147-10 12-5 20-10 29-19 9-9 14-17 19-29 13-32 10-110 10-147 0-37 3-114-10-147-5-12-10-20-19-29-9-9-17-14-29-19-32-13-110-10-147-10-36 0-114-3-147 10-12 5-20 10-29 19-9 9-14 17-19 29-13 32-10 110-10 147 0 37-3 114 10 147 5 12 10 20 19 29 9 9 17 14 29 19 33 13 111 10 147 10z m250-205c0 34 0 69-2 103-2 40-11 76-40 105-29 29-65 38-105 40-34 2-68 2-103 2-34 0-68 0-103-2-40-2-75-11-105-40-29-29-38-65-40-105-2-35-2-69-2-103 0-35 0-69 2-103 2-40 11-76 40-105 30-29 65-38 105-40 35-2 69-2 103-2 35 0 69 0 103 2 40 2 76 11 105 40 29 29 38 65 40 105 2 34 2 69 2 103z"/>
</font>
</defs>
</svg>
